<?xml version="1.0" encoding="UTF-8"?>
<svg version="1.1" xmlns="http://www.w3.org/2000/svg" width="179" height="183">
<path d="M0 0 C59.07 0 118.14 0 179 0 C179 60.39 179 120.78 179 183 C119.93 183 60.86 183 0 183 C0 122.61 0 62.22 0 0 Z " fill="#FDFAEB" transform="translate(0,0)"/>
<path d="M0 0 C0.86625 0.515625 1.7325 1.03125 2.625 1.5625 C3.5325 1.7275 4.44 1.8925 5.375 2.0625 C7.625 2.5625 7.625 2.5625 9.625 5.5625 C11.55769381 11.68269705 11.86079287 17.16989327 11.625 23.5625 C12.285 23.5625 12.945 23.5625 13.625 23.5625 C13.851875 22.77875 14.07875 21.995 14.3125 21.1875 C15.625 18.5625 15.625 18.5625 17.90625 17.21875 C20.625 16.5625 20.625 16.5625 23.08203125 17.6796875 C23.85933594 18.25976562 24.63664062 18.83984375 25.4375 19.4375 C26.62279297 20.29988281 26.62279297 20.29988281 27.83203125 21.1796875 C28.42371094 21.63601562 29.01539062 22.09234375 29.625 22.5625 C29.625 21.5725 29.625 20.5825 29.625 19.5625 C29.00625 19.294375 28.3875 19.02625 27.75 18.75 C25.625 17.5625 25.625 17.5625 23.625 14.5625 C24 12.375 24 12.375 24.625 10.5625 C27.1 10.0675 27.1 10.0675 29.625 9.5625 C32.06444673 12.22371461 32.63888567 13.65507115 33.1875 17.3125 C34.68027901 24.09325887 41.3434178 27.34439351 46.734375 30.98828125 C48.71654543 32.27028432 48.71654543 32.27028432 51.625 33.5625 C52.615 33.2325 53.605 32.9025 54.625 32.5625 C54.625 33.2225 54.625 33.8825 54.625 34.5625 C56.605 34.5625 58.585 34.5625 60.625 34.5625 C60.625 33.5725 60.625 32.5825 60.625 31.5625 C61.285 31.5625 61.945 31.5625 62.625 31.5625 C63.07875 32.18125 63.5325 32.8 64 33.4375 C65.4322649 35.6691947 65.4322649 35.6691947 67.58984375 36.41015625 C71.55084099 38.65294739 72.3539493 43.41359866 73.625 47.5625 C75.61700301 55.15364659 73.86967421 62.17584082 71.625 69.5625 C71.12891235 70.36868774 71.12891235 70.36868774 70.62280273 71.19116211 C69.09094661 74.83170984 69.0344525 78.50793339 68.7734375 82.421875 C68.70967926 83.28508362 68.64592102 84.14829224 68.58023071 85.03765869 C68.44698645 86.86303708 68.31779913 88.68871551 68.19238281 90.51464844 C68.00160791 93.28911597 67.7988251 96.062494 67.59375 98.8359375 C67.46543643 100.6145323 67.33781028 102.39317685 67.2109375 104.171875 C67.15159027 104.99298767 67.09224304 105.81410034 67.03109741 106.66009521 C66.97749054 107.44741028 66.92388367 108.23472534 66.86865234 109.04589844 C66.82139008 109.72666443 66.77412781 110.40743042 66.72543335 111.10882568 C66.58291681 114.59062909 66.625 118.07778108 66.625 121.5625 C59.695 121.5625 52.765 121.5625 45.625 121.5625 C45.625 120.9025 45.625 120.2425 45.625 119.5625 C46.429375 119.294375 47.23375 119.02625 48.0625 118.75 C48.908125 118.358125 49.75375 117.96625 50.625 117.5625 C51.87662856 113.80761431 51.33823465 110.73312525 50.84765625 106.89453125 C50.75745712 106.14088791 50.667258 105.38724457 50.57432556 104.61076355 C50.28501811 102.19802944 49.98704075 99.78648348 49.6875 97.375 C49.39218202 94.98130648 49.09893182 92.58743503 48.81138611 90.1927948 C48.63245094 88.70403402 48.44910633 87.2157939 48.26051331 85.72822571 C47.68669422 80.97268919 47.54667626 76.35302173 47.625 71.5625 C45.975 71.5625 44.325 71.5625 42.625 71.5625 C42.6657666 72.18294189 42.7065332 72.80338379 42.74853516 73.44262695 C42.92688608 76.25283771 43.08862451 79.06376553 43.25 81.875 C43.31445312 82.85146484 43.37890625 83.82792969 43.4453125 84.83398438 C43.496875 85.77177734 43.5484375 86.70957031 43.6015625 87.67578125 C43.65393066 88.53985596 43.70629883 89.40393066 43.76025391 90.29418945 C43.625 92.5625 43.625 92.5625 41.625 95.5625 C41.3245959 97.58946723 41.3245959 97.58946723 41.3515625 99.80078125 C41.3309375 100.62126953 41.3103125 101.44175781 41.2890625 102.28710938 C41.2631992 104.00055282 41.24486379 105.71412785 41.234375 107.42773438 C41.07540483 113.07559138 40.31444904 116.21668831 36.625 120.5625 C34.03746844 121.85626578 32.07541015 121.73082397 29.1875 121.75 C28.21941406 121.76417969 27.25132813 121.77835937 26.25390625 121.79296875 C23.625 121.5625 23.625 121.5625 20.625 119.5625 C18.625 114.5625 18.625 114.5625 18.625 96.5625 C3.445 96.5625 -11.735 96.5625 -27.375 96.5625 C-27.375 101.8425 -27.375 107.1225 -27.375 112.5625 C-30.01374346 119.15935864 -30.01374346 119.15935864 -34.375 121.5625 C-38.10726045 122.10348651 -41.67315188 122.34183645 -45.375 121.5625 C-49.22817348 117.55655752 -49.49521458 113.74245627 -49.4375 108.375 C-49.42847656 107.28832031 -49.41945313 106.20164062 -49.41015625 105.08203125 C-49.39855469 104.25058594 -49.38695312 103.41914063 -49.375 102.5625 C-49.98988281 102.58570313 -50.60476562 102.60890625 -51.23828125 102.6328125 C-52.04652344 102.65085937 -52.85476562 102.66890625 -53.6875 102.6875 C-54.88826172 102.72230469 -54.88826172 102.72230469 -56.11328125 102.7578125 C-58.375 102.5625 -58.375 102.5625 -61.375 100.5625 C-63.04150971 95.56297088 -62.56535182 90.35986456 -62.5625 85.125 C-62.56314453 83.92190186 -62.56378906 82.71880371 -62.56445312 81.47924805 C-62.50376777 71.07791669 -61.69175359 60.87315091 -60.375 50.5625 C-58.725 50.5625 -57.075 50.5625 -55.375 50.5625 C-54.715 52.5425 -54.055 54.5225 -53.375 56.5625 C-51.725 56.8925 -50.075 57.2225 -48.375 57.5625 C-48.045 52.2825 -47.715 47.0025 -47.375 41.5625 C-48.86 42.0575 -48.86 42.0575 -50.375 42.5625 C-50.705 45.2025 -51.035 47.8425 -51.375 50.5625 C-51.705 50.5625 -52.035 50.5625 -52.375 50.5625 C-52.97318927 45.57758939 -53.53320307 40.7490142 -51.12109375 36.1953125 C-45.40216769 29.84643995 -37.31931396 27.12643507 -29.375 24.5625 C-28.715 24.5625 -28.055 24.5625 -27.375 24.5625 C-27.40980469 23.69367188 -27.44460937 22.82484375 -27.48046875 21.9296875 C-27.7597769 10.03914042 -27.7597769 10.03914042 -24.375 5.5625 C-17.46293935 -1.33322008 -9.44621595 -4.02338827 0 0 Z " fill="#E2E1E2" transform="translate(98.375,41.4375)"/>
<path d="M0 0 C5.93902433 2.67141442 9.74406231 7.14484342 13.0234375 12.66015625 C14.57621827 19.33711357 14.42495958 25.5002204 10.984375 31.52734375 C7.48322214 36.29792045 3.27339817 39.5087268 -2.3515625 41.34765625 C-9.29956456 42.25808411 -15.00912163 42.0081766 -20.73828125 37.76171875 C-25.85594443 33.27601882 -28.59760869 28.02580341 -29.67578125 21.3359375 C-29.98234836 15.95515623 -28.45300538 11.72403629 -25.3515625 7.34765625 C-18.16025622 -0.1940385 -10.36806974 -2.8761921 0 0 Z " fill="#444257" transform="translate(115.3515625,90.65234375)"/>
<path d="M0 0 C1.9375 0.6875 1.9375 0.6875 2.9375 2.6875 C5.01831791 3.55865287 5.01831791 3.55865287 7.4375 4.25 C11.84638383 5.59638383 11.84638383 5.59638383 12.9375 6.6875 C13.00976502 8.54037502 13.0213122 10.39583878 13 12.25 C12.99097656 13.26191406 12.98195313 14.27382812 12.97265625 15.31640625 C12.96105469 16.09886719 12.94945312 16.88132812 12.9375 17.6875 C12.50824219 17.06359375 12.07898438 16.4396875 11.63671875 15.796875 C9.45620466 13.09002993 7.07963818 12.08400586 3.9375 10.6875 C3.6075 12.6675 3.2775 14.6475 2.9375 16.6875 C0.5625 16.375 0.5625 16.375 -2.0625 15.6875 C-4.0625 12.6875 -4.0625 12.6875 -4.0625 9.6875 C-5.0525 9.6875 -6.0425 9.6875 -7.0625 9.6875 C-7.0625 12.6575 -7.0625 15.6275 -7.0625 18.6875 C-8.0525 18.6875 -9.0425 18.6875 -10.0625 18.6875 C-10.0625 19.3475 -10.0625 20.0075 -10.0625 20.6875 C-7.0925 20.6875 -4.1225 20.6875 -1.0625 20.6875 C-1.0625 22.9975 -1.0625 25.3075 -1.0625 27.6875 C-4.16452548 28.12178357 -6.97415502 28.27672371 -10.0625 27.6875 C-11.90450075 26.10133269 -13.17539016 24.39125615 -14.625 22.4453125 C-17.70889686 18.67424297 -21.30420585 17.90334576 -25.89453125 17.33984375 C-32.01120872 17.03978033 -36.27318335 17.60277469 -41.34375 21.10546875 C-43.2457131 22.69109034 -43.2457131 22.69109034 -44.546875 25.34375 C-48.0971044 28.65141714 -50.87469122 28.20109074 -55.58984375 28.12695312 C-57.18505859 28.06411133 -57.18505859 28.06411133 -58.8125 28 C-59.89144531 27.97744141 -60.97039062 27.95488281 -62.08203125 27.93164062 C-64.7435935 27.8727565 -67.40234228 27.79057001 -70.0625 27.6875 C-70.14931476 24.06265001 -70.20282721 20.43806557 -70.25 16.8125 C-70.27513672 15.77996094 -70.30027344 14.74742188 -70.32617188 13.68359375 C-70.33583984 12.69746094 -70.34550781 11.71132812 -70.35546875 10.6953125 C-70.37903442 9.32850342 -70.37903442 9.32850342 -70.40307617 7.93408203 C-70.29068604 7.19270996 -70.1782959 6.45133789 -70.0625 5.6875 C-66.63562252 3.40291501 -65.42309689 3.44298548 -61.39770508 3.46044922 C-60.23672806 3.46060028 -59.07575104 3.46075134 -57.8795929 3.46090698 C-56.62639755 3.47122955 -55.37320221 3.48155212 -54.08203125 3.4921875 C-52.79890549 3.4950174 -51.51577972 3.49784729 -50.19377136 3.50076294 C-46.78573798 3.50839203 -43.37787559 3.52803413 -39.96990967 3.5501709 C-36.49103102 3.57064503 -33.01212468 3.579768 -29.53320312 3.58984375 C-22.70956526 3.61128082 -15.88604084 3.64540795 -9.0625 3.6875 C-8.5675 6.1625 -8.5675 6.1625 -8.0625 8.6875 C-7.0725 8.3575 -6.0825 8.0275 -5.0625 7.6875 C-4.876875 5.9859375 -4.876875 5.9859375 -4.6875 4.25 C-4.48125 3.074375 -4.275 1.89875 -4.0625 0.6875 C-2.0625 -0.3125 -2.0625 -0.3125 0 0 Z " fill="#FCFCFC" transform="translate(136.0625,73.3125)"/>
<path d="M0 0 C0.99 0 1.98 0 3 0 C3.66 1.98 4.32 3.96 5 6 C6.19496094 5.96519531 6.19496094 5.96519531 7.4140625 5.9296875 C17.87833442 5.75146389 17.87833442 5.75146389 23 8 C24.66531407 8.67003826 26.33180122 9.33717645 28 10 C27.50997903 27.01207839 26.99118786 44.00820808 26 61 C19.07 61 12.14 61 5 61 C5 60.34 5 59.68 5 59 C5.804375 58.731875 6.60875 58.46375 7.4375 58.1875 C8.7059375 57.5996875 8.7059375 57.5996875 10 57 C11.25162856 53.24511431 10.71323465 50.17062525 10.22265625 46.33203125 C10.13245712 45.57838791 10.042258 44.82474457 9.94932556 44.04826355 C9.66001811 41.63552944 9.36204075 39.22398348 9.0625 36.8125 C8.76718202 34.41880648 8.47393182 32.02493503 8.18638611 29.6302948 C8.00745094 28.14153402 7.82410633 26.6532939 7.63551331 25.16572571 C7.06169422 20.41018919 6.92167626 15.79052173 7 11 C3.37 11 -0.26 11 -4 11 C-4 10.34 -4 9.68 -4 9 C-3.01 9 -2.02 9 -1 9 C-0.67 6.03 -0.34 3.06 0 0 Z " fill="#373544" transform="translate(139,102)"/>
<path d="M0 0 C2.375 0 2.375 0 5 1 C6.57056767 3.97286023 7.80058582 6.63374338 8.2890625 9.98046875 C10.23748789 15.51528152 18.08208004 19.57854812 22.9375 22.5625 C25.94218792 24.40225034 25.94218792 24.40225034 29 23 C29 23.66 29 24.32 29 25 C30.98 25 32.96 25 35 25 C35 24.01 35 23.02 35 22 C35.66 22 36.32 22 37 22 C40.96989724 27.77866699 41.55074481 31.95001756 41.3125 38.875 C41.29799805 40.174375 41.29799805 40.174375 41.28320312 41.5 C41.16908794 47.83091206 41.16908794 47.83091206 40 49 C37.64686445 49.07271741 35.29166332 49.08370868 32.9375 49.0625 C31.64714844 49.05347656 30.35679687 49.04445312 29.02734375 49.03515625 C28.02832031 49.02355469 27.02929688 49.01195312 26 49 C25.01 45.7 24.02 42.4 23 39 C22.34 39 21.68 39 21 39 C20.855625 40.093125 20.71125 41.18625 20.5625 42.3125 C20 46 20 46 19 49 C17.35 49 15.7 49 14 49 C13.67 47.02 13.34 45.04 13 43 C9.37 43 5.74 43 2 43 C2 42.34 2 41.68 2 41 C2.99 41 3.98 41 5 41 C5 38.03 5 35.06 5 32 C5.99 32 6.98 32 8 32 C8.4125 32.969375 8.825 33.93875 9.25 34.9375 C10.64899168 38.12260099 10.64899168 38.12260099 13.1875 38.875 C13.785625 38.91625 14.38375 38.9575 15 39 C15 36.69 15 34.38 15 32 C16.31602523 32.61754259 17.62773556 33.24428742 18.9375 33.875 C20.03384766 34.39707031 20.03384766 34.39707031 21.15234375 34.9296875 C23 36 23 36 24 38 C24 35.03 24 32.06 24 29 C23.28972656 28.73445313 22.57945312 28.46890625 21.84765625 28.1953125 C20.92855469 27.84210938 20.00945312 27.48890625 19.0625 27.125 C18.14597656 26.77695313 17.22945312 26.42890625 16.28515625 26.0703125 C14 25 14 25 13 23 C11.35 23 9.7 23 8 23 C8 25.31 8 27.62 8 30 C6.68 30.33 5.36 30.66 4 31 C2.35 26.38 0.7 21.76 -1 17 C-1.33 17.33 -1.66 17.66 -2 18 C-3.49738124 18.0979057 -4.99942892 18.12974864 -6.5 18.125 C-7.3146875 18.12757812 -8.129375 18.13015625 -8.96875 18.1328125 C-11 18 -11 18 -12 17 C-11.64476021 10.60568384 -11.64476021 10.60568384 -8.9375 8.0625 C-8.298125 7.711875 -7.65875 7.36125 -7 7 C-3.22272911 8.81309003 0.37269822 10.9073259 4 13 C4 12.01 4 11.02 4 10 C3.38125 9.731875 2.7625 9.46375 2.125 9.1875 C0 8 0 8 -2 5 C-1.48275862 1.48275862 -1.48275862 1.48275862 0 0 Z " fill="#454256" transform="translate(124,51)"/>
<path d="M0 0 C0.86625 0.515625 1.7325 1.03125 2.625 1.5625 C3.5325 1.7275 4.44 1.8925 5.375 2.0625 C7.625 2.5625 7.625 2.5625 9.625 5.5625 C12.07306107 12.77067983 12.06629621 19.99888824 11.625 27.5625 C10.625 28.5625 10.625 28.5625 7.46484375 28.66015625 C6.17707031 28.64855469 4.88929687 28.63695313 3.5625 28.625 C2.27214844 28.61597656 0.98179688 28.60695313 -0.34765625 28.59765625 C-1.34667969 28.58605469 -2.34570312 28.57445313 -3.375 28.5625 C-3.705 27.2425 -4.035 25.9225 -4.375 24.5625 C-11.635 24.5625 -18.895 24.5625 -26.375 24.5625 C-28.76334383 19.78581234 -27.89144696 13.17259935 -26.3125 8.25 C-19.89298211 -0.65449255 -10.56232885 -4.4987697 0 0 Z " fill="#F86A84" transform="translate(98.375,41.4375)"/>
<path d="M0 0 C0.66 0 1.32 0 2 0 C2 7.59 2 15.18 2 23 C2.66 23 3.32 23 4 23 C4 19.7 4 16.4 4 13 C7.0831351 14.19899698 10.06279492 15.47700477 13 17 C12.938125 15.1128125 12.938125 15.1128125 12.875 13.1875 C12.7609626 9.70935927 12.94074319 9.08888522 15 6 C15.66 6.33 16.32 6.66 17 7 C18.71843312 12.53717339 19 15.94748969 19 22 C23.95 22.33 28.9 22.66 34 23 C34.16231081 26.23118743 34.281022 29.45420918 34.375 32.6875 C34.42527344 33.59951172 34.47554687 34.51152344 34.52734375 35.45117188 C34.67015161 41.99653207 34.67015161 41.99653207 32.83764648 44.74047852 C29.57248264 47.70914621 26.64047524 48.66511587 22.3125 48.5625 C21.38050781 48.56378906 20.44851562 48.56507813 19.48828125 48.56640625 C17 48 17 48 15.23046875 46.15234375 C13.00908098 42.26667815 12.89022658 39.20892827 12.9375 34.8125 C12.94652344 33.72582031 12.95554687 32.63914063 12.96484375 31.51953125 C12.97644531 30.68808594 12.98804688 29.85664063 13 29 C12.38511719 29.02320313 11.77023438 29.04640625 11.13671875 29.0703125 C9.92435547 29.09738281 9.92435547 29.09738281 8.6875 29.125 C7.48673828 29.15980469 7.48673828 29.15980469 6.26171875 29.1953125 C4 29 4 29 1 27 C-0.0394775 23.8815675 -0.11494838 21.72524414 -0.09765625 18.45703125 C-0.09443359 17.38388672 -0.09121094 16.31074219 -0.08789062 15.20507812 C-0.07951172 14.08552734 -0.07113281 12.96597656 -0.0625 11.8125 C-0.05798828 10.68134766 -0.05347656 9.55019531 -0.04882812 8.38476562 C-0.03703498 5.58979073 -0.0205765 2.7949218 0 0 Z " fill="#434156" transform="translate(36,115)"/>
<path d="M0 0 C2.9375 0.8125 2.9375 0.8125 4.9375 2.8125 C5.0625 6.4375 5.0625 6.4375 4.9375 9.8125 C5.5975 9.8125 6.2575 9.8125 6.9375 9.8125 C6.9375 11.4625 6.9375 13.1125 6.9375 14.8125 C7.9275 15.1425 8.9175 15.4725 9.9375 15.8125 C10.88671875 17.87890625 10.88671875 17.87890625 11.625 20.375 C11.87636719 21.20128906 12.12773437 22.02757813 12.38671875 22.87890625 C12.56847656 23.51699219 12.75023437 24.15507813 12.9375 24.8125 C13.5975 24.8125 14.2575 24.8125 14.9375 24.8125 C15.83354368 30.86079486 16.05019443 36.7019576 15.9375 42.8125 C12.34550593 42.8125 11.50146215 42.24617952 8.9375 39.8125 C7.890625 37.33203125 7.890625 37.33203125 7.1875 34.625 C6.94515625 33.72394531 6.7028125 32.82289062 6.453125 31.89453125 C6.28296875 31.20746094 6.1128125 30.52039063 5.9375 29.8125 C4.2875 29.4825 2.6375 29.1525 0.9375 28.8125 C-0.01752158 30.53726911 -0.01752158 30.53726911 -0.0625 32.8125 C1.56199243 34.52029973 3.22970027 36.18800757 4.9375 37.8125 C4.9375 38.8025 4.9375 39.7925 4.9375 40.8125 C2.64469151 39.70855517 0.59955032 38.57853483 -1.5 37.125 C-4.55388358 35.56081573 -5.85365073 35.80400451 -9.0625 36.8125 C-9.000625 36.049375 -8.93875 35.28625 -8.875 34.5 C-8.936875 33.613125 -8.99875 32.72625 -9.0625 31.8125 C-9.8359375 31.1628125 -9.8359375 31.1628125 -10.625 30.5 C-12.0625 28.8125 -12.0625 28.8125 -11.9375 24.9375 C-11.33902672 21.36639024 -10.27491257 18.73288459 -8.0625 15.8125 C-7.4025 15.4825 -6.7425 15.1525 -6.0625 14.8125 C-6.7225 14.4825 -7.3825 14.1525 -8.0625 13.8125 C-7.80662595 12.03944336 -7.53222261 10.26905392 -7.25 8.5 C-7.09917969 7.51386719 -6.94835937 6.52773438 -6.79296875 5.51171875 C-5.64228558 1.25972908 -4.48817694 -0.27478634 0 0 Z " fill="#FADB38" transform="translate(123.0625,23.1875)"/>
<path d="M0 0 C1.65 0 3.3 0 5 0 C5.79006333 6.35110343 6.55449657 12.70491255 7.30102539 19.0612793 C7.55812136 21.2241012 7.82111865 23.38622998 8.09008789 25.54760742 C8.4752787 28.65120579 8.83930672 31.75666303 9.19921875 34.86328125 C9.3240715 35.83211746 9.44892426 36.80095367 9.57756042 37.79914856 C9.67789078 38.6998558 9.77822113 39.60056305 9.8815918 40.52856445 C9.97707809 41.32132278 10.07256439 42.11408112 10.17094421 42.93086243 C10 45 10 45 8.75740051 46.77946472 C7 48 7 48 3 48 C3 48.66 3 49.32 3 50 C9.93 50 16.86 50 24 50 C24 50.33 24 50.66 24 51 C-6.36 51 -36.72 51 -68 51 C-68 50.67 -68 50.34 -68 50 C-66.88579681 49.99453156 -66.88579681 49.99453156 -65.74908447 49.98895264 C-58.74517014 49.95106904 -51.74172601 49.89421287 -44.73816299 49.81609726 C-41.13759807 49.77660548 -37.5372783 49.74442579 -33.93652344 49.72900391 C-30.4608341 49.71384782 -26.98581867 49.6794229 -23.51042938 49.63169098 C-21.5407688 49.60965628 -19.5709182 49.60752535 -17.60113525 49.60565186 C-16.40019226 49.58593323 -15.19924927 49.5662146 -13.96191406 49.54589844 C-12.90490295 49.53701599 -11.84789185 49.52813354 -10.7588501 49.51898193 C-7.32784188 48.87355677 -6.16503822 47.678792 -4 45 C-2.857759 42.715518 -2.83324024 41.29499802 -2.75390625 38.75390625 C-2.70459961 37.49803711 -2.70459961 37.49803711 -2.65429688 36.21679688 C-2.59323842 34.45129812 -2.53592926 32.68566561 -2.48242188 30.91992188 C-2.44826172 30.08138672 -2.41410156 29.24285156 -2.37890625 28.37890625 C-2.34132202 27.22757202 -2.34132202 27.22757202 -2.30297852 26.05297852 C-2 24 -2 24 0 21 C0.27512419 18.67733918 0.27512419 18.67733918 0.1953125 16.11328125 C0.18886719 15.17548828 0.18242187 14.23769531 0.17578125 13.27148438 C0.15902344 12.29501953 0.14226562 11.31855469 0.125 10.3125 C0.11597656 9.32443359 0.10695313 8.33636719 0.09765625 7.31835938 C0.0740843 4.87866235 0.04118022 2.43945303 0 0 Z " fill="#EDEBE2" transform="translate(141,113)"/>
<path d="M0 0 C3.00869887 1.78524456 5.40952957 3.81905914 7 7 C7.57717357 11.73093088 7.43416625 15.14717343 5.25 19.4375 C2.55382446 22.50814437 0.65255719 23.7689107 -3.40234375 24.3359375 C-7.6046892 24.40068859 -10.27508514 24.40776461 -14 22.3125 C-17.56002433 18.19622187 -18.52165733 14.48705598 -18.38671875 8.99609375 C-17.6728968 5.31161885 -15.68732737 3.56517612 -13 1 C-8.64199581 -1.68115896 -4.82844005 -1.319885 0 0 Z " fill="#E0E0E3" transform="translate(113,99)"/>
<path d="M0 0 C5.28 0 10.56 0 16 0 C16.10852923 2.87602455 16.1875515 5.74790832 16.25 8.625 C16.30027344 9.83736328 16.30027344 9.83736328 16.3515625 11.07421875 C16.4407298 16.55800755 15.69238797 19.66486302 12 24 C9.41246844 25.29376578 7.45041015 25.16832397 4.5625 25.1875 C3.59441406 25.20167969 2.62632813 25.21585938 1.62890625 25.23046875 C-1 25 -1 25 -4 23 C-4.94137255 20.17588235 -5.11725382 18.47081968 -5.09765625 15.55078125 C-5.09443359 14.70322266 -5.09121094 13.85566406 -5.08789062 12.98242188 C-5.07951172 12.10134766 -5.07113281 11.22027344 -5.0625 10.3125 C-5.05798828 9.41982422 -5.05347656 8.52714844 -5.04882812 7.60742188 C-5.03704983 5.40488013 -5.02060164 3.20247401 -5 1 C-4.67 1 -4.34 1 -4 1 C-3.67 6.94 -3.34 12.88 -3 19 C-2.34 19 -1.68 19 -1 19 C-0.67 12.73 -0.34 6.46 0 0 Z " fill="#464356" transform="translate(123,138)"/>
<path d="M0 0 C2.375 0 2.375 0 5 1 C6.56996218 3.97171413 7.80483874 6.62845004 8.28125 9.9765625 C9.34209719 12.96307795 11.26196883 14.15231039 13.75 16.0625 C14.61109375 16.73410156 15.4721875 17.40570313 16.359375 18.09765625 C18.95319844 20.05805682 18.95319844 20.05805682 21.828125 21.49609375 C22.90320313 22.24052734 22.90320313 22.24052734 24 23 C24 24.32 24 25.64 24 27 C22.54054712 26.91291331 21.08234132 26.80473093 19.625 26.6875 C18.81289062 26.62949219 18.00078125 26.57148437 17.1640625 26.51171875 C15 26 15 26 13 23 C10.41619823 22.74969023 10.41619823 22.74969023 8 23 C8 25.31 8 27.62 8 30 C6.68 30.33 5.36 30.66 4 31 C2.35 26.38 0.7 21.76 -1 17 C-1.33 17.33 -1.66 17.66 -2 18 C-3.49738124 18.0979057 -4.99942892 18.12974864 -6.5 18.125 C-7.3146875 18.12757812 -8.129375 18.13015625 -8.96875 18.1328125 C-11 18 -11 18 -12 17 C-11.64476021 10.60568384 -11.64476021 10.60568384 -8.9375 8.0625 C-8.298125 7.711875 -7.65875 7.36125 -7 7 C-3.22272911 8.81309003 0.37269822 10.9073259 4 13 C4 12.01 4 11.02 4 10 C3.38125 9.731875 2.7625 9.46375 2.125 9.1875 C0 8 0 8 -2 5 C-1.48275862 1.48275862 -1.48275862 1.48275862 0 0 Z " fill="#3D3740" transform="translate(124,51)"/>
<path d="M0 0 C4 1 4 1 5.23046875 2.96875 C9.3766187 13.93489354 9.44521926 21.66264853 6 33 C5.47212891 33.97259766 5.47212891 33.97259766 4.93359375 34.96484375 C3.60309149 37.86522733 3.56522651 40.57955819 3.375 43.75 C3.30023438 44.92046875 3.22546875 46.0909375 3.1484375 47.296875 C3.09945312 48.18890625 3.05046875 49.0809375 3 50 C2.67 50 2.34 50 2 50 C1.97307516 47.70839681 1.95363876 45.41670454 1.9375 43.125 C1.92589844 41.84882812 1.91429687 40.57265625 1.90234375 39.2578125 C2 36 2 36 3 34 C1.948125 33.814375 1.948125 33.814375 0.875 33.625 C-2 33 -2 33 -4.5625 31.9375 C-9.68190574 30.54129843 -14.72546361 30.84637273 -20 31 C-20.33 30.34 -20.66 29.68 -21 29 C-20.34 29 -19.68 29 -19 29 C-18.34 24.05 -17.68 19.1 -17 14 C-15 17 -15 17 -14 22 C-9.38 21.67 -4.76 21.34 0 21 C0 14.07 0 7.14 0 0 Z " fill="#C6C4C6" transform="translate(164,78)"/>
<path d="M0 0 C59.07 0 118.14 0 179 0 C179 0.66 179 1.32 179 2 C177.64356274 2.00496522 177.64356274 2.00496522 176.25972271 2.01003075 C154.27735464 2.0911778 132.2950561 2.18324285 110.31278515 2.28752708 C99.68241509 2.3376932 89.0520529 2.38413561 78.42163086 2.421875 C69.15840014 2.45477006 59.89522978 2.49458742 50.63206559 2.54279006 C45.72527048 2.56807982 40.81851552 2.58985374 35.91167259 2.60334396 C31.29636971 2.61614189 26.68120439 2.6381716 22.0659771 2.66738319 C20.36922947 2.67647677 18.67245968 2.68215333 16.97568893 2.68421364 C14.66443647 2.68752366 12.35357702 2.70296641 10.04240417 2.7215271 C8.74728503 2.72705786 7.45216589 2.73258862 6.11780071 2.73828697 C2.83506252 2.76101132 2.83506252 2.76101132 0 5 C0 3.35 0 1.7 0 0 Z " fill="#FEFEFD" transform="translate(0,0)"/>
<path d="M0 0 C0.66 0 1.32 0 2 0 C2 7.59 2 15.18 2 23 C2.66 23 3.32 23 4 23 C4 19.7 4 16.4 4 13 C7.0831351 14.19899698 10.06279492 15.47700477 13 17 C12.938125 15.1128125 12.938125 15.1128125 12.875 13.1875 C12.7609626 9.70935927 12.94074319 9.08888522 15 6 C15.66 6.33 16.32 6.66 17 7 C18.96523829 13.08255091 19.30749332 18.70469694 19.25 25.0625 C19.25773437 25.92166016 19.26546875 26.78082031 19.2734375 27.66601562 C19.25766139 32.82874776 18.67144493 37.11168686 17 42 C16.34 41.01 15.68 40.02 15 39 C14.34 39.66 13.68 40.32 13 41 C13 37.04 13 33.08 13 29 C10.8653125 29.061875 10.8653125 29.061875 8.6875 29.125 C5.01939967 29.23132175 4.20380017 29.13586678 1 27 C-0.0394775 23.8815675 -0.11494838 21.72524414 -0.09765625 18.45703125 C-0.09443359 17.38388672 -0.09121094 16.31074219 -0.08789062 15.20507812 C-0.07951172 14.08552734 -0.07113281 12.96597656 -0.0625 11.8125 C-0.05798828 10.68134766 -0.05347656 9.55019531 -0.04882812 8.38476562 C-0.03703498 5.58979073 -0.0205765 2.7949218 0 0 Z " fill="#4E4C5D" transform="translate(36,115)"/>
<path d="M0 0 C1.17794853 3.53384559 1.13264317 6.40277553 1.125 10.125 C1.12886719 12.01605469 1.12886719 12.01605469 1.1328125 13.9453125 C1 17 1 17 0 18 C-2.35313555 18.07271741 -4.70833668 18.08370868 -7.0625 18.0625 C-8.35285156 18.05347656 -9.64320312 18.04445313 -10.97265625 18.03515625 C-11.97167969 18.02355469 -12.97070312 18.01195313 -14 18 C-15.53266582 14.93466836 -15.10276471 11.73245728 -15.0625 8.375 C-15.05798828 7.66859375 -15.05347656 6.9621875 -15.04882812 6.234375 C-15.03703875 4.48954725 -15.01910324 2.744763 -15 1 C-13.25215171 0.63536268 -11.50159498 0.2836922 -9.75 -0.0625 C-8.28820312 -0.35833984 -8.28820312 -0.35833984 -6.796875 -0.66015625 C-4.10399548 -0.98736368 -2.47666446 -1.08496081 0 0 Z " fill="#484258" transform="translate(109,52)"/>
<path d="M0 0 C1.65 0 3.3 0 5 0 C6.41193641 10.41303106 7.30028643 20.47329223 7 31 C4.03 31 1.06 31 -2 31 C-2.25 24.375 -2.25 24.375 0 21 C0.27512419 18.67733918 0.27512419 18.67733918 0.1953125 16.11328125 C0.18886719 15.17548828 0.18242187 14.23769531 0.17578125 13.27148438 C0.15064453 11.80678711 0.15064453 11.80678711 0.125 10.3125 C0.11597656 9.32443359 0.10695312 8.33636719 0.09765625 7.31835938 C0.0740843 4.87866235 0.04118022 2.43945303 0 0 Z " fill="#F6F5ED" transform="translate(141,113)"/>
<path d="M0 0 C7.55573883 3.63794832 11.58473873 7.19204578 15 15 C15.44972527 17.88844166 15.32604822 20.06556603 15 23 C13.68 23.33 12.36 23.66 11 24 C9.35 19.38 7.7 14.76 6 10 C5.67 10.33 5.34 10.66 5 11 C3.50261876 11.0979057 2.00057108 11.12974864 0.5 11.125 C-0.3146875 11.12757812 -1.129375 11.13015625 -1.96875 11.1328125 C-4 11 -4 11 -5 10 C-4.64476021 3.60568384 -4.64476021 3.60568384 -1.9375 1.0625 C-0.9784375 0.5365625 -0.9784375 0.5365625 0 0 Z " fill="#3A3540" transform="translate(117,58)"/>
<path d="M0 0 C0.99 0 1.98 0 3 0 C3.4125 0.969375 3.825 1.93875 4.25 2.9375 C5.64899168 6.12260099 5.64899168 6.12260099 8.1875 6.875 C8.785625 6.91625 9.38375 6.9575 10 7 C10 4.69 10 2.38 10 0 C11.98 0.99 13.96 1.98 16 3 C16.1799928 8.21979128 15.97094808 12.07262981 14 17 C12.35 17 10.7 17 9 17 C8.67 15.02 8.34 13.04 8 11 C4.37 11 0.74 11 -3 11 C-3 10.34 -3 9.68 -3 9 C-2.01 9 -1.02 9 0 9 C0 6.03 0 3.06 0 0 Z " fill="#33323E" transform="translate(129,83)"/>
<path d="M0 0 C2.64 0 5.28 0 8 0 C7.85982174 2.97953359 7.71313658 5.95849304 7.5625 8.9375 C7.52318359 9.78763672 7.48386719 10.63777344 7.44335938 11.51367188 C7.40146484 12.32255859 7.35957031 13.13144531 7.31640625 13.96484375 C7.26141968 15.08814087 7.26141968 15.08814087 7.20532227 16.23413086 C7 18 7 18 6 19 C3.66702567 19.04092937 1.33294775 19.04241723 -1 19 C-1.0272616 16.95840905 -1.04651345 14.91671037 -1.0625 12.875 C-1.07410156 11.73804687 -1.08570313 10.60109375 -1.09765625 9.4296875 C-1.005327 6.1870844 -0.61389906 3.18067388 0 0 Z " fill="#FDFDFD" transform="translate(54,81)"/>
<path d="M0 0 C0.33 0 0.66 0 1 0 C1.52745346 5.06970936 2.02724119 10.14109865 2.50146484 15.21606445 C2.66671211 16.9423952 2.83952634 18.66801889 3.02001953 20.39282227 C3.27803897 22.87109189 3.50881676 25.35062334 3.734375 27.83203125 C3.82064148 28.60400345 3.90690796 29.37597565 3.99578857 30.17134094 C4.17871094 32.35473633 4.17871094 32.35473633 4 36 C2.14160156 38.01049805 2.14160156 38.01049805 0 39 C-0.66 39 -1.32 39 -2 39 C-2.27379949 4.54759899 -2.27379949 4.54759899 0 0 Z " fill="#E8E5DF" transform="translate(157,122)"/>
<path d="M0 0 C1.9375 0.6875 1.9375 0.6875 2.9375 2.6875 C5.01831791 3.55865287 5.01831791 3.55865287 7.4375 4.25 C11.84638383 5.59638383 11.84638383 5.59638383 12.9375 6.6875 C13.00976502 8.54037502 13.0213122 10.39583878 13 12.25 C12.99097656 13.26191406 12.98195312 14.27382812 12.97265625 15.31640625 C12.96105469 16.09886719 12.94945312 16.88132812 12.9375 17.6875 C12.50824219 17.06359375 12.07898438 16.4396875 11.63671875 15.796875 C9.45620466 13.09002993 7.07963818 12.08400586 3.9375 10.6875 C3.6075 12.6675 3.2775 14.6475 2.9375 16.6875 C2.6075 16.6875 2.2775 16.6875 1.9375 16.6875 C1.834375 15.45 1.73125 14.2125 1.625 12.9375 C1.19948318 9.4082134 0.45637408 7.31589034 -2.0625 4.6875 C-2.7225 5.6775 -3.3825 6.6675 -4.0625 7.6875 C-4.0625 5.3775 -4.0625 3.0675 -4.0625 0.6875 C-2.0625 -0.3125 -2.0625 -0.3125 0 0 Z " fill="#C1C0C5" transform="translate(136.0625,73.3125)"/>
<path d="M0 0 C0.66 0 1.32 0 2 0 C4.95047835 4.61012242 6.5497272 7.36529617 6 13 C5.67 13 5.34 13 5 13 C5 11.35 5 9.7 5 8 C4.11248047 8.2165625 4.11248047 8.2165625 3.20703125 8.4375 C-0.92529941 9.40822694 -4.7229762 10.27593702 -9 10 C-9.33 10.99 -9.66 11.98 -10 13 C-10.185625 11.576875 -10.185625 11.576875 -10.375 10.125 C-10.71687177 6.91332809 -10.71687177 6.91332809 -13 5 C-12.34 5 -11.68 5 -11 5 C-10.67 4.01 -10.34 3.02 -10 2 C-7.9375 1.3125 -7.9375 1.3125 -6 1 C-6 1.66 -6 2.32 -6 3 C-4.02 3 -2.04 3 0 3 C0 2.01 0 1.02 0 0 Z " fill="#595567" transform="translate(159,73)"/>
<path d="M0 0 C0.33 0.66 0.66 1.32 1 2 C1.66 2 2.32 2 3 2 C3.89604368 8.04829486 4.11269443 13.8894576 4 20 C0.41586905 20 -0.44432325 19.42998773 -3 17 C-3.96070431 14.48229214 -4.49983981 12.00070819 -5.09375 9.375 C-6.18101795 6.52560813 -7.44900437 5.58914482 -10 4 C-6.28111761 4.50712033 -3.26545761 5.11608215 0 7 C0 4.69 0 2.38 0 0 Z " fill="#F7DE4A" transform="translate(135,46)"/>
<path d="M0 0 C3.53774244 0.27747 4.86885486 0.57464022 7.1875 3.25 C7.69770728 7.33165827 7.50111802 8.77957297 5.1875 12.25 C2.11752928 12.64191116 0.07384715 12.72271848 -2.6875 11.25 C-4.54052556 7.95573233 -4.05346594 4.98497211 -3.8125 1.25 C-2.8125 0.25 -2.8125 0.25 0 0 Z " fill="#403A45" transform="translate(153.8125,60.75)"/>
<path d="M0 0 C2.9375 0.8125 2.9375 0.8125 4.9375 2.8125 C5.0625 6.4375 5.0625 6.4375 4.9375 9.8125 C5.5975 9.8125 6.2575 9.8125 6.9375 9.8125 C6.6075 11.1325 6.2775 12.4525 5.9375 13.8125 C5.2775 13.4825 4.6175 13.1525 3.9375 12.8125 C3.9375 12.1525 3.9375 11.4925 3.9375 10.8125 C3.2775 10.4825 2.6175 10.1525 1.9375 9.8125 C2.5975 8.1625 3.2575 6.5125 3.9375 4.8125 C1.9575 4.8125 -0.0225 4.8125 -2.0625 4.8125 C-1.85625 5.740625 -1.65 6.66875 -1.4375 7.625 C-1.0625 10.8125 -1.0625 10.8125 -3.0625 13.8125 C-5.6875 14 -5.6875 14 -8.0625 13.8125 C-7.80662595 12.03944336 -7.53222261 10.26905392 -7.25 8.5 C-7.09917969 7.51386719 -6.94835937 6.52773438 -6.79296875 5.51171875 C-5.64228558 1.25972908 -4.48817694 -0.27478634 0 0 Z " fill="#3E383E" transform="translate(123.0625,23.1875)"/>
<path d="M0 0 C1.98 0.495 1.98 0.495 4 1 C4.33 6.28 4.66 11.56 5 17 C4.34 17 3.68 17 3 17 C3 20.3 3 23.6 3 27 C2.34 27 1.68 27 1 27 C-0.28326122 23.15021634 -0.1450798 19.50926659 -0.125 15.5 C-0.12886719 14.72785156 -0.13273437 13.95570312 -0.13671875 13.16015625 C-0.13099051 9.85496263 -0.05207501 7.15622502 1 4 C0.34 4 -0.32 4 -1 4 C-0.67 2.68 -0.34 1.36 0 0 Z " fill="#C9C7CB" transform="translate(37,111)"/>
<path d="M0 0 C1.98 0 3.96 0 6 0 C5.773125 0.763125 5.54625 1.52625 5.3125 2.3125 C5.1578125 3.6428125 5.1578125 3.6428125 5 5 C6.31267956 6.72943475 6.31267956 6.72943475 8 8 C8.33 8.66 8.66 9.32 9 10 C6.33333333 9.33333333 3.66666667 8.66666667 1 8 C1 8.66 1 9.32 1 10 C-2 12 -2 12 -5 12 C-5 12.66 -5 13.32 -5 14 C-5.66 14 -6.32 14 -7 14 C-7 14.68707031 -7 15.37414063 -7 16.08203125 C-7 19.72135417 -7 23.36067708 -7 27 C-8.5625 26 -8.5625 26 -10 24 C-9.834617 18.87312689 -9.27985292 15.09981615 -6 11 C-4.34738161 9.97695052 -2.68208635 8.97383946 -1 8 C0.33333333 5 0.33333333 5 -1 2 C-0.67 1.34 -0.34 0.68 0 0 Z " fill="#EDD86B" transform="translate(121,28)"/>
<path d="M0 0 C3 1 3 1 5 4 C5 4.99 5 5.98 5 7 C2.71059044 7.38854209 0.41835426 7.7604628 -1.875 8.125 C-3.78925781 8.43824219 -3.78925781 8.43824219 -5.7421875 8.7578125 C-7.35480469 8.87769531 -7.35480469 8.87769531 -9 9 C-9.66 8.34 -10.32 7.68 -11 7 C-11 4 -11 4 -10 2.1875 C-7.44907796 0.67289004 -6.62833066 1.10480451 -3.8125 1.8125 C-1.9253125 2.4003125 -1.9253125 2.4003125 0 3 C0 2.01 0 1.02 0 0 Z " fill="#574054" transform="translate(103,43)"/>
<path d="M0 0 C3.53571429 0.53571429 3.53571429 0.53571429 5 2 C5.15655027 3.48638992 5.25066943 4.97949127 5.31640625 6.47265625 C5.37924805 7.82133789 5.37924805 7.82133789 5.44335938 9.19726562 C5.48267578 10.14279297 5.52199219 11.08832031 5.5625 12.0625 C5.60568359 13.01189453 5.64886719 13.96128906 5.69335938 14.93945312 C5.79979276 17.29281353 5.90181008 19.64628354 6 22 C5.01 21.67 4.02 21.34 3 21 C2.34 16.05 1.68 11.1 1 6 C0.34 6 -0.32 6 -1 6 C-1.66 6.66 -2.32 7.32 -3 8 C-2.25 2.25 -2.25 2.25 0 0 Z " fill="#C8C8CA" transform="translate(52,116)"/>
<path d="M0 0 C0.99 0 1.98 0 3 0 C3.4125 0.969375 3.825 1.93875 4.25 2.9375 C5.64899168 6.12260099 5.64899168 6.12260099 8.1875 6.875 C8.785625 6.91625 9.38375 6.9575 10 7 C10 9.64 10 12.28 10 15 C9.34 13.68 8.68 12.36 8 11 C4.37 11 0.74 11 -3 11 C-3 10.34 -3 9.68 -3 9 C-2.01 9 -1.02 9 0 9 C0 6.03 0 3.06 0 0 Z " fill="#413F4B" transform="translate(129,83)"/>
<path d="M0 0 C2.4375 0.25 2.4375 0.25 5 1 C7.4294516 4.6441774 7.16179575 6.71241272 7 11 C3.48878203 10.7073985 2.19517334 10.1900372 -0.375 7.6875 C-2 5 -2 5 -1.8125 2.75 C-1 1 -1 1 0 0 Z " fill="#3E3431" transform="translate(124,51)"/>
<path d="M0 0 C0.66 0.33 1.32 0.66 2 1 C2 8.92 2 16.84 2 25 C1.34 25.33 0.68 25.66 0 26 C-0.94660961 23.16017118 -1.12867774 21.38144671 -1.1328125 18.4375 C-1.13410156 17.55835938 -1.13539062 16.67921875 -1.13671875 15.7734375 C-1.13285156 14.85820312 -1.12898438 13.94296875 -1.125 13 C-1.12886719 12.08476562 -1.13273437 11.16953125 -1.13671875 10.2265625 C-1.13542969 9.34742188 -1.13414063 8.46828125 -1.1328125 7.5625 C-1.13168457 6.75941406 -1.13055664 5.95632812 -1.12939453 5.12890625 C-1 3 -1 3 0 0 Z " fill="#D6D5DF" transform="translate(52,131)"/>
<path d="M0 0 C0.33 0 0.66 0 1 0 C1 7.26 1 14.52 1 22 C0.34 22 -0.32 22 -1 22 C-0.67 27.61 -0.34 33.22 0 39 C-0.66 39 -1.32 39 -2 39 C-2.27379949 4.54759899 -2.27379949 4.54759899 0 0 Z " fill="#D7D6D9" transform="translate(157,122)"/>
<path d="M0 0 C0.99 0 1.98 0 3 0 C3 5.28 3 10.56 3 16 C1.68 16.33 0.36 16.66 -1 17 C-1.02684679 14.35409986 -1.04676357 11.70846904 -1.0625 9.0625 C-1.07087891 8.30775391 -1.07925781 7.55300781 -1.08789062 6.77539062 C-1.09652441 4.85005687 -1.05224333 2.92464419 -1 1 C-0.67 0.67 -0.34 0.34 0 0 Z " fill="#FCFBFB" transform="translate(48,83)"/>
<path d="M0 0 C2.45600102 0.28395955 4.53213672 -0.230225 6.92578125 -0.77734375 C7.91578125 -0.44734375 8.90578125 -0.11734375 9.92578125 0.22265625 C9.92578125 1.21265625 9.92578125 2.20265625 9.92578125 3.22265625 C2.99578125 3.22265625 -3.93421875 3.22265625 -11.07421875 3.22265625 C-11.07421875 2.56265625 -11.07421875 1.90265625 -11.07421875 1.22265625 C-7.01521634 -0.93368878 -4.35174534 -0.71299782 0 0 Z " fill="#38343A" transform="translate(155.07421875,159.77734375)"/>
<path d="M0 0 C4.82029598 3.85623679 4.82029598 3.85623679 5.33203125 7.11328125 C5.3145776 9.07856214 5.16596091 11.04166127 5 13 C3.125 12.6875 3.125 12.6875 1 12 C-1 9 -1 9 -1 6 C-1.99 5.67 -2.98 5.34 -4 5 C-2.68 4.67 -1.36 4.34 0 4 C0 2.68 0 1.36 0 0 Z " fill="#E5E3E8" transform="translate(133,77)"/>
<path d="M0 0 C0.66 0 1.32 0 2 0 C2.89604368 6.04829486 3.11269443 11.8894576 3 18 C0 18 0 18 -2.1875 17 C-4.33300171 14.63254983 -4.25547852 13.9078641 -4.25 10.8125 C-4.1675 9.554375 -4.085 8.29625 -4 7 C-0.56984539 9.80649013 -0.5990235 11.20292951 1 16 C0.67 10.72 0.34 5.44 0 0 Z " fill="#F6E797" transform="translate(136,48)"/>
<path d="M0 0 C4.90566038 6.13207547 4.90566038 6.13207547 5 10 C3.5625 13.3125 3.5625 13.3125 2 16 C1.34 16 0.68 16 0 16 C0 10.72 0 5.44 0 0 Z " fill="#F9F3D9" transform="translate(110,49)"/>
<path d="M0 0 C1.98 0 3.96 0 6 0 C5.814375 0.78375 5.62875 1.5675 5.4375 2.375 C4.74037734 4.97089775 4.74037734 4.97089775 6 7 C4.02 7 2.04 7 0 7 C-1.125 2.25 -1.125 2.25 0 0 Z " fill="#DAADA4" transform="translate(121,28)"/>
<path d="M0 0 C0.66 0 1.32 0 2 0 C2.22084624 6.09781001 2.01167675 11.21642935 0 17 C-0.66 17 -1.32 17 -2 17 C-2.25 11.375 -2.25 11.375 0 8 C0.24055468 5.94290404 0.24055468 5.94290404 0.125 3.8125 C0.08375 2.554375 0.0425 1.29625 0 0 Z " fill="#EAE9E9" transform="translate(145,90)"/>
<path d="M0 0 C0.66 0 1.32 0 2 0 C2 7.59 2 15.18 2 23 C2.66 23.33 3.32 23.66 4 24 C3.34 24 2.68 24 2 24 C1.67 24.99 1.34 25.98 1 27 C-0.0394775 23.8815675 -0.11494838 21.72524414 -0.09765625 18.45703125 C-0.09443359 17.38388672 -0.09121094 16.31074219 -0.08789062 15.20507812 C-0.07951172 14.08552734 -0.07113281 12.96597656 -0.0625 11.8125 C-0.05798828 10.68134766 -0.05347656 9.55019531 -0.04882812 8.38476562 C-0.03703498 5.58979073 -0.0205765 2.7949218 0 0 Z " fill="#555258" transform="translate(36,115)"/>
<path d="M0 0 C1.32 0 2.64 0 4 0 C4.33 3.3 4.66 6.6 5 10 C2.525 9.01 2.525 9.01 0 8 C0 5.36 0 2.72 0 0 Z " fill="#4F4C53" transform="translate(39,92)"/>
<path d="M0 0 C7.57771707 -0.50146657 12.45783241 0.05001202 19 4 C19 4.66 19 5.32 19 6 C16.75 6.25 16.75 6.25 14 6 C13.443125 5.360625 12.88625 4.72125 12.3125 4.0625 C8.7263371 0.86403039 4.6605467 1.17788346 0 1 C0 0.67 0 0.34 0 0 Z " fill="#DF778B" transform="translate(84,40)"/>
<path d="M0 0 C0.99 0 1.98 0 3 0 C3.66 2.64 4.32 5.28 5 8 C3 8 1 8 -1 8 C-0.67 5.36 -0.34 2.72 0 0 Z " fill="#35343C" transform="translate(139,102)"/>
<path d="M0 0 C2.2601949 2.2601949 3.48809716 4.55617914 5 7.34375 C6.0156448 9.17554302 6.0156448 9.17554302 8 11 C6.68 11.33 5.36 11.66 4 12 C2.02 9.03 0.04 6.06 -2 3 C-1.34 2.67 -0.68 2.34 0 2 C0 1.34 0 0.68 0 0 Z " fill="#81606E" transform="translate(128,62)"/>
<path d="M0 0 C0.66 0.33 1.32 0.66 2 1 C0.92492371 2.29854721 -0.16043736 3.58858361 -1.25 4.875 C-1.85328125 5.59429687 -2.4565625 6.31359375 -3.078125 7.0546875 C-4.97087634 8.97052118 -6.53657727 9.96449045 -9 11 C-7.59928507 5.70841026 -4.14512755 3.22521956 0 0 Z " fill="#EB7B8A" transform="translate(81,41)"/>
<path d="M0 0 C2.475 0.495 2.475 0.495 5 1 C6.94128253 0.91878575 8.88084231 0.77195686 10.8125 0.5625 C12.27623047 0.40974609 12.27623047 0.40974609 13.76953125 0.25390625 C14.87361328 0.12822266 14.87361328 0.12822266 16 0 C11.51581607 2.98945595 7.34658811 2.62259378 2 3 C2 6.96 2 10.92 2 15 C1.67 15 1.34 15 1 15 C0.67 10.05 0.34 5.1 0 0 Z " fill="#A56982" transform="translate(92,50)"/>
<path d="M0 0 C0.99 0 1.98 0 3 0 C3 0.99 3 1.98 3 3 C-0.63 3 -4.26 3 -8 3 C-8 2.34 -8 1.68 -8 1 C-3.375 -1.125 -3.375 -1.125 0 0 Z " fill="#626267" transform="translate(143,110)"/>
<path d="M0 0 C-0.33 5.94 -0.66 11.88 -1 18 C-1.33 18 -1.66 18 -2 18 C-2.99250545 12.29309366 -3.10477512 6.78591511 -3 1 C-1 0 -1 0 0 0 Z " fill="#ECEBEC" transform="translate(54,82)"/>
<path d="M0 0 C3.71888239 0.50712033 6.73454239 1.11608215 10 3 C10 4.65 10 6.3 10 8 C9.34 7.34 8.68 6.68 8 6 C7.01 7.485 7.01 7.485 6 9 C5.566875 7.88625 5.13375 6.7725 4.6875 5.625 C3.30088881 1.82487666 3.30088881 1.82487666 0 0 Z " fill="#E4D05D" transform="translate(125,50)"/>
<path d="M0 0 C0.94875 0.165 1.8975 0.33 2.875 0.5 C5.80168901 1.0526635 5.80168901 1.0526635 8 1 C8 1.99 8 2.98 8 4 C4.37 4 0.74 4 -3 4 C-3 3.34 -3 2.68 -3 2 C-2.01 2 -1.02 2 0 2 C0 1.34 0 0.68 0 0 Z " fill="#5A5964" transform="translate(129,90)"/>
<path d="M0 0 C1.17539996 0.92652701 2.34010577 1.86663387 3.5 2.8125 C4.1496875 3.33457031 4.799375 3.85664062 5.46875 4.39453125 C7 6 7 6 7 9 C3.88801935 7.50163895 0.9465385 5.80066242 -2 4 C-1.34 3.34 -0.68 2.68 0 2 C0 1.34 0 0.68 0 0 Z " fill="#E0BF84" transform="translate(121,55)"/>
<path d="M0 0 C1.32 0 2.64 0 4 0 C4 1.65 4 3.3 4 5 C2.35 5 0.7 5 -1 5 C-0.67 3.35 -0.34 1.7 0 0 Z " fill="#4F4E5A" transform="translate(67,125)"/>
<path d="M0 0 C2.475 0.495 2.475 0.495 5 1 C4.67 2.32 4.34 3.64 4 5 C2.68 5 1.36 5 0 5 C0 3.35 0 1.7 0 0 Z " fill="#4D4C58" transform="translate(136,125)"/>
<path d="M0 0 C1.98 0.495 1.98 0.495 4 1 C4 2.32 4 3.64 4 5 C2.35 5 0.7 5 -1 5 C-0.67 3.35 -0.34 1.7 0 0 Z " fill="#4C4B57" transform="translate(130,125)"/>
<path d="M0 0 C1.98 0.495 1.98 0.495 4 1 C4 2.32 4 3.64 4 5 C2.35 5 0.7 5 -1 5 C-0.67 3.35 -0.34 1.7 0 0 Z " fill="#4C4B57" transform="translate(61,125)"/>
<path d="M0 0 C0.33 0.66 0.66 1.32 1 2 C1.99 2.33 2.98 2.66 4 3 C6.04108797 6.00791911 6.19878036 8.42195344 6 12 C4 10 4 10 3 7.4375 C2.25129886 4.85158559 2.25129886 4.85158559 0 4 C0 2.68 0 1.36 0 0 Z " fill="#FCF4BE" transform="translate(130,34)"/>
<path d="M0 0 C2.33944736 0.28730055 4.6739143 0.61936779 7 1 C7 1.99 7 2.98 7 4 C5.02 4 3.04 4 1 4 C1 3.34 1 2.68 1 2 C0.34 1.67 -0.32 1.34 -1 1 C-0.67 0.67 -0.34 0.34 0 0 Z " fill="#D2CDD5" transform="translate(152,72)"/>
<path d="M0 0 C1.65 0 3.3 0 5 0 C4.67 1.98 4.34 3.96 4 6 C2.68 5.34 1.36 4.68 0 4 C0 2.68 0 1.36 0 0 Z " fill="#795C63" transform="translate(160,154)"/>
<path d="M0 0 C0.33 0 0.66 0 1 0 C0.67 2.64 0.34 5.28 0 8 C-0.66 8 -1.32 8 -2 8 C-2.125 5.125 -2.125 5.125 -2 2 C-1.34 1.34 -0.68 0.68 0 0 Z " fill="#F6F6F0" transform="translate(145,99)"/>
<path d="M0 0 C-0.6875 1.9375 -0.6875 1.9375 -2 4 C-4.625 4.75 -4.625 4.75 -7 5 C-6.34 4.67 -5.68 4.34 -5 4 C-4.67 3.01 -4.34 2.02 -4 1 C-2 0 -2 0 0 0 Z " fill="#625E6C" transform="translate(153,74)"/>
<path d="M0 0 C0.33 1.32 0.66 2.64 1 4 C1.66 4 2.32 4 3 4 C2.67 5.32 2.34 6.64 2 8 C1.34 7.67 0.68 7.34 0 7 C0 6.34 0 5.68 0 5 C-0.66 4.67 -1.32 4.34 -2 4 C-1.34 2.68 -0.68 1.36 0 0 Z " fill="#574538" transform="translate(127,29)"/>
</svg>
