<?xml version="1.0" encoding="UTF-8"?>
<svg version="1.1" xmlns="http://www.w3.org/2000/svg" width="318" height="374">
<path d="M0 0 C104.94 0 209.88 0 318 0 C318 123.42 318 246.84 318 374 C213.06 374 108.12 374 0 374 C0 250.58 0 127.16 0 0 Z " fill="#FDFAEB" transform="translate(0,0)"/>
<path d="M0 0 C0.66 0.99 1.32 1.98 2 3 C2.66 2.34 3.32 1.68 4 1 C6.625 1.375 6.625 1.375 9 2 C9.495 3.98 9.495 3.98 10 6 C11.36125 5.87625 11.36125 5.87625 12.75 5.75 C26.12720932 5.80394036 39.15879667 14.44468885 48.484375 23.27734375 C52.34945767 27.46051552 55.28372151 32.0103145 58 37 C58.51353027 37.84328857 59.02706055 38.68657715 59.55615234 39.55541992 C61.44116736 44.05249075 61.50394872 47.92406794 61.5390625 52.75390625 C61.55141937 53.69121078 61.56377625 54.62851532 61.57650757 55.59422302 C61.59602847 57.5752034 61.6072979 59.55628013 61.61083984 61.53735352 C61.62484723 64.52986263 61.69212799 67.51810308 61.76171875 70.50976562 C61.89558831 82.17296867 61.13042179 90.36128934 54 100 C53.55930176 100.62817627 53.11860352 101.25635254 52.66455078 101.90356445 C45.21039151 111.8049562 35.10676977 117.20552432 24 122 C23.76617712 125.85313128 23.62510247 129.70442912 23.5 133.5625 C23.43296875 134.64853516 23.3659375 135.73457031 23.296875 136.85351562 C23.07405423 143.02195425 23.07405423 143.02195425 25.81640625 148.33935547 C27.8014907 150.07630436 29.77163003 151.5928233 32 153 C31.01 153.33 30.02 153.66 29 154 C26.3125 152.0625 26.3125 152.0625 24 150 C23.34 151.32 22.68 152.64 22 154 C22 152.35 22 150.7 22 149 C21.46890625 149.37253906 20.9378125 149.74507812 20.390625 150.12890625 C19.68421875 150.60199219 18.9778125 151.07507813 18.25 151.5625 C17.55390625 152.03816406 16.8578125 152.51382813 16.140625 153.00390625 C14 154 14 154 11.734375 153.65234375 C10.87585938 153.32943359 10.87585938 153.32943359 10 153 C11.45449401 151.9944239 12.91372443 150.99569565 14.375 150 C15.18710938 149.443125 15.99921875 148.88625 16.8359375 148.3125 C19 147 19 147 21 147 C21 139.08 21 131.16 21 123 C18.3703125 123.495 18.3703125 123.495 15.6875 124 C8.89935666 125.13403816 1.63940338 126.21313446 -5 124 C-5 131.59 -5 139.18 -5 147 C-3.68 147.66 -2.36 148.32 -1 149 C0.70496537 150.62746694 2.37897032 152.28891311 4 154 C0.64404172 153.40072174 -1.37801226 152.15377564 -4 150 C-4.33 151.32 -4.66 152.64 -5 154 C-5.66 154 -6.32 154 -7 154 C-7.33 152.68 -7.66 151.36 -8 150 C-9.093125 150.680625 -10.18625 151.36125 -11.3125 152.0625 C-13.17578125 153.22265625 -13.17578125 153.22265625 -15 154 C-15.99 153.67 -16.98 153.34 -18 153 C-16.54550599 151.9944239 -15.08627557 150.99569565 -13.625 150 C-12.81289062 149.443125 -12.00078125 148.88625 -11.1640625 148.3125 C-9 147 -9 147 -7 147 C-7 139.08 -7 131.16 -7 123 C-9.64 122.67 -12.28 122.34 -15 122 C-30.2819157 116.45245526 -42.13139269 105.39471039 -49.55615234 90.97851562 C-51.50795526 86.34226448 -51.48574088 81.83093278 -51.50390625 76.859375 C-51.51389145 75.89654602 -51.52387665 74.93371704 -51.53416443 73.94171143 C-51.54929667 71.91121695 -51.55639174 69.88064846 -51.5559082 67.85009766 C-51.56245219 64.7724858 -51.61693713 61.69813337 -51.67382812 58.62109375 C-51.84111006 39.50587848 -51.84111006 39.50587848 -45 31 C-44.55019775 30.39575195 -44.10039551 29.79150391 -43.63696289 29.16894531 C-36.14898133 19.66194178 -26.4965259 11.98909627 -15 8 C-14.34 8 -13.68 8 -13 8 C-13 5.36 -13 2.72 -13 0 C-8.38311132 -1.01346337 -4.62162537 -1.06652893 0 0 Z " fill="#413E55" transform="translate(155,162)"/>
<path d="M0 0 C9.83878457 6.24737764 16.40587655 13.74010968 19.171875 25.30859375 C20.93943965 36.5153181 17.47786721 46.50873819 11.171875 55.7265625 C5.7392836 62.53580512 -1.88613868 67.08819638 -10.44921875 68.7109375 C-22.60959514 69.80670768 -32.05961675 68.12190685 -41.63671875 60.3984375 C-49.35898045 53.20874557 -53.47166093 44.70044417 -54.02294922 34.19360352 C-54.27183897 22.74823048 -51.00708102 14.43486995 -43.44921875 5.7109375 C-30.84937268 -4.89289335 -14.81148629 -7.7955191 0 0 Z " fill="#FD6684" transform="translate(281.44921875,50.2890625)"/>
<path d="M0 0 C0.26246434 3.87370451 0.42153564 7.74512381 0.5625 11.625 C0.63791016 12.71941406 0.71332031 13.81382812 0.79101562 14.94140625 C0.87971854 18.19384635 0.85088228 20.85492426 0 24 C-2.6688843 26.7588037 -5.51579284 28.43138663 -9 30 C-6.44356627 28.9944694 -3.95846254 27.97923127 -1.5 26.75 C1.75901837 25.77229449 3.02008446 26.47183819 6 28 C6.763125 28.37125 7.52625 28.7425 8.3125 29.125 C8.869375 29.41375 9.42625 29.7025 10 30 C8.02 28.02 8.02 28.02 6 26 C16.60153698 25.74339124 27.08432655 26.44349203 37.65039062 27.22680664 C40.52173468 27.43910701 43.39359648 27.64289418 46.265625 27.84570312 C48.10420275 27.97866862 49.94274583 28.11211465 51.78125 28.24609375 C53.05941589 28.33678383 53.05941589 28.33678383 54.36340332 28.42930603 C58.31426753 28.72609918 62.13183427 29.08941022 66 30 C66 26.7 66 23.4 66 20 C66.66 20 67.32 20 68 20 C68 23.3 68 26.6 68 30 C75.92 30.33 83.84 30.66 92 31 C92 28.03 92 25.06 92 22 C92.66 22 93.32 22 94 22 C94 25.3 94 28.6 94 32 C95.39089844 32.06058594 96.78179687 32.12117188 98.21484375 32.18359375 C103.15847921 32.40107505 108.10151496 32.63011728 113.04443359 32.86328125 C115.75463909 32.98865008 118.4650991 33.10428131 121.17578125 33.21875 C122.7005513 33.29102673 124.22529301 33.36390502 125.75 33.4375 C126.45761475 33.46448975 127.16522949 33.49147949 127.89428711 33.51928711 C132.77198955 33.77198955 132.77198955 33.77198955 135 36 C109.43360896 36.39319783 83.86718886 36.78445585 58.30073357 37.17345428 C46.4276885 37.3541493 34.55465346 37.53546027 22.68164062 37.71826172 C12.32361442 37.87773625 1.9655707 38.03601388 -8.39249504 38.19290113 C-13.86832699 38.27588076 -19.34414886 38.35942784 -24.8199501 38.44441223 C-29.99252647 38.52467156 -35.16512514 38.60330934 -40.33774376 38.68079567 C-42.21842895 38.70923764 -44.09910591 38.73823129 -45.97977257 38.76787376 C-51.98638654 38.86233971 -57.99294684 38.93968301 -64 39 C-65.42442909 39.01575193 -65.42442909 39.01575193 -66.87763453 39.03182209 C-69.81656407 39.06118277 -72.75539907 39.08024192 -75.69442749 39.09654236 C-76.58276405 39.10614329 -77.47110062 39.11574423 -78.38635647 39.1256361 C-87.52618853 39.15388302 -96.2662257 37.67547217 -105.21875 35.97265625 C-106.94382616 35.65947636 -108.66921734 35.34802743 -110.39489746 35.03819275 C-114.86058876 34.23182208 -119.3217723 33.40288256 -123.7822876 32.56842041 C-128.34060523 31.71985898 -132.90286064 30.89303915 -137.46484375 30.06445312 C-144.80746738 28.7287088 -152.14781441 27.38131747 -159.48442078 26.01287842 C-163.31669494 25.3005852 -167.15306875 24.62833551 -171 24 C-171 23.67 -171 23.34 -171 23 C-165.06 23 -159.12 23 -153 23 C-153 20.03 -153 17.06 -153 14 C-152.34 14 -151.68 14 -151 14 C-151 16.97 -151 19.94 -151 23 C-139.12 23 -127.24 23 -115 23 C-115 21.35 -115 19.7 -115 18 C-114.34 18 -113.68 18 -113 18 C-112.814375 18.9590625 -112.814375 18.9590625 -112.625 19.9375 C-112.41875 20.618125 -112.2125 21.29875 -112 22 C-111.34 22.33 -110.68 22.66 -110 23 C-109.731875 22.05125 -109.46375 21.1025 -109.1875 20.125 C-108 17 -108 17 -105 15 C-102.3125 14.875 -102.3125 14.875 -100 15 C-101.65 17.31 -103.3 19.62 -105 22 C-88.665 22.495 -88.665 22.495 -72 23 C-72 19.37 -72 15.74 -72 12 C-71.01 12 -70.02 12 -69 12 C-69 15.63 -69 19.26 -69 23 C-55.47 23 -41.94 23 -28 23 C-30.475 24.98 -30.475 24.98 -33 27 C-33.99 27.99 -34.98 28.98 -36 30 C-33.36 28.68 -30.72 27.36 -28 26 C-28 27.65 -28 29.3 -28 31 C-27.34 31 -26.68 31 -26 31 C-26 29.35 -26 27.7 -26 26 C-25.05125 26.66 -24.1025 27.32 -23.125 28 C-20.33761045 30.17968457 -20.33761045 30.17968457 -18 30 C-18.57169922 29.70464355 -19.14339844 29.40928711 -19.73242188 29.10498047 C-23.23070483 26.97316655 -25.63823921 25.4529298 -26.66015625 21.34863281 C-26.78701985 18.24149768 -26.69872571 15.22817837 -26.5 12.125 C-26.46390625 11.05507813 -26.4278125 9.98515625 -26.390625 8.8828125 C-26.29664956 6.2515002 -26.16545954 3.62762485 -26 1 C-24.60587891 1.01740234 -24.60587891 1.01740234 -23.18359375 1.03515625 C-15.38377124 1.09208926 -7.72827669 -0.10426006 0 0 Z " fill="#E2E1DF" transform="translate(176,285)"/>
<path d="M0 0 C1.67465764 0.29053515 3.33923689 0.63839969 5 1 C6.54920593 1.10776181 8.10052417 1.18686868 9.65234375 1.24609375 C10.51150391 1.27896484 11.37066406 1.31183594 12.25585938 1.34570312 C14.03958853 1.40676305 15.82345015 1.46407202 17.60742188 1.51757812 C22.47793051 1.71093914 26.38727106 2.31272919 31 4 C32.13953125 4.12375 33.2790625 4.2475 34.453125 4.375 C38.54445294 5.09593884 41.38165127 6.70106724 44.75 9 C45.35416748 9.40444336 45.95833496 9.80888672 46.58081055 10.22558594 C48.40250511 11.46325324 50.20378998 12.72569241 52 14 C53.00160156 14.70640625 54.00320312 15.4128125 55.03515625 16.140625 C65.56053511 24.13458362 72.82601224 35.23374809 77.3125 47.625 C79.18120225 51.36240451 81.08730122 53.08665274 84.37890625 55.54296875 C86.81109342 57.72900686 87.85828286 59.93712144 88.29052734 63.17895508 C88.33990449 65.72400195 88.37130811 68.26693873 88.375 70.8125 C88.39949219 71.68970703 88.42398438 72.56691406 88.44921875 73.47070312 C88.47641214 79.53029772 87.52335562 83.04287011 84 88 C79.46680374 92.10146329 77.07293505 93.13202033 71 93 C71.00636475 91.73518799 71.01272949 90.47037598 71.01928711 89.16723633 C71.03385891 84.41611572 71.00210587 79.66618357 70.95727539 74.9152832 C70.9442404 72.87007724 70.9433042 70.82475321 70.95532227 68.77954102 C71.03978815 52.324783 68.91881693 41.34288278 57.15625 28.9921875 C46.35015749 19.00829768 34.29708327 14.56721349 20 12 C19.505 10.02 19.505 10.02 19 8 C15.28400809 7.79913557 14.22791555 7.8480563 11 10 C10.505 8.02 10.505 8.02 10 6 C5.71 6 1.42 6 -3 6 C-3 8.64 -3 11.28 -3 14 C-4.01578125 14.44988281 -5.0315625 14.89976562 -6.078125 15.36328125 C-20.31861198 21.91484294 -30.39680451 29.95457599 -38 44 C-38.35222626 44.61325134 -38.70445251 45.22650269 -39.06735229 45.8583374 C-40.13484837 48.30965575 -40.24169602 50.01132469 -40.22705078 52.67675781 C-40.22689972 53.59741028 -40.22674866 54.51806274 -40.22659302 55.46661377 C-40.21627045 56.45216248 -40.20594788 57.43771118 -40.1953125 58.453125 C-40.19106766 59.97616241 -40.19106766 59.97616241 -40.18673706 61.52996826 C-40.17555001 64.77009916 -40.15044791 68.00995276 -40.125 71.25 C-40.1149683 73.44791267 -40.10584278 75.64582968 -40.09765625 77.84375 C-40.07561551 83.22926114 -40.04215251 88.61461076 -40 94 C-41.60787513 93.70517899 -43.21439825 93.40297786 -44.8203125 93.09765625 C-46.16246826 92.84640991 -46.16246826 92.84640991 -47.53173828 92.59008789 C-51.71249029 91.59059456 -53.76053708 89.77942696 -56.18359375 86.30078125 C-58.92933945 81.31283492 -59.38286692 76.43006607 -59.4375 70.8125 C-59.4475708 70.13541992 -59.4576416 69.45833984 -59.46801758 68.76074219 C-59.36973075 63.07544182 -57.8187181 59.0533914 -54.0625 54.8125 C-52.05979644 52.0815406 -51.20855022 50.04472159 -50.125 46.875 C-44.29251705 30.18203156 -32.91868155 16.66883291 -17.109375 8.5078125 C-14.42901482 7.27015985 -11.73499761 6.11096027 -9 5 C-4.12511615 3.11293415 -4.12511615 3.11293415 0 0 Z " fill="#EDD963" transform="translate(145,156)"/>
<path d="M0 0 C104.94 0 209.88 0 318 0 C318 1.65 318 3.3 318 5 C317.33460872 4.99886084 316.66921744 4.99772168 315.98366278 4.996548 C276.57771486 4.92946463 237.17177428 4.87796608 197.76578085 4.84680401 C193.0379456 4.84305173 188.31011047 4.83916878 183.58227539 4.83520508 C182.64101867 4.83441815 181.69976195 4.83363122 180.72998229 4.83282044 C165.47422186 4.81975408 150.21849523 4.79609349 134.96275487 4.76854161 C119.31772081 4.74052158 103.67270449 4.72383096 88.02764636 4.71773452 C78.36795112 4.713611 68.70835138 4.70057099 59.04868553 4.6762506 C52.43145296 4.66043537 45.81427001 4.65559004 39.1970199 4.65949587 C35.37490474 4.66142401 31.55295687 4.65839625 27.7308712 4.64238358 C23.5935973 4.62517631 19.45668301 4.63100836 15.31938171 4.63923645 C14.10247153 4.63049793 12.88556134 4.6217594 11.63177508 4.61275607 C10.52853233 4.61872922 9.42528958 4.62470236 8.28861523 4.63085651 C6.85498112 4.62914777 6.85498112 4.62914777 5.39238471 4.62740451 C2.60283698 5.06185508 1.72482811 5.82169166 0 8 C0 5.36 0 2.72 0 0 Z " fill="#FEFEFE" transform="translate(0,0)"/>
<path d="M0 0 C4.47870656 2.15937638 7.18198188 4.92952939 10 9 C11.65734763 13.9720429 12.24092177 20.14967313 10.10546875 25.0546875 C9 26.6875 9 26.6875 7 29 C2 27 2 27 -0.375 25.875 C-4.72739193 24.42420269 -8.20178823 24.17689509 -12.44921875 26.12109375 C-14.67621593 27.35520679 -16.85084135 28.63545483 -19 30 C-23.16226423 24.09227012 -24.72919232 20.29192318 -24 13 C-19.01414295 1.93181111 -11.64984851 -1.09789148 0 0 Z " fill="#FAF9FB" transform="translate(188,202)"/>
<path d="M0 0 C5.15623162 2.83785136 7.98623509 6.52648102 9.65625 12.15234375 C10.81629809 18.37551841 8.81663368 22.847414 5.65625 28.15234375 C3.02298854 27.57280116 1.29803568 26.94881289 -1.09375 25.58984375 C-5.02541688 23.85083724 -8.10915065 23.34937581 -12.34375 24.15234375 C-15.61685553 26.05591362 -15.61685553 26.05591362 -18.34375 28.15234375 C-19.33375 28.15234375 -20.32375 28.15234375 -21.34375 28.15234375 C-25.27863761 23.76343065 -25.75842806 19.48478495 -25.68359375 13.7890625 C-25.03020014 8.71962931 -22.54991479 5.1808693 -18.83984375 1.76953125 C-13.31502027 -2.03793746 -6.20636791 -2.2446364 0 0 Z " fill="#FAFAFB" transform="translate(142.34375,202.84765625)"/>
<path d="M0 0 C0 7.92 0 15.84 0 24 C-5.26135261 24.7516218 -8.98578568 25.04291413 -14.125 24.625 C-15.30320313 24.53476562 -16.48140625 24.44453125 -17.6953125 24.3515625 C-21 24 -21 24 -26 23 C-26 15.74 -26 8.48 -26 1 C-23.834375 1.020625 -21.66875 1.04125 -19.4375 1.0625 C-12.87391044 1.06911652 -6.52227866 0 0 0 Z " fill="#FCF9EC" transform="translate(176,285)"/>
<path d="M0 0 C2.64 0 5.28 0 8 0 C8 13.2 8 26.4 8 40 C0 40 0 40 -2.75 38.5625 C-8.05624799 32.51927313 -9.35981294 26.80055785 -9.4375 18.8125 C-9.4475708 18.13541992 -9.4576416 17.45833984 -9.46801758 16.76074219 C-9.37381321 11.31158722 -7.89075722 7.36344653 -4.5 3.125 C-3 2 -3 2 0 2 C0 1.34 0 0.68 0 0 Z " fill="#FCDC37" transform="translate(95,208)"/>
<path d="M0 0 C6.16857998 0.3701148 8.75775103 1.75775103 13 6 C15.70419792 10.44540667 15.36765273 14.74655875 15.375 19.8125 C15.39949219 20.68970703 15.42398438 21.56691406 15.44921875 22.47070312 C15.48185051 29.74214627 13.85586742 34.06694697 8.6875 39.375 C5.44601673 41.33496663 2.7281358 41.55419713 -1 42 C-1.02467467 36.34000977 -1.04284788 30.68005068 -1.05493164 25.02001953 C-1.05996787 23.09358169 -1.06679712 21.16714769 -1.07543945 19.24072266 C-1.08753608 16.47557632 -1.09323533 13.71048042 -1.09765625 10.9453125 C-1.10281754 10.0806839 -1.10797882 9.2160553 -1.11329651 8.32522583 C-1.11387171 2.22774341 -1.11387171 2.22774341 0 0 Z " fill="#FCDD37" transform="translate(218,207)"/>
<path d="M0 0 C1.4606285 2.64738916 2 3.89448334 2 7 C0.98421875 7.44988281 -0.0315625 7.89976562 -1.078125 8.36328125 C-16.30657286 15.36936999 -27.89707189 24.66792373 -34.5 40.625 C-36 43 -36 43 -39.6875 43.875 C-41.3271875 43.936875 -41.3271875 43.936875 -43 44 C-41.60622609 32.36198787 -34.12000392 22.99290821 -26 15 C-25.02740234 14.02933594 -25.02740234 14.02933594 -24.03515625 13.0390625 C-17.24814486 6.68231155 -9.1010313 2.0224514 0 0 Z " fill="#FAF6E1" transform="translate(140,163)"/>
<path d="M0 0 C18.7587847 -1.02631649 34.94322204 4.79191509 49.16796875 17.15234375 C56.00047492 23.71590839 61.36382616 32.30480168 65 41 C65 42.32 65 43.64 65 45 C63.203125 44.875 63.203125 44.875 61 44 C59.359375 41.375 59.359375 41.375 57.75 38 C50.79264499 24.24362589 39.52274122 15.11575271 25 10 C20.36270684 8.81570667 15.71008694 7.84575284 11 7 C10.67 5.68 10.34 4.36 10 3 C6.28400809 2.79913557 5.22791555 2.8480563 2 5 C1.34 3.35 0.68 1.7 0 0 Z " fill="#F8F4DF" transform="translate(154,161)"/>
<path d="M0 0 C11.34728748 -0.47123287 18.29219387 3.45945858 27 10 C27.99386719 10.70640625 28.98773438 11.4128125 30.01171875 12.140625 C42.05831461 21.21337502 49.00531416 34.01487964 54 48 C51.03 47.505 51.03 47.505 48 47 C47.67 60.86 47.34 74.72 47 89 C46.67 89 46.34 89 46 89 C46 74.81 46 60.62 46 46 C46.99 46 47.98 46 49 46 C44.57174493 33.32033798 37.56741104 21.76812757 26.5 13.9375 C25.89414063 13.5055835 25.28828125 13.07366699 24.6640625 12.62866211 C19.70867303 9.22632974 14.64730362 6.95056231 8.9375 5.03515625 C5.8051188 3.93132511 2.94117036 2.5362363 0 1 C0 0.67 0 0.34 0 0 Z " fill="#F3DF67" transform="translate(170,160)"/>
<path d="M0 0 C2 1.6875 2 1.6875 3 4 C2.92974155 7.44266385 2.60090824 9.28353249 0.375 11.9375 C-3.07517724 13.48100034 -5.39999716 12.93333407 -9 12 C-11.46943529 8.29584707 -11.46913089 6.37855495 -11 2 C-7.89207752 -1.97814077 -4.55239669 -1.24156273 0 0 Z " fill="#EC6686" transform="translate(202,236)"/>
<path d="M0 0 C3 0.5625 3 0.5625 5.4375 2.6875 C7 5.5625 7 5.5625 7 8.6875 C6 11.5625 6 11.5625 4.375 13.5 C0.92482276 15.04350034 -1.39999716 14.49583407 -5 13.5625 C-7.32749345 10.07125983 -7.50299316 8.67027749 -7 4.5625 C-4.88658096 1.47365679 -3.68753254 0.69141235 0 0 Z " fill="#EC6687" transform="translate(117,234.4375)"/>
<path d="M0 0 C0.95519531 0.20302734 0.95519531 0.20302734 1.9296875 0.41015625 C7.18019875 1.41884225 12.53578165 1.36199648 17.87109375 1.51757812 C18.74121094 1.55173828 19.61132812 1.58589844 20.5078125 1.62109375 C21.29816895 1.6461499 22.08852539 1.67120605 22.90283203 1.69702148 C25 2 25 2 28 4 C27.67 4.66 27.34 5.32 27 6 C17.1 6 7.2 6 -3 6 C-3 7.65 -3 9.3 -3 11 C-3.33 9.68 -3.66 8.36 -4 7 C-4.99 7 -5.98 7 -7 7 C-7 6.34 -7 5.68 -7 5 C-5.03277992 3.61876037 -3.03131672 2.28511874 -1 1 C-0.67 0.67 -0.34 0.34 0 0 Z " fill="#F4DF67" transform="translate(145,156)"/>
<path d="M0 0 C2 3 2 3 1.8125 6.0625 C1 9 1 9 -2 11 C-4.83079592 11.35384949 -6.36830089 11.3920891 -8.8125 9.875 C-10.55198782 7.12844028 -10.39769128 5.18153026 -10 2 C-7.65569181 -2.27491494 -4.20074737 -1.06928115 0 0 Z " fill="#464558" transform="translate(180,208)"/>
<path d="M0 0 C1.8125 1.125 1.8125 1.125 3 3 C3.39310741 6.14485925 3.47555213 8.13281671 1.9375 10.9375 C-1.21566824 12.66665678 -3.62508255 11.8590699 -7 11 C-9 8 -9 8 -8.8125 4.9375 C-7.47741613 0.1106583 -4.61266905 -0.57658363 0 0 Z " fill="#484659" transform="translate(131,207)"/>
<path d="M0 0 C2.5 -0.3125 2.5 -0.3125 5 0 C7 2 7 2 7.25 4.875 C7.01152253 7.85596832 6.54507335 9.4892558 5 12 C7.31 12.66 9.62 13.32 12 14 C8.33529384 15.22156872 7.36762312 14.62833432 3.875 13.1875 C2.98554688 12.83042969 2.09609375 12.47335938 1.1796875 12.10546875 C-1 11 -1 11 -2 9 C-2.25860135 4.94857881 -2.30441554 3.45662331 0 0 Z " fill="#4A4552" transform="translate(17,116)"/>
<path d="M0 0 C2 2 2 2 2.375 4.4375 C2 7 2 7 0.3125 8.875 C-2.61922354 10.30124388 -3.95326554 10.04230389 -7 9 C-7.66 8.34 -8.32 7.68 -9 7 C-8.75 3.4375 -8.75 3.4375 -8 0 C-5.09288879 -1.4535556 -3.10402897 -0.71133997 0 0 Z " fill="#F8DF4D" transform="translate(66,289)"/>
<path d="M0 0 C1.875 1.125 1.875 1.125 3 3 C2.875 6.0625 2.875 6.0625 2 9 C-1 11 -1 11 -3.5625 10.75 C-6 10 -6 10 -8 8 C-8.36487512 5.15397406 -8.40199375 3.6135694 -6.8125 1.1875 C-4.35092224 -0.42525784 -2.88934264 -0.4334014 0 0 Z " fill="#F8DE4C" transform="translate(272,292)"/>
<path d="M0 0 C6.15234375 -0.09765625 6.15234375 -0.09765625 8 0 C10.02198426 2.02198426 9.92157443 5.7218982 10.40234375 8.45703125 C10.97739313 10.90380998 11.78170127 12.81317927 13 15 C9.21760329 14.34309381 5.78158474 13.279869 2.1875 11.9375 C1.21167969 11.57527344 0.23585937 11.21304688 -0.76953125 10.83984375 C-1.50558594 10.56269531 -2.24164062 10.28554687 -3 10 C0 9 0 9 3 10 C3.30495485 5.57335436 3.30495485 5.57335436 1.5 1.625 C1.005 1.08875 0.51 0.5525 0 0 Z " fill="#5A5555" transform="translate(32,122)"/>
<path d="M0 0 C6.57692308 0.57692308 6.57692308 0.57692308 8 2 C8.25 5.4375 8.25 5.4375 8 9 C5 11 5 11 2.4375 10.75 C0 10 0 10 -2 8 C-2.25 5 -2.25 5 -2 2 C-1.34 1.34 -0.68 0.68 0 0 Z " fill="#FADE40" transform="translate(240,290)"/>
<path d="M0 0 C1 1 1 1 1.1875 3.9375 C1 7 1 7 -1 9 C-4.5 9.3125 -4.5 9.3125 -8 9 C-10 6 -10 6 -9.75 2.875 C-9.37875 1.451875 -9.37875 1.451875 -9 0 C-5.90842747 -1.54578627 -3.31526981 -0.60277633 0 0 Z " fill="#F8DE4B" transform="translate(110,284)"/>
<path d="M0 0 C3 0.25 3 0.25 5 2.25 C5.25 5.25 5.25 5.25 5 8.25 C3 10.25 3 10.25 0 10.5 C-3 10.25 -3 10.25 -5 8.25 C-5.25 5.25 -5.25 5.25 -5 2.25 C-3 0.25 -3 0.25 0 0 Z " fill="#F9DE48" transform="translate(24,284.75)"/>
<path d="M0 0 C0.33 0 0.66 0 1 0 C0.98839844 0.69037354 0.97679687 1.38074707 0.96484375 2.09204102 C0.93518885 5.25002336 0.9670859 8.40457489 1 11.5625 C0.98066406 12.64853516 0.96132812 13.73457031 0.94140625 14.85351562 C0.99800021 21.03900073 0.99800021 21.03900073 3.84765625 26.33935547 C5.8240064 28.06866185 7.78784558 29.58874374 10 31 C9.01 31.33 8.02 31.66 7 32 C4.3125 30.0625 4.3125 30.0625 2 28 C1.34 29.32 0.68 30.64 0 32 C0 30.35 0 28.7 0 27 C-0.79664063 27.55880859 -0.79664063 27.55880859 -1.609375 28.12890625 C-2.31578125 28.60199219 -3.0221875 29.07507813 -3.75 29.5625 C-4.44609375 30.03816406 -5.1421875 30.51382812 -5.859375 31.00390625 C-8 32 -8 32 -10.265625 31.65234375 C-10.83796875 31.43707031 -11.4103125 31.22179687 -12 31 C-10.54550599 29.9944239 -9.08627557 28.99569565 -7.625 28 C-6.81289062 27.443125 -6.00078125 26.88625 -5.1640625 26.3125 C-3 25 -3 25 -1 25 C-0.67 16.75 -0.34 8.5 0 0 Z " fill="#59565D" transform="translate(177,284)"/>
<path d="M0 0 C0.33 0 0.66 0 1 0 C1 7.59 1 15.18 1 23 C2.32 23.66 3.64 24.32 5 25 C6.70496537 26.62746694 8.37897032 28.28891311 10 30 C6.64404172 29.40072174 4.62198774 28.15377564 2 26 C1.67 27.32 1.34 28.64 1 30 C0.34 30 -0.32 30 -1 30 C-1.33 28.68 -1.66 27.36 -2 26 C-3.6396875 27.0209375 -3.6396875 27.0209375 -5.3125 28.0625 C-7.17578125 29.22265625 -7.17578125 29.22265625 -9 30 C-9.99 29.67 -10.98 29.34 -12 29 C-11.21753906 28.74992187 -10.43507812 28.49984375 -9.62890625 28.2421875 C-5.80806304 26.53862684 -3.70263066 25.24399612 -1 22 C0.76817784 14.88684923 0.31543779 7.2736791 0 0 Z " fill="#5B585F" transform="translate(149,286)"/>
<path d="M0 0 C2.46057053 4.47844427 3.62722529 8.88027357 3 14 C1.0540688 16.86315398 -1.24483938 18.92504113 -4 21 C-5.25620262 18.48759477 -4.86818401 17.60588182 -4.2578125 14.90234375 C-3.98904297 13.70061523 -3.98904297 13.70061523 -3.71484375 12.47460938 C-3.52019531 11.63736328 -3.32554687 10.80011719 -3.125 9.9375 C-2.93808594 9.09638672 -2.75117188 8.25527344 -2.55859375 7.38867188 C-1.13827881 1.13827881 -1.13827881 1.13827881 0 0 Z " fill="#ED6689" transform="translate(157,229)"/>
<path d="M0 0 C0 0.66 0 1.32 0 2 C0.66 2.33 1.32 2.66 2 3 C1.31035156 3.23074219 0.62070313 3.46148437 -0.08984375 3.69921875 C-6.45869087 5.90953195 -12.22615378 8.52143585 -18 12 C-18.66 11.34 -19.32 10.68 -20 10 C-5.9 0 -5.9 0 0 0 Z " fill="#F4E167" transform="translate(138,161)"/>
<path d="M0 0 C3.82097239 0.53069061 6.06171403 1.49701566 9 4 C8.75 6.375 8.75 6.375 8 9 C5.9375 10.3125 5.9375 10.3125 4 11 C3.34 10.34 2.68 9.68 2 9 C2.2784375 7.5459375 2.2784375 7.5459375 2.5625 6.0625 C2.7790625 4.5465625 2.7790625 4.5465625 3 3 C1.68681738 1.10041919 1.68681738 1.10041919 0 0 Z " fill="#504B54" transform="translate(30,93)"/>
<path d="M0 0 C0.33 0 0.66 0 1 0 C1.33 7.92 1.66 15.84 2 24 C-1.28563526 20.71436474 -1.12846272 17.67008263 -1.13671875 13.1953125 C-1.13285156 12.47085938 -1.12898438 11.74640625 -1.125 11 C-1.12886719 10.27554688 -1.13273437 9.55109375 -1.13671875 8.8046875 C-1.13081927 5.60717121 -1.01805798 3.05417393 0 0 Z " fill="#F4DE60" transform="translate(87,216)"/>
<path d="M0 0 C1.67542976 0.28604898 3.34385343 0.61781233 5 1 C5 1.66 5 2.32 5 3 C3.68 3.33 2.36 3.66 1 4 C1.66 4.66 2.32 5.32 3 6 C1.02 6 -0.96 6 -3 6 C-3 7.65 -3 9.3 -3 11 C-3.33 9.68 -3.66 8.36 -4 7 C-4.99 7 -5.98 7 -7 7 C-7 6.34 -7 5.68 -7 5 C-5.03277992 3.61876037 -3.03131672 2.28511874 -1 1 C-0.67 0.67 -0.34 0.34 0 0 Z " fill="#D7C762" transform="translate(145,156)"/>
<path d="M0 0 C5.75 0.75 5.75 0.75 8 3 C6.68 3 5.36 3 4 3 C3.67 3.66 3.34 4.32 3 5 C1.625 7.625 1.625 7.625 0 10 C-0.99 10 -1.98 10 -3 10 C-2.39009109 6.44219804 -1.4216319 3.3171411 0 0 Z " fill="#5E5959" transform="translate(63,132)"/>
<path d="M0 0 C6.625 0.75 6.625 0.75 10 3 C10 3.99 10 4.98 10 6 C9.01 6 8.02 6 7 6 C6.67 5.01 6.34 4.02 6 3 C5.01 2.67 4.02 2.34 3 2 C2.67 3.32 2.34 4.64 2 6 C0.68 6.33 -0.64 6.66 -2 7 C-1.34 4.69 -0.68 2.38 0 0 Z " fill="#928F88" transform="translate(53,168)"/>
<path d="M0 0 C5.94 0 11.88 0 18 0 C18 0.66 18 1.32 18 2 C18.66 2.33 19.32 2.66 20 3 C13.13484138 3.26404456 6.74153283 2.25841946 0 1 C0 0.67 0 0.34 0 0 Z " fill="#EAE8DF" transform="translate(5,308)"/>
<path d="M0 0 C-3.3 2.97 -6.6 5.94 -10 9 C-11 6 -11 6 -9.8125 3.4375 C-6.67273379 -0.78494421 -5.14556378 -1.28639095 0 0 Z " fill="#554F55" transform="translate(120,295)"/>
<path d="M0 0 C-3.3 2.97 -6.6 5.94 -10 9 C-10.33 8.34 -10.66 7.68 -11 7 C-8.3451376 1.55054561 -6.20084114 -1.55021028 0 0 Z " fill="#514C50" transform="translate(38,297)"/>
<path d="M0 0 C0.93423645 3.01031744 1.04449911 3.86650268 0 7 C1.98 6.67 3.96 6.34 6 6 C6 6.66 6 7.32 6 8 C3.36 8 0.72 8 -2 8 C-2 8.66 -2 9.32 -2 10 C-2.66 10 -3.32 10 -4 10 C-3.71872579 8.51882199 -3.42466268 7.04006751 -3.125 5.5625 C-2.96257812 4.73878906 -2.80015625 3.91507813 -2.6328125 3.06640625 C-2.42398438 2.38449219 -2.21515625 1.70257813 -2 1 C-1.34 0.67 -0.68 0.34 0 0 Z " fill="#F6DD5A" transform="translate(97,200)"/>
<path d="M0 0 C-3.16952847 3.26008643 -6.39937989 6.22237877 -10 9 C-9.51578947 3.55263158 -9.51578947 3.55263158 -7.25 1.125 C-4.63695229 -0.18152386 -2.88466476 -0.24038873 0 0 Z " fill="#534E52" transform="translate(283,304)"/>
<path d="M0 0 C-2.80804268 2.96404505 -5.18315774 5.44499019 -9 7 C-9 7.66 -9 8.32 -9 9 C-9.66 9 -10.32 9 -11 9 C-10.14875108 5.80781657 -9.5084683 3.52600169 -7.1875 1.125 C-4.60734493 -0.20193689 -2.86336051 -0.23861338 0 0 Z " fill="#544F53" transform="translate(257,302)"/>
<path d="M0 0 C-3.16952847 3.26008643 -6.39937989 6.22237877 -10 9 C-9.65544802 5.89903219 -9.15182706 4.20062862 -7.25 1.6875 C-4.58761061 -0.30929204 -3.25047681 -0.36116409 0 0 Z " fill="#4E4A52" transform="translate(76,300)"/>
<path d="M0 0 C0.66 0.33 1.32 0.66 2 1 C-6.261959 10.59453303 -6.261959 10.59453303 -11 14 C-8.8527917 7.73730913 -5.24125182 3.93093886 0 0 Z " fill="#EB7788" transform="translate(243,52)"/>
<path d="M0 0 C0.66 0 1.32 0 2 0 C2.02689216 1.47906892 2.04634621 2.95827483 2.0625 4.4375 C2.07410156 5.26121094 2.08570312 6.08492188 2.09765625 6.93359375 C2 9 2 9 1 10 C-1.21484375 10.203125 -1.21484375 10.203125 -3.9375 10.25 C-4.83339844 10.27578125 -5.72929688 10.3015625 -6.65234375 10.328125 C-7.42707031 10.21984375 -8.20179687 10.1115625 -9 10 C-11.29013653 6.5647952 -11.17842973 5.014669 -11 1 C-10.01 1.495 -10.01 1.495 -9 2 C-8.59270772 4.32156597 -8.25561323 6.6568787 -8 9 C-3.65815798 8.81535634 -3.65815798 8.81535634 0 7 C0.04092937 4.66702567 0.04241723 2.33294775 0 0 Z " fill="#FEF7C5" transform="translate(110,284)"/>
<path d="M0 0 C3.875 1.75 3.875 1.75 5 4 C5.29447914 7.31289035 5.09592132 9.70584128 4.0625 12.875 C2 15 2 15 -0.203125 15.30859375 C-2.48990554 15.31218932 -4.72400094 15.21471689 -7 15 C-6.67 14.34 -6.34 13.68 -6 13 C-4.865625 12.855625 -3.73125 12.71125 -2.5625 12.5625 C-0.7990625 12.2840625 -0.7990625 12.2840625 1 12 C3.32821558 9.18138229 3.32821558 9.18138229 2.75 6 C2.14014017 2.84584582 2.14014017 2.84584582 0 0 Z " fill="#623A54" transform="translate(120,235)"/>
<path d="M0 0 C2.475 0.495 2.475 0.495 5 1 C4.67 4.3 4.34 7.6 4 11 C1.6870518 8.6870518 1.50419025 7.52095125 0.875 4.375 C0.70742188 3.55773437 0.53984375 2.74046875 0.3671875 1.8984375 C0.24601562 1.27195312 0.12484375 0.64546875 0 0 Z " fill="#817C82" transform="translate(36,122)"/>
<path d="M0 0 C6.57692308 0.57692308 6.57692308 0.57692308 8 2 C8.04092937 4.33297433 8.04241723 6.66705225 8 9 C7.67 9 7.34 9 7 9 C6.67 7.02 6.34 5.04 6 3 C3.69 3.33 1.38 3.66 -1 4 C-1.33 5.32 -1.66 6.64 -2 8 C-2.125 5.125 -2.125 5.125 -2 2 C-1.34 1.34 -0.68 0.68 0 0 Z " fill="#F6E05E" transform="translate(240,290)"/>
<path d="M0 0 C1.65 0 3.3 0 5 0 C4.195625 0.61875 3.39125 1.2375 2.5625 1.875 C-0.03874519 3.74164041 -0.03874519 3.74164041 -1 6 C-0.34 6.66 0.32 7.32 1 8 C-3.75 7.125 -3.75 7.125 -6 6 C-6 5.34 -6 4.68 -6 4 C-4.35 3.67 -2.7 3.34 -1 3 C-0.67 2.01 -0.34 1.02 0 0 Z " fill="#77736E" transform="translate(24,83)"/>
<path d="M0 0 C3.7758544 0.52442422 6.22372155 1.32654667 9 4 C9 4.99 9 5.98 9 7 C3.25 5.25 3.25 5.25 1 3 C1.66 2.67 2.32 2.34 3 2 C2.01 1.34 1.02 0.68 0 0 Z " fill="#F7E77F" transform="translate(179,161)"/>
<path d="M0 0 C3.64775386 3.88309282 4.58525633 6.71201818 5 12 C2.2289312 9.65408148 1.47940716 7.85223799 0.8125 4.3125 C0.65394531 3.50425781 0.49539062 2.69601563 0.33203125 1.86328125 C0.22246094 1.24839844 0.11289063 0.63351563 0 0 Z " fill="#FFF8C3" transform="translate(219,195)"/>
<path d="M0 0 C2.6465335 2.6465335 3.59941997 5.56221264 5 9 C0.25 8.25 0.25 8.25 -2 6 C-1.34 6 -0.68 6 0 6 C0 4.02 0 2.04 0 0 Z " fill="#524E50" transform="translate(40,128)"/>
<path d="M0 0 C1.34771696 2.21976911 2.04398726 3.50147776 1.8125 6.125 C1 8 1 8 -2 10 C-1.85950482 8.52031676 -1.71245174 7.04125484 -1.5625 5.5625 C-1.48128906 4.73878906 -1.40007812 3.91507813 -1.31640625 3.06640625 C-1 1 -1 1 0 0 Z " fill="#CB6688" transform="translate(157,229)"/>
<path d="M0 0 C0.66 0.33 1.32 0.66 2 1 C-0.31 3.64 -2.62 6.28 -5 9 C-5.99 8.67 -6.98 8.34 -8 8 C-5.36 5.36 -2.72 2.72 0 0 Z " fill="#FFF7C2" transform="translate(118,174)"/>
<path d="M0 0 C-1.07107117 0.86949317 -2.15745944 1.72014205 -3.25 2.5625 C-3.85328125 3.03816406 -4.4565625 3.51382812 -5.078125 4.00390625 C-7 5 -7 5 -9.234375 4.65234375 C-9.81703125 4.43707031 -10.3996875 4.22179687 -11 4 C-9.73760288 3.13341385 -8.46472499 2.28207941 -7.1875 1.4375 C-6.47980469 0.96183594 -5.77210938 0.48617188 -5.04296875 -0.00390625 C-3 -1 -3 -1 0 0 Z " fill="#525155" transform="translate(176,311)"/>
<path d="M0 0 C2.34058637 2.12780579 3.70700306 4.11562221 5 7 C2.03 6.505 2.03 6.505 -1 6 C-1.33 6.66 -1.66 7.32 -2 8 C-2 7.01 -2 6.02 -2 5 C-1.34 5 -0.68 5 0 5 C0 3.35 0 1.7 0 0 Z " fill="#F7DE56" transform="translate(219,201)"/>
<path d="M0 0 C7.75 -0.125 7.75 -0.125 10 1 C9.67 1.99 9.34 2.98 9 4 C9 3.34 9 2.68 9 2 C5.28400809 1.79913557 4.22791555 1.8480563 1 4 C0.67 2.68 0.34 1.36 0 0 Z " fill="#E7E2E3" transform="translate(155,162)"/>
<path d="M0 0 C0.66 0.33 1.32 0.66 2 1 C1.67 1.99 1.34 2.98 1 4 C2.32 4.99 3.64 5.98 5 7 C1.17902761 6.46930939 -1.06171403 5.50298434 -4 3 C-2.68 2.01 -1.36 1.02 0 0 Z " fill="#A5A296" transform="translate(35,148)"/>
<path d="M0 0 C0.33 0 0.66 0 1 0 C1 1.98 1 3.96 1 6 C1.66 6.33 2.32 6.66 3 7 C1.35 8.32 -0.3 9.64 -2 11 C-1.34 7.37 -0.68 3.74 0 0 Z " fill="#C5688A" transform="translate(154,239)"/>
<path d="M0 0 C0.99 0.33 1.98 0.66 3 1 C3.33 2.65 3.66 4.3 4 6 C2.68 5.67 1.36 5.34 0 5 C-0.5625 3.0625 -0.5625 3.0625 -1 1 C-0.67 0.67 -0.34 0.34 0 0 Z " fill="#5C5855" transform="translate(76,178)"/>
<path d="M0 0 C1.32 0.33 2.64 0.66 4 1 C3.67 2.65 3.34 4.3 3 6 C2.01 5.67 1.02 5.34 0 5 C0 3.35 0 1.7 0 0 Z " fill="#5E5A58" transform="translate(69,145)"/>
<path d="M0 0 C1.125 3.75 1.125 3.75 0 6 C1.65 6 3.3 6 5 6 C5 6.33 5 6.66 5 7 C2.69 7.33 0.38 7.66 -2 8 C-1.125 2.25 -1.125 2.25 0 0 Z " fill="#FEF6B2" transform="translate(99,199)"/>
<path d="M0 0 C0.66 0 1.32 0 2 0 C2 1.98 2 3.96 2 6 C0.68 6.33 -0.64 6.66 -2 7 C-1.34 4.69 -0.68 2.38 0 0 Z " fill="#534E4F" transform="translate(53,168)"/>
<path d="M0 0 C1.65 0.33 3.3 0.66 5 1 C5 1.66 5 2.32 5 3 C2.69 3 0.38 3 -2 3 C-1.34 2.01 -0.68 1.02 0 0 Z " fill="#625944" transform="translate(145,156)"/>
</svg>
