<?xml version="1.0" encoding="UTF-8"?>
<svg version="1.1" xmlns="http://www.w3.org/2000/svg" width="318" height="366">
<path d="M0 0 C104.94 0 209.88 0 318 0 C318 120.78 318 241.56 318 366 C213.06 366 108.12 366 0 366 C0 245.22 0 124.44 0 0 Z " fill="#EAE7D8" transform="translate(0,0)"/>
<path d="M0 0 C10.98573648 9.09090984 15.26976827 29.88063036 19 43 C19 43.66 19 44.32 19 45 C19.66 44.67 20.32 44.34 21 44 C24.5 43.8125 24.5 43.8125 28 44 C30 46 30 46 30.25 49.8125 C30.20432596 52.62399108 29.97385473 54.05917087 28.8125 56.6875 C28.544375 57.450625 28.27625 58.21375 28 59 C29.30027975 61.69519712 29.30027975 61.69519712 31 64 C31 64.66 31 65.32 31 66 C31.763125 66.0825 32.52625 66.165 33.3125 66.25 C36 67 36 67 37.875 68.5 C39.68226887 72.51615304 39.16226199 75.82264141 38 80 C36.70678711 82.06958008 36.70678711 82.06958008 35.15234375 84.14453125 C31.78935061 89.00799079 30.1343427 93.85782194 28.5 99.5 C23.71865772 116.00644295 23.71865772 116.00644295 17.00195312 120.26757812 C13.23441713 121.64594495 9.67068537 120.22356179 6 119 C4.39526012 140.75314058 11.65629864 152.37090174 24.14453125 169.625 C25.01936157 170.89923828 25.01936157 170.89923828 25.91186523 172.19921875 C27.50506189 174.33614755 29.02248998 176.07522146 30.87133789 177.95703125 C42.53095993 190.77331335 40.26802537 207.41278455 39.86914062 223.61810303 C39.71977446 229.89936867 39.64199454 236.1805844 39.60687828 242.46343994 C39.58257815 244.63854686 39.5183705 246.80978451 39.4499054 248.98388672 C39.23654872 257.34836371 39.23654872 257.34836371 43.02612305 264.58203125 C43.85577827 265.38411011 43.85577827 265.38411011 44.70219421 266.20239258 C46 268 46 268 46 274 C67.78 274 89.56 274 112 274 C112 289.51 112 305.02 112 321 C7.06 321 -97.88 321 -206 321 C-206 305.49 -206 289.98 -206 274 C-175.97 274 -145.94 274 -115 274 C-115 272.02 -115 270.04 -115 268 C-113.42578125 265.11328125 -113.42578125 265.11328125 -111.3125 262.3125 C-110.28576172 260.91451172 -110.28576172 260.91451172 -109.23828125 259.48828125 C-107 257 -107 257 -104.61698914 255.86671448 C-100.83331064 253.16779329 -99.69564379 249.83650349 -97.88989258 245.64428711 C-97.10518564 243.9082679 -96.31617046 242.17419105 -95.52334595 240.44186401 C-95.11223698 239.54207195 -94.70112801 238.64227989 -94.27756119 237.71522141 C-92.20523655 233.31087641 -89.9284651 229.02133136 -87.63549805 224.72875977 C-86.67850112 222.93226758 -85.72152631 221.13576362 -84.76457214 219.33924866 C-84.2750878 218.42116991 -83.78560345 217.50309116 -83.28128624 216.55719185 C-80.04289124 210.44983181 -76.87123711 204.30741752 -73.69279766 198.16870213 C-70.93741192 192.85546255 -68.15731334 187.55867818 -65.31518555 182.29125977 C-49.6221134 153.14677903 -40.91071754 128.32987561 -41 95 C-41.77730469 94.71511719 -42.55460938 94.43023437 -43.35546875 94.13671875 C-46.78592503 92.66217993 -48.08290066 91.19516556 -50 88 C-50.47596233 84.19230134 -50.36528894 81.82670654 -48.8125 78.3125 C-45.86962174 74.55779326 -43.45404492 72.26592146 -38.66796875 71.390625 C-37.51941406 71.34421875 -36.37085938 71.2978125 -35.1875 71.25 C-33.44533203 71.16492188 -33.44533203 71.16492188 -31.66796875 71.078125 C-30.78753906 71.05234375 -29.90710938 71.0265625 -29 71 C-28.34 68.36 -27.68 65.72 -27 63 C-27.7425 62.773125 -28.485 62.54625 -29.25 62.3125 C-33.32240081 60.36885416 -35.12534205 57.54106401 -37.3125 53.6875 C-38.40294745 49.42484177 -37.99176396 44.98352791 -36 41 C-34.72125 41.309375 -33.4425 41.61875 -32.125 41.9375 C-28.69647077 42.73695361 -25.57407009 43.05265386 -22.0625 43.125 C-15.60748911 43.6215393 -11.56276385 47.73818441 -7 52 C-8.05875074 55.40312738 -9.00902154 58.01353231 -11 61 C-11.16713569 63.62531524 -11.16713569 63.62531524 -11 66 C-6.89429775 67.55198367 -3.39729499 68.44385841 1 68 C6.04494789 63.90264814 10.67475395 58.12564818 13 52 C13.37797753 47.86611488 12.58282694 45.73957025 10.32421875 42.296875 C9.74808838 41.40677734 9.17195801 40.51667969 8.57836914 39.59960938 C7.95438232 38.65923828 7.33039551 37.71886719 6.6875 36.75 C6.05900146 35.77869141 5.43050293 34.80738281 4.78295898 33.80664062 C1.77105279 29.16180994 -1.29210609 24.55587695 -4.4140625 19.984375 C-4.92670654 19.22286133 -5.43935059 18.46134766 -5.9675293 17.67675781 C-6.92479221 16.25922648 -7.89698381 14.85162675 -8.88598633 13.45605469 C-10.99772159 10.32361428 -12.01623362 8.47973132 -11.88671875 4.65234375 C-11 2 -11 2 -9.375 0.0625 C-5.87851531 -1.50171684 -3.65313273 -0.9785177 0 0 Z " fill="#2C2C3A" transform="translate(206,45)"/>
<path d="M0 0 C104.94 0 209.88 0 318 0 C318 15.18 318 30.36 318 46 C213.06 46 108.12 46 0 46 C0 30.82 0 15.64 0 0 Z " fill="#EAE7D9" transform="translate(0,320)"/>
<path d="M0 0 C5.23624666 2.38011212 9.55440529 6.08517263 14.09912109 9.55957031 C16.19551158 11.14815288 18.30976345 12.71110572 20.42578125 14.2734375 C21.95072654 15.41118268 23.47546739 16.54920191 25 17.6875 C25.72985107 18.22157471 26.45970215 18.75564941 27.21166992 19.3059082 C32.5177204 23.29854932 36.63484738 27.26335 38 34 C38.25608323 35.99527868 38.48028112 37.9947493 38.68359375 39.99609375 C38.86607666 41.77910889 38.86607666 41.77910889 39.05224609 43.59814453 C39.24294678 45.49862549 39.24294678 45.49862549 39.4375 47.4375 C39.57236816 48.7354248 39.70723633 50.03334961 39.84619141 51.37060547 C40.45744875 57.30968434 41.03938045 63.24371515 41.46484375 69.19921875 C42.13936197 82.90798582 42.13936197 82.90798582 48 95 C50.56582485 96.29734055 50.56582485 96.29734055 53 97 C53 97.33 53 97.66 53 98 C7.79 98 -37.42 98 -84 98 C-80 95 -80 95 -78 94 C-77.23079558 91.7679733 -76.65894716 89.51333476 -76.07421875 87.2265625 C-74.63995993 84.25373512 -72.8322198 83.65817997 -70 82 C-68.05528901 79.93109847 -66.23649699 77.87456292 -64.4375 75.6875 C-63.37388747 74.42041377 -62.31007995 73.15349122 -61.24609375 71.88671875 C-60.70710449 71.24009277 -60.16811523 70.5934668 -59.61279297 69.92724609 C-57.10273869 66.92779583 -54.55057964 63.96498067 -52 61 C-50.99977184 59.83352894 -49.99977243 58.66686169 -49 57.5 C-47 55.16666667 -45 52.83333333 -43 50.5 C-42.50508057 49.92258057 -42.01016113 49.34516113 -41.50024414 48.75024414 C-40.49948394 47.58271772 -39.49867008 46.4152373 -38.49780273 45.24780273 C-36.00899324 42.34466371 -33.52109909 39.44075051 -31.03515625 36.53515625 C-30.04433851 35.37754624 -29.05345299 34.21999424 -28.0625 33.0625 C-27.57225342 32.48975342 -27.08200684 31.91700684 -26.5769043 31.3269043 C-23.39636056 27.6158382 -20.19603768 23.92260838 -16.98681641 20.23632812 C-11.19977787 13.58688752 -5.52659793 6.86897573 0 0 Z " fill="#EAE7D9" transform="translate(187,221)"/>
<path d="M0 0 C10.98573648 9.09090984 15.26976827 29.88063036 19 43 C19 43.66 19 44.32 19 45 C19.66 44.67 20.32 44.34 21 44 C24.5 43.8125 24.5 43.8125 28 44 C30 46 30 46 30.25 49.8125 C30.20432596 52.62399108 29.97385473 54.05917087 28.8125 56.6875 C28.544375 57.450625 28.27625 58.21375 28 59 C29.30027975 61.69519712 29.30027975 61.69519712 31 64 C31 64.66 31 65.32 31 66 C31.763125 66.0825 32.52625 66.165 33.3125 66.25 C36 67 36 67 37.875 68.5 C39.68226887 72.51615304 39.16226199 75.82264141 38 80 C36.70678711 82.06958008 36.70678711 82.06958008 35.15234375 84.14453125 C31.78935061 89.00799079 30.1343427 93.85782194 28.5 99.5 C23.71865772 116.00644295 23.71865772 116.00644295 17.00195312 120.26757812 C13.23441713 121.64594495 9.67068537 120.22356179 6 119 C6 124.94 6 130.88 6 137 C-1.02107226 137.87122795 -7.99411847 138.29914587 -15.0625 138.5625 C-16.1548999 138.6049585 -17.2472998 138.64741699 -18.37280273 138.69116211 C-26.92017805 139.00404754 -35.44771537 139.11471023 -44 139 C-44.22320204 129.71851502 -43.35929638 120.60426601 -42.5 111.375 C-42.35505853 109.78258937 -42.21052405 108.19014164 -42.06640625 106.59765625 C-41.71562701 102.73132724 -41.35934819 98.86554161 -41 95 C-41.77730469 94.71511719 -42.55460938 94.43023437 -43.35546875 94.13671875 C-46.78592503 92.66217993 -48.08290066 91.19516556 -50 88 C-50.47596233 84.19230134 -50.36528894 81.82670654 -48.8125 78.3125 C-45.86962174 74.55779326 -43.45404492 72.26592146 -38.66796875 71.390625 C-37.51941406 71.34421875 -36.37085938 71.2978125 -35.1875 71.25 C-33.44533203 71.16492188 -33.44533203 71.16492188 -31.66796875 71.078125 C-30.78753906 71.05234375 -29.90710938 71.0265625 -29 71 C-28.34 68.36 -27.68 65.72 -27 63 C-27.7425 62.773125 -28.485 62.54625 -29.25 62.3125 C-33.32240081 60.36885416 -35.12534205 57.54106401 -37.3125 53.6875 C-38.40294745 49.42484177 -37.99176396 44.98352791 -36 41 C-34.72125 41.309375 -33.4425 41.61875 -32.125 41.9375 C-28.69647077 42.73695361 -25.57407009 43.05265386 -22.0625 43.125 C-15.60748911 43.6215393 -11.56276385 47.73818441 -7 52 C-8.05875074 55.40312738 -9.00902154 58.01353231 -11 61 C-11.16713569 63.62531524 -11.16713569 63.62531524 -11 66 C-6.89429775 67.55198367 -3.39729499 68.44385841 1 68 C6.04494789 63.90264814 10.67475395 58.12564818 13 52 C13.37797753 47.86611488 12.58282694 45.73957025 10.32421875 42.296875 C9.74808838 41.40677734 9.17195801 40.51667969 8.57836914 39.59960938 C7.64238892 38.18905273 7.64238892 38.18905273 6.6875 36.75 C6.05900146 35.77869141 5.43050293 34.80738281 4.78295898 33.80664062 C1.77105279 29.16180994 -1.29210609 24.55587695 -4.4140625 19.984375 C-4.92670654 19.22286133 -5.43935059 18.46134766 -5.9675293 17.67675781 C-6.92479221 16.25922648 -7.89698381 14.85162675 -8.88598633 13.45605469 C-10.99772159 10.32361428 -12.01623362 8.47973132 -11.88671875 4.65234375 C-11 2 -11 2 -9.375 0.0625 C-5.87851531 -1.50171684 -3.65313273 -0.9785177 0 0 Z " fill="#EACB31" transform="translate(206,45)"/>
<path d="M0 0 C10.98573648 9.09090984 15.26976827 29.88063036 19 43 C19 43.66 19 44.32 19 45 C19.66 44.67 20.32 44.34 21 44 C24.5 43.8125 24.5 43.8125 28 44 C30 46 30 46 30.25 49.8125 C30.20432596 52.62399108 29.97385473 54.05917087 28.8125 56.6875 C28.544375 57.450625 28.27625 58.21375 28 59 C29.30027975 61.69519712 29.30027975 61.69519712 31 64 C31 64.66 31 65.32 31 66 C31.763125 66.0825 32.52625 66.165 33.3125 66.25 C36 67 36 67 37.875 68.5 C39.68226887 72.51615304 39.16226199 75.82264141 38 80 C36.70678711 82.06958008 36.70678711 82.06958008 35.15234375 84.14453125 C31.78935061 89.00799079 30.1343427 93.85782194 28.5 99.5 C23.72073964 115.9992556 23.72073964 115.9992556 17.00585938 120.26757812 C14.10532445 121.32668289 11.95421564 120.70644287 9 120 C8.01 119.505 8.01 119.505 7 119 C6.89158049 117.08458862 6.81421921 115.16740227 6.75 113.25 C6.70359375 112.18265625 6.6571875 111.1153125 6.609375 110.015625 C7.10145376 106.21677695 8.23617079 105.56879135 11 103 C17.38684417 93.31018952 23.89810058 81.27403383 22.8125 69.375 C22.29877715 65.95080057 22.29877715 65.95080057 20 64 C19.65855957 64.50225098 19.31711914 65.00450195 18.96533203 65.52197266 C14.99343948 71.35939062 11.00489268 77.18517133 7 83 C6.4942041 83.73444336 5.9884082 84.46888672 5.46728516 85.22558594 C4.13195303 87.15608677 2.78705261 89.07942282 1.4375 91 C1.0451416 91.56799316 0.6527832 92.13598633 0.24853516 92.72119141 C-2.33777409 96.37159497 -4.66939917 99.20317403 -8.9765625 100.67578125 C-14.95775628 101.63415786 -20.35758749 101.3148359 -26 99 C-24.64703418 95.42842673 -23.08737511 92.1260025 -21.1875 88.8125 C-20.70667969 87.95269531 -20.22585937 87.09289062 -19.73046875 86.20703125 C-18 84 -18 84 -15.75 83.125 C-11.58067058 81.41936524 -8.93077806 78.37475598 -5.8125 75.1875 C-5.15556152 74.52041016 -4.49862305 73.85332031 -3.82177734 73.16601562 C6.28939585 63.05577385 6.28939585 63.05577385 13.1484375 50.7734375 C12.92053823 44.97999809 9.96297511 41.31776935 6.75 36.625 C6.11698975 35.66271484 5.48397949 34.70042969 4.83178711 33.70898438 C2.33511948 29.92089371 -0.2054169 26.16403893 -2.76318359 22.41699219 C-3.83781181 20.84230829 -4.90699061 19.26388653 -5.96972656 17.68115234 C-6.92516975 16.26133708 -7.89650117 14.85204386 -8.88574219 13.45556641 C-10.99812509 10.32354947 -12.01623118 8.47965946 -11.88671875 4.65234375 C-11 2 -11 2 -9.375 0.0625 C-5.87851531 -1.50171684 -3.65313273 -0.9785177 0 0 Z " fill="#925A5E" transform="translate(206,45)"/>
<path d="M0 0 C104.94 0 209.88 0 318 0 C318 1.32 318 2.64 318 4 C213.06 4 108.12 4 0 4 C0 2.68 0 1.36 0 0 Z " fill="#FEFEFD" transform="translate(0,362)"/>
<path d="M0 0 C2.50678535 0.3457635 3.84891729 0.87496604 5.8125 2.5 C7.71423057 6.50364331 7.16746403 9.80248595 6 14 C4.70678711 16.06958008 4.70678711 16.06958008 3.15234375 18.14453125 C-0.21064939 23.00799079 -1.8656573 27.85782194 -3.5 33.5 C-8.27926036 49.9992556 -8.27926036 49.9992556 -14.99414062 54.26757812 C-17.89467555 55.32668289 -20.04578436 54.70644287 -23 54 C-23.66 53.67 -24.32 53.34 -25 53 C-25.10841951 51.08458862 -25.18578079 49.16740227 -25.25 47.25 C-25.29640625 46.18265625 -25.3428125 45.1153125 -25.390625 44.015625 C-24.89886712 40.21925413 -23.76614485 39.56106859 -21 37 C-19.32226625 34.49079027 -17.90995991 31.85448211 -16.5 29.1875 C-16.10562744 28.4457251 -15.71125488 27.7039502 -15.30493164 26.93969727 C-11.68336465 19.85971048 -9.61783144 12.77237901 -8 5 C-6 7 -6 7 -4.75 9.625 C-4.1725 10.40875 -3.595 11.1925 -3 12 C0.12635209 12.41746608 0.12635209 12.41746608 3 12 C3.34833144 7.12335991 2.41685712 4.22949995 0 0 Z " fill="#925C60" transform="translate(238,111)"/>
<path d="M0 0 C8.66207929 7.16803848 12.00890091 21.42373029 15.5 31.6875 C16.04382324 33.2648291 16.04382324 33.2648291 16.59863281 34.87402344 C16.92702148 35.86821289 17.25541016 36.86240234 17.59375 37.88671875 C17.88958984 38.77576904 18.18542969 39.66481934 18.49023438 40.58081055 C19.04627861 43.21962393 19.13529612 44.55375443 18 47 C15.9375 48.25 15.9375 48.25 14 49 C13.67427002 48.46858398 13.34854004 47.93716797 13.01293945 47.38964844 C11.44881733 44.84143623 9.88074529 42.29567671 8.3125 39.75 C7.73612793 38.8108374 7.15975586 37.8716748 6.56591797 36.90405273 C3.53499699 31.99264831 0.44977209 27.13794628 -2.79296875 22.36328125 C-3.39343018 21.4722168 -3.9938916 20.58115234 -4.61254883 19.66308594 C-5.76858683 17.95729333 -6.93860737 16.26087612 -8.1237793 14.57519531 C-12.0110657 8.81332917 -12.0110657 8.81332917 -11.953125 4.5546875 C-11 2 -11 2 -9.375 0.0625 C-5.87851531 -1.50171684 -3.65313273 -0.9785177 0 0 Z " fill="#3F3A4D" transform="translate(206,45)"/>
<path d="M0 0 C1.918125 0.4640625 1.918125 0.4640625 3.875 0.9375 C7.30352923 1.73695361 10.42592991 2.05265386 13.9375 2.125 C20.39251089 2.6215393 24.43723615 6.73818441 29 11 C27.94124926 14.40312738 26.99097846 17.01353231 25 20 C24.60612212 22.32387947 24.26513915 24.65793749 24 27 C22.27192682 27.33895656 20.54248026 27.67091525 18.8125 28 C17.84957031 28.185625 16.88664062 28.37125 15.89453125 28.5625 C13.2065794 28.96877612 10.71228981 29.07933572 8 29 C8.33 26.69 8.66 24.38 9 22 C8.2575 21.773125 7.515 21.54625 6.75 21.3125 C2.67759919 19.36885416 0.87465795 16.54106401 -1.3125 12.6875 C-2.40294745 8.42484177 -1.99176396 3.98352791 0 0 Z " fill="#925A5E" transform="translate(170,86)"/>
<path d="M0 0 C4.43482614 1.35171071 7.30670735 3.27204272 10.5 6.625 C12.94269909 12.12107295 12.82336261 17.42699184 11 23.125 C10.505 24.053125 10.505 24.053125 10 25 C7.07059395 23.66670359 4.95517508 22.13155909 2.5625 20 C-2.77847728 15.91747191 -8.48599254 15.68725767 -15 15 C-17.25270042 14.68543373 -19.50301683 14.35309736 -21.75 14 C-22.73484375 13.855625 -23.7196875 13.71125 -24.734375 13.5625 C-25.48203125 13.376875 -26.2296875 13.19125 -27 13 C-28.35439668 10.29120665 -28.06501451 7.99066732 -28 5 C-27.20335937 4.97421875 -26.40671875 4.9484375 -25.5859375 4.921875 C-15.91011349 4.40394768 -9.75585627 -1.47542271 0 0 Z " fill="#E8CB3B" transform="translate(191,73)"/>
<path d="M0 0 C104.94 0 209.88 0 318 0 C317.67 0.99 317.34 1.98 317 3 C316.34 2.67 315.68 2.34 315 2 C313.30483051 1.90505174 311.60590179 1.87445153 309.90807533 1.87415886 C308.82322401 1.87155111 307.73837268 1.86894336 306.62064707 1.86625659 C305.41911631 1.86848732 304.21758556 1.87071804 302.97964478 1.87301636 C301.7107734 1.87145637 300.44190203 1.86989638 299.13458002 1.86828911 C295.60092282 1.86409666 292.06729246 1.86618612 288.53363514 1.86927533 C284.7271487 1.87152959 280.92066702 1.86804966 277.11418152 1.86529541 C269.65209823 1.86083875 262.19002498 1.8618138 254.72794129 1.86470805 C248.66442518 1.86696283 242.60091189 1.86727428 236.53739548 1.86618423 C235.675684 1.866031 234.81397253 1.86587777 233.92614859 1.86571989 C232.17578758 1.86540018 230.42542657 1.86507597 228.67506556 1.8647473 C212.24453869 1.86189273 195.8140174 1.865179 179.38349144 1.87054767 C165.27746806 1.8750141 151.17145292 1.87424106 137.06542969 1.86962891 C120.69837253 1.86428001 104.33132027 1.86216909 87.96426237 1.86524117 C86.21958693 1.86555973 84.47491149 1.8658741 82.73023605 1.86618423 C81.44250785 1.86641565 81.44250785 1.86641565 80.12876493 1.86665174 C74.07174934 1.86751606 68.01473683 1.86605579 61.95772171 1.86370468 C54.57720187 1.86090293 47.19669266 1.86165285 39.81617405 1.86698543 C36.04866291 1.86961759 32.28116953 1.87063569 28.51365852 1.86733627 C24.43386433 1.86381737 20.35411514 1.86801283 16.27432251 1.87301636 C14.47871854 1.86967027 14.47871854 1.86967027 12.64683974 1.86625659 C11.55677292 1.86886434 10.4667061 1.87147209 9.34360695 1.87415886 C8.40146579 1.87432121 7.45932464 1.87448356 6.48863375 1.87465084 C4.18016762 1.9909252 2.21009515 2.34714947 0 3 C0 2.01 0 1.02 0 0 Z " fill="#FEFDFD" transform="translate(0,0)"/>
<path d="M0 0 C3.63525215 2.60789828 4.83397068 4.0702358 5.625 8.5 C4.82883761 12.95850936 3.69186542 14.40783917 0 17 C-3.5 17.625 -3.5 17.625 -7 17 C-10.38677089 14.54999553 -11.78698584 13.13607554 -12.5625 9 C-11.87642343 5.34092496 -10.57265686 3.64832324 -8 1 C-5.11138291 -0.44430855 -3.20352299 -0.37688506 0 0 Z " fill="#E8CE37" transform="translate(90,53)"/>
<path d="M0 0 C2.91674571 2.59353875 3.71773483 4.61389323 4.05859375 8.56640625 C3.83995685 17.64712567 0.34484141 25.76686132 -5 33 C-5.33 33 -5.66 33 -6 33 C-6.07347656 31.46279297 -6.07347656 31.46279297 -6.1484375 29.89453125 C-6.22351071 28.5338294 -6.29905655 27.17315356 -6.375 25.8125 C-6.42140625 24.80219727 -6.42140625 24.80219727 -6.46875 23.77148438 C-6.65278172 20.62760924 -6.86473913 18.26408075 -8.3125 15.4375 C-9 13 -9 13 -7.2265625 9.66796875 C-6.37778876 8.49427381 -5.50973469 7.33433095 -4.625 6.1875 C-4.18671875 5.59001953 -3.7484375 4.99253906 -3.296875 4.37695312 C-2.21416062 2.9058738 -1.10915357 1.45124883 0 0 Z " fill="#EDE4D0" transform="translate(226,108)"/>
<path d="M0 0 C1.51531689 2.01444494 2.85928795 3.99244313 4.1875 6.125 C4.56841797 6.69476563 4.94933594 7.26453125 5.34179688 7.8515625 C7.30415092 10.98563067 8.02274938 12.70188121 7.73828125 16.4296875 C7.49464844 17.27789062 7.25101563 18.12609375 7 19 C4.1875 19.6875 4.1875 19.6875 1 20 C-1.83791826 17.87156131 -2.91273988 15.31045203 -4.1875 12.0625 C-4.53167969 11.20785156 -4.87585938 10.35320312 -5.23046875 9.47265625 C-6 7 -6 7 -6 3 C-2.78571429 0 -2.78571429 0 0 0 Z " fill="#40394C" transform="translate(234,104)"/>
<path d="M0 0 C0.99 0.33 1.98 0.66 3 1 C4.71887413 1.08612902 6.44096898 1.11331001 8.1619873 1.10679626 C9.76456642 1.10452278 9.76456642 1.10452278 11.39952087 1.10220337 C12.5715657 1.095466 13.74361053 1.08872864 14.95117188 1.08178711 C16.80265587 1.07718727 16.80265587 1.07718727 18.69154358 1.07249451 C21.37618589 1.06533143 24.06075689 1.05638471 26.74537659 1.04459953 C30.98905718 1.02631702 35.23272966 1.01671069 39.47644043 1.00868225 C51.5437372 0.984522 63.61098462 0.94862 75.67822266 0.90405273 C82.34299542 0.87951484 89.0077489 0.86214703 95.67256021 0.85249335 C99.89254915 0.8459446 104.11237935 0.83037395 108.33231354 0.80817592 C111.57113912 0.79370945 114.80997491 0.79226691 118.04882812 0.78881836 C119.22087296 0.78005676 120.39291779 0.77129517 121.60047913 0.76226807 C123.20305824 0.76422432 123.20305824 0.76422432 124.8380127 0.76622009 C125.76789253 0.76307769 126.69777237 0.75993528 127.65583038 0.75669765 C130 1 130 1 133 3 C87.79 3 42.58 3 -4 3 C-2.68 2.01 -1.36 1.02 0 0 Z " fill="#DBD7D3" transform="translate(107,316)"/>
<path d="M0 0 C1.24546405 2.49092811 0.7767578 3.41080733 0 6 C0.5775 6.268125 1.155 6.53625 1.75 6.8125 C4 8 4 8 5.9375 9.625 C8.46559669 11.31039779 10.02167594 11.24819367 13 11 C11.9375 12.5 11.9375 12.5 10 14 C5.58944623 14.65341537 3.7093998 14.51318284 0.0625 11.875 C-2.34355123 8.52111041 -2.61420709 7.03621805 -2 3 C-1.34 2.01 -0.68 1.02 0 0 Z " fill="#E3CF67" transform="translate(80,56)"/>
<path d="M0 0 C4.59306496 1.4859916 7.43569245 3.85014682 11 7 C9.94124926 10.40312738 8.99097846 13.01353231 7 16 C6.34 16 5.68 16 5 16 C5.4021875 14.39125 5.4021875 14.39125 5.8125 12.75 C5.874375 11.5125 5.93625 10.275 6 9 C3.65653729 6.82522428 3.65653729 6.82522428 1 5 C0.1875 2.25 0.1875 2.25 0 0 Z " fill="#3C2E32" transform="translate(188,90)"/>
<path d="M0 0 C3.125 0.5 3.125 0.5 6 2.5625 C8.6209561 6.18558638 8.70355736 8.1194943 8.125 12.5 C7.465 13.16 6.805 13.82 6.125 14.5 C6.0425 13.22125 5.96 11.9425 5.875 10.625 C5.54705431 7.41054735 5.54705431 7.41054735 3.5 5.0625 C0.39186593 4.32636298 -2.70320636 3.86597619 -5.875 3.5 C-4.03615216 1.04820288 -3.07235411 0.53432245 0 0 Z " fill="#E2D26B" transform="translate(86.875,52.5)"/>
<path d="M0 0 C2.9375 0.75 2.9375 0.75 6 2 C7.406617 4.90700847 7.04092665 5.87722005 6 9 C3.625 8.8125 3.625 8.8125 1 8 C-0.375 5.625 -0.375 5.625 -1 3 C-0.67 2.01 -0.34 1.02 0 0 Z " fill="#BDBAAB" transform="translate(273,102)"/>
<path d="M0 0 C1.6266848 0.28211877 3.25132896 0.57602375 4.875 0.875 C5.77992188 1.03742188 6.68484375 1.19984375 7.6171875 1.3671875 C10 2 10 2 12 4 C10.68 4.99 9.36 5.98 8 7 C8 5.68 8 4.36 8 3 C6.081875 3.2475 6.081875 3.2475 4.125 3.5 C-0.9284158 4.07041736 -5.92062649 4.09543708 -11 4 C-11 3.67 -11 3.34 -11 3 C-5.555 2.505 -5.555 2.505 0 2 C0 1.34 0 0.68 0 0 Z " fill="#E2BF50" transform="translate(194,111)"/>
<path d="M0 0 C2.56630083 0.54195173 3.82007286 0.83868602 5.8125 2.625 C7.49565719 5.99131438 6.76115885 8.4017945 6 12 C4 8 2 4 0 0 Z " fill="#8E696C" transform="translate(238,111)"/>
<path d="M0 0 C1.33251874 2.66503748 1.01132019 5.03565201 0.96875 7.95703125 C1.00601099 10.39296825 1.40998327 12.63993309 2 15 C0 13.4375 0 13.4375 -2 11 C-2.45652447 6.73910491 -2.33573034 3.64957865 0 0 Z " fill="#E1CF62" transform="translate(158,122)"/>
<path d="M0 0 C0.33 0.66 0.66 1.32 1 2 C-0.32 2 -1.64 2 -3 2 C-3.0825 2.763125 -3.165 3.52625 -3.25 4.3125 C-4.14615794 7.52373261 -5.21611025 8.29374499 -8 10 C-7.34938905 8.32700041 -6.67966676 6.66140763 -6 5 C-5.71125 4.2575 -5.4225 3.515 -5.125 2.75 C-4 1 -4 1 -1.875 0.25 C-1.25625 0.1675 -0.6375 0.085 0 0 Z " fill="#98673C" transform="translate(192,128)"/>
<path d="M0 0 C0.99 0.66 1.98 1.32 3 2 C1.94124926 5.40312738 0.99097846 8.01353231 -1 11 C-1.66 11 -2.32 11 -3 11 C-2.690625 10.113125 -2.38125 9.22625 -2.0625 8.3125 C-1.1709329 5.53290845 -0.50622993 2.86863625 0 0 Z " fill="#4A3B37" transform="translate(196,95)"/>
<path d="M0 0 C0.66 0.66 1.32 1.32 2 2 C0.93283928 3.20205464 -0.15438337 4.38632333 -1.25 5.5625 C-2.15492187 6.55443359 -2.15492187 6.55443359 -3.078125 7.56640625 C-5 9 -5 9 -7.234375 8.71484375 C-7.81703125 8.47894531 -8.3996875 8.24304688 -9 8 C-7.88625 7.4121875 -7.88625 7.4121875 -6.75 6.8125 C-3.80216929 4.86961158 -2.06901389 2.83531533 0 0 Z " fill="#DDDCD7" transform="translate(121,298)"/>
<path d="M0 0 C0 3 0 3 -2.3125 5.6875 C-5 8 -5 8 -8 8 C-5.36 5.36 -2.72 2.72 0 0 Z " fill="#91603D" transform="translate(205,115)"/>
<path d="M0 0 C2.9375 0.75 2.9375 0.75 6 2 C6.875 4.125 6.875 4.125 7 6 C6.34 5.34 5.68 4.68 5 4 C1.90073181 4.32198966 1.90073181 4.32198966 -1 5 C-0.67 3.35 -0.34 1.7 0 0 Z " fill="#8A8778" transform="translate(273,102)"/>
<path d="M0 0 C0.66 0.33 1.32 0.66 2 1 C2 3 2 3 -0.3125 5.625 C-3 8 -3 8 -6 8 C-4.02 5.36 -2.04 2.72 0 0 Z " fill="#E7CECB" transform="translate(226,108)"/>
</svg>
