<?xml version="1.0" encoding="UTF-8"?>
<svg version="1.1" xmlns="http://www.w3.org/2000/svg" width="1024" height="1024">
<path d="M0 0 C337.92 0 675.84 0 1024 0 C1024 337.92 1024 675.84 1024 1024 C686.08 1024 348.16 1024 0 1024 C0 686.08 0 348.16 0 0 Z " fill="#060505" transform="translate(0,0)"/>
<path d="M0 0 C337.92 0 675.84 0 1024 0 C1024 337.92 1024 675.84 1024 1024 C986.71 1024 949.42 1024 911 1024 C909.68 1011.79 908.36 999.58 907 987 C905.78907368 979.28034471 904.57562898 971.6410894 903 964 C902.85095215 963.27119629 902.7019043 962.54239258 902.54833984 961.79150391 C894.58261761 923.73695655 880.12021551 887.20020911 861.6940918 853.05419922 C861.22269775 852.17908691 860.75130371 851.30397461 860.265625 850.40234375 C859.85086914 849.64429443 859.43611328 848.88624512 859.00878906 848.10522461 C858.03442617 846.07184339 857.45746853 844.20164519 857 842 C858.11632812 841.42894531 859.23265625 840.85789062 860.3828125 840.26953125 C888.24533998 825.88439692 916.09343162 809.64125318 939 788 C940.32861796 786.84870242 941.66184718 785.70270122 943 784.5625 C960.57039261 769.09634602 977.09397166 748.76431564 984 726 C984.44279297 724.56333984 984.44279297 724.56333984 984.89453125 723.09765625 C987.81486512 711.8830408 987.41103052 700.50044909 987 689 C986.9789621 688.35270935 986.95792419 687.7054187 986.93624878 687.03851318 C986.51895766 675.0603969 985.03906488 663.43713128 983.0625 651.625 C982.7940704 649.97800313 982.52649038 648.33086757 982.25976562 646.68359375 C981.99741963 645.07291279 981.73505026 643.46223564 981.47265625 641.8515625 C981.34793945 641.08020966 981.22322266 640.30885681 981.09472656 639.51412964 C980.53480151 636.08814364 979.93657455 632.68832211 979.24414062 629.28564453 C979.03080078 628.21685059 978.81746094 627.14805664 978.59765625 626.046875 C978.40051025 625.1403418 978.20336426 624.23380859 978.00024414 623.29980469 C978 621 978 621 979.52368164 619.06884766 C981.375 617.625 981.375 617.625 983.3984375 616.4765625 C985.26753916 615.06154392 985.26753916 615.06154392 985.3984375 612.3984375 C984.88597125 608.02740187 983.67985943 604.15115318 982.25 600 C981.78907959 598.64551758 981.78907959 598.64551758 981.31884766 597.26367188 C971.65624017 569.44355017 959.35320532 542.69930647 947 516 C948.04377808 515.60131714 948.04377808 515.60131714 949.10864258 515.19458008 C957.66253609 511.90187149 964.51536457 509.098112 969.25 500.8125 C971.41611084 492.68958436 969.96192479 486.22961503 966 479 C965.45988281 478.07703125 964.91976562 477.1540625 964.36328125 476.203125 C963.81027344 475.24921875 963.25726562 474.2953125 962.6875 473.3125 C962.15511719 472.44238281 961.62273438 471.57226562 961.07421875 470.67578125 C959.71894778 467.29992447 960.05039368 465.4772349 961 462 C961.97265625 459.9375 961.97265625 459.9375 963.0625 458 C966.13762028 451.34287148 966.21681833 443.66193523 964.375 436.60546875 C959.08940085 424.64208138 946.35811134 417.86012427 934.75 413.2578125 C928.88309775 411.0380071 922.95048278 409.00649339 917.01416016 406.98144531 C872.0739785 391.60513648 872.0739785 391.60513648 862.328125 373.7734375 C855.86872031 360.28468065 853.07972099 345.54928656 850 331 C849.82975311 330.29123215 849.65950623 329.58246429 849.48410034 328.85221863 C847.8948373 321.82119349 847.68779854 315.02197118 847.65625 307.83203125 C847.62786479 305.23885073 847.59946243 302.6456704 847.57104492 300.05249023 C847.55934104 298.69270105 847.54798229 297.33290886 847.53695679 295.97311401 C847.47805244 288.96867965 847.37388097 281.96481809 847.26953125 274.9609375 C847.25935785 274.26777624 847.24918446 273.57461498 847.23870277 272.86044884 C847.09987712 236.68378713 847.09987712 236.68378713 841.51464844 201.07275391 C841.01218257 199.04906549 840.56786099 197.01957018 840.1328125 194.98046875 C836.24044868 178.25708259 827.97693095 162.36998103 814 152 C804.80263419 146.36454626 795.14607902 142.8253748 784.3125 143.1875 C781.578125 142.9921875 781.578125 142.9921875 779 142 C776.3373344 138.85070931 774.39691739 135.53891747 772.359375 131.96875 C759.05730088 108.80909115 733.98495844 94.40515602 709 87.3125 C708.28875977 87.10987549 707.57751953 86.90725098 706.84472656 86.69848633 C696.36720302 83.85617941 686.09793951 82.6322942 675.25 82.6875 C674.11546387 82.69168945 672.98092773 82.69587891 671.81201172 82.70019531 C645.35565109 83.05430294 622.0699147 92.72752973 602.8125 110.75 C589.12964216 125.18339435 582.07818025 141.77116087 578 161 C577.823479 161.77698242 577.64695801 162.55396484 577.46508789 163.35449219 C576.58209961 168.37709638 576.81536549 173.47625725 576.8125 178.5625 C576.80025391 179.67947266 576.78800781 180.79644531 576.77539062 181.94726562 C576.76404006 188.47383913 577.24450325 194.57300013 578.5690918 200.96850586 C579.75457701 209.30854544 578.50907024 217.13501985 577.06640625 225.375 C576.77031715 227.12176025 576.77031715 227.12176025 576.46824646 228.90380859 C575.83994878 232.60376486 575.20175428 236.30192245 574.5625 240 C573.92850559 243.69834094 573.29665062 247.39702929 572.66746521 251.09619141 C572.27664699 253.39067958 571.88281884 255.68465782 571.48548889 257.97802734 C566.63410787 286.29775554 566.93259698 316.61586073 583.875 341.1875 C588.73612086 347.29037252 594.50773329 352.67182219 601 357 C596.45293647 372.16579423 588.08981166 385.74216089 577 397 C575.73542969 398.28583984 575.73542969 398.28583984 574.4453125 399.59765625 C564.7282162 408.48387041 551.48400525 415.83866492 539 420 C538.99826375 419.12648425 538.9965275 418.2529685 538.99473864 417.35298258 C538.8918219 365.63857159 538.78373362 313.92417363 538.66888306 262.2097877 C538.65511266 256.00729019 538.64138569 249.80479259 538.62768555 243.60229492 C538.62359309 241.75000254 538.62359309 241.75000254 538.61941796 239.8602901 C538.57528299 219.83737172 538.53467007 199.81444764 538.49534739 179.79151929 C538.45495297 159.26257045 538.41080004 138.73363221 538.36312145 118.20469898 C538.33379535 105.52630343 538.30743873 92.84790872 538.28482103 80.16949939 C538.26905365 71.48811634 538.24965202 62.80674627 538.22733159 54.1253776 C538.21454249 49.10866924 538.20341399 44.09197094 538.19658089 39.07525063 C538.19030092 34.49044933 538.17949998 29.90568267 538.1649667 25.32090031 C538.1605075 23.65467926 538.15776652 21.98845263 538.15683801 20.32222588 C538.15534336 18.07245042 538.14782015 15.82277719 538.1386652 13.57302189 C538.13600716 12.31880564 538.13334911 11.06458939 538.13061053 9.77236658 C538.31599692 7.09164779 538.31599692 7.09164779 537 6 C534.54565925 5.90028877 532.11941691 5.86637427 529.66452026 5.87415886 C528.88363737 5.87270542 528.10275448 5.87125198 527.29820848 5.86975449 C524.64784269 5.86606775 521.99753346 5.8695932 519.34716797 5.87301636 C517.44135953 5.87186559 515.53555132 5.87027837 513.62974358 5.86828911 C508.36640048 5.86408965 503.10307536 5.86618925 497.83973217 5.86927533 C492.17369142 5.87152672 486.50765389 5.86805113 480.84161377 5.86529541 C469.73144363 5.8608359 458.62128023 5.86181498 447.51110983 5.86470805 C438.48606403 5.86696138 429.46102012 5.86727491 420.43597412 5.86618423 C418.5132851 5.86595439 418.5132851 5.86595439 416.55175388 5.86571989 C413.94826714 5.86540018 411.3447804 5.86507597 408.74129367 5.8647473 C384.99428439 5.86197347 361.2472792 5.86485584 337.50027058 5.8700899 C315.80291279 5.87483582 294.10556086 5.8744112 272.40820312 5.86962891 C248.05434878 5.86427909 223.70049843 5.86216667 199.34664345 5.86524117 C196.75243759 5.86555974 194.15823174 5.86587411 191.56402588 5.86618423 C190.28744264 5.86633851 189.01085939 5.86649279 187.69559181 5.86665174 C178.67562079 5.86751716 169.65565185 5.86605347 160.63568115 5.86370468 C149.65163299 5.86090748 138.66759197 5.86164325 127.68354464 5.86698543 C122.0734216 5.86962352 116.46331052 5.87062569 110.85318756 5.86733627 C105.72626171 5.86437552 100.59935897 5.8659624 95.47243524 5.87131383 C93.60906823 5.87243896 91.74569931 5.87184472 89.88233352 5.86943804 C87.36668706 5.86643594 84.8511218 5.86947655 82.33547974 5.87415886 C81.597185 5.87181769 80.85889027 5.86947653 80.09822297 5.86706442 C76.76497886 5.58776362 76.76497886 5.58776362 74 7 C73.89586496 9.84431454 73.85794738 12.66458661 73.8613348 15.50957584 C73.85849258 16.41738636 73.85565036 17.32519687 73.85272202 18.26051679 C73.84431288 21.34263714 73.84310198 24.42472022 73.84178162 27.5068512 C73.83722049 29.72273297 73.83222114 31.93861387 73.82681805 34.15449375 C73.81317633 40.27487764 73.80580122 46.39525595 73.79939139 52.51565111 C73.79223189 58.42836199 73.78040529 64.34106222 73.76867336 70.25376552 C73.74482585 82.35448548 73.72563727 94.45520869 73.70907402 106.55594063 C73.69265147 118.54283659 73.67417653 130.52972647 73.65294075 142.51661491 C73.65162314 143.2610144 73.65030554 144.00541388 73.648948 144.77237092 C73.64224622 148.55256613 73.63550758 152.33276128 73.62875474 156.1129564 C73.58095014 182.91082897 73.53777708 209.70870722 73.49731445 236.5065918 C73.45798701 262.54565849 73.41656995 288.58472049 73.37231445 314.6237793 C73.37095192 315.4259558 73.36958939 316.22813229 73.36818558 317.05461717 C73.35450059 325.11016338 73.34077301 333.16570951 73.32701423 341.22125559 C73.29898523 357.6323615 73.27124051 374.0434679 73.2436676 390.45457458 C73.2423994 391.20918485 73.2411312 391.96379511 73.23982458 392.74127235 C73.15512198 443.16084062 73.07706776 493.58041954 73 544 C77.73855542 543.39449958 81.19293993 542.69109692 85.34375 540.296875 C86.33036621 539.73556885 87.31698242 539.1742627 88.33349609 538.59594727 C89.90091553 537.68220337 89.90091553 537.68220337 91.5 536.75 C93.15443115 535.80435181 93.15443115 535.80435181 94.84228516 534.83959961 C97.12686221 533.53335716 99.40891776 532.22269518 101.68847656 530.90771484 C106.5676258 528.09691625 111.47120448 525.32999283 116.375 522.5625 C117.30296387 522.03696533 118.23092773 521.51143066 119.18701172 520.9699707 C124.34731444 518.04973451 129.51865376 515.15056679 134.703125 512.2734375 C135.84273682 511.64091064 136.98234863 511.00838379 138.15649414 510.35668945 C140.45512278 509.08481504 142.75637077 507.81766223 145.06030273 506.55541992 C150.45016537 503.59082074 155.75883377 500.56816976 160.95703125 497.27734375 C174.13090972 489.03317912 174.13090972 489.03317912 179.9609375 488.9296875 C182.93633527 489.65793171 185.34828562 490.48473464 188 492 C187.09360484 504.65096218 187.09360484 504.65096218 186.4375 509 C185.32809838 517.72729276 184.41562071 526.65791444 190 534 C192.22712063 536.21531661 192.22712063 536.21531661 195 538 C204.78771351 544.81423093 210.70048862 552.43015062 216.0625 563.0625 C216.84500122 564.59366455 216.84500122 564.59366455 217.64331055 566.15576172 C221.57574358 573.94676771 225.12326457 581.75229593 228 590 C228.27650391 590.79083984 228.55300781 591.58167969 228.83789062 592.39648438 C232.62396935 603.3257966 236.10326657 614.33549851 239.27392578 625.45800781 C240.12271678 628.42963251 240.98144548 631.398324 241.83984375 634.3671875 C245.17145173 645.92514834 248.42108961 657.49709669 251.5 669.125 C254.69882328 681.17466812 258.31276547 693.07809135 262.05297852 704.96948242 C263.02231229 708.07140048 263.96849792 711.17982507 264.9140625 714.2890625 C271.06709427 734.29275218 277.66043112 754.23398253 287 773 C287.3412793 773.69351563 287.68255859 774.38703125 288.03417969 775.1015625 C296.44798161 792.04188714 307.79883886 809.10199302 325 818 C325.79148437 818.43183594 326.58296875 818.86367188 327.3984375 819.30859375 C340.8344479 825.43321048 359.20705213 822.67135818 373 819 C373.6909375 818.81727539 374.381875 818.63455078 375.09375 818.44628906 C407.37227366 809.54338104 436.81533374 787.5981384 458 762 C458.88276541 760.99895782 459.76846854 760.00050259 460.65625 759.00390625 C477.31488823 740.18454707 491.72984861 718.4555648 503 696 C503.66 696 504.32 696 505 696 C505.79715964 698.93610324 506.58778931 701.87372749 507.375 704.8125 C507.59671875 705.62654297 507.8184375 706.44058594 508.046875 707.27929688 C511.08763751 718.68215627 512.35872608 729.29762328 512.3125 741.125 C512.31233887 741.80875702 512.31217773 742.49251404 512.31201172 743.19699097 C512.29675064 752.51946473 511.61592362 761.29790341 509.68359375 770.4140625 C507.8503717 780.03062161 507.89399079 789.43078454 513 798 C516.83486008 803.24523491 516.83486008 803.24523491 522 807 C520.89936047 810.57707847 519.58928555 813.93230311 518 817.3125 C515.62114463 822.61849712 514.0696417 827.82433857 513.94140625 833.671875 C513.77730423 840.81513945 511.82472522 845.91444435 508.49975586 852.10302734 C487.30334198 892.17930714 477.12754671 940.37121442 469.625 984.8125 C469.50357635 985.51984283 469.38215271 986.22718567 469.25704956 986.95596313 C467.15992167 999.29369593 466.1381717 1011.48011128 465 1024 C311.55 1024 158.1 1024 0 1024 C0 686.08 0 348.16 0 0 Z " fill="#FAFAFA" transform="translate(0,0)"/>
<path d="M0 0 C149.82 0 299.64 0 454 0 C454.226875 68.124375 454.45375 136.24875 454.6875 206.4375 C454.83771606 238.73516235 454.83771606 238.73516235 454.9909668 271.68530273 C455.04064941 297.9239502 455.04064941 297.9239502 455.04988098 310.19691467 C455.06015342 318.79185443 455.10056215 327.38601079 455.16133118 335.98072815 C455.23129109 345.8899646 455.26320996 355.79844778 455.24789445 365.70793313 C455.24125945 370.77879177 455.25186507 375.8479664 455.31136644 380.91851699 C455.36485423 385.50443311 455.36759865 390.08747343 455.32991219 394.67352104 C455.32524786 396.33080665 455.33920192 397.98827176 455.37370837 399.64520466 C455.61735811 412.07572287 455.61735811 412.07572287 451.5483433 416.91689694 C448.79543188 419.16017872 445.96735401 421.05846206 443 423 C441.27271475 424.99165582 440.26620735 426.84185088 439 429.1875 C435.64469645 434.58872034 432.60642137 436.83632973 426.92578125 439.5234375 C409.39677549 448.36985162 394.65041653 465.31736746 383.12109375 480.95019531 C380.19023321 484.90488339 380.19023321 484.90488339 378 486 C375.53930664 484.8828125 375.53930664 484.8828125 372.41015625 483.125 C371.84262634 482.80918976 371.27509644 482.49337952 370.69036865 482.16799927 C368.81014441 481.11943833 366.93644875 480.05972914 365.0625 479 C363.75328384 478.26728766 362.44362639 477.53536328 361.13354492 476.80419922 C358.42469994 475.29103235 355.71827368 473.77366722 353.01367188 472.25292969 C348.09340041 469.48805074 343.15754313 466.75161148 338.22143555 464.01513672 C334.84524632 462.1431567 331.47114396 460.26746833 328.09765625 458.390625 C324.44049684 456.35629833 320.78219876 454.3240921 317.12109375 452.296875 C309.03792153 447.81963164 300.97920456 443.30134613 292.9375 438.75 C275.24466335 428.73909284 257.5536227 418.73732055 239.61352539 409.17382812 C238.6724292 408.66916016 237.73133301 408.16449219 236.76171875 407.64453125 C235.93631592 407.20471924 235.11091309 406.76490723 234.26049805 406.31176758 C232 405 232 405 230.01489258 403.2722168 C228.06026346 401.76809073 228.06026346 401.76809073 225.61572266 402.1171875 C222.55346089 403.15070799 219.95300913 404.51594524 217.1484375 406.125 C216.05015625 406.74890625 214.951875 407.3728125 213.8203125 408.015625 C212.68335938 408.67046875 211.54640625 409.3253125 210.375 410 C208.11324714 411.29388565 205.85028218 412.5856555 203.5859375 413.875 C202.5861084 414.44992187 201.5862793 415.02484375 200.55615234 415.6171875 C198 417 198 417 195 418 C194.68482422 416.75476563 194.68482422 416.75476563 194.36328125 415.484375 C190.81425627 402.87148327 185.22053311 391.27143699 179.59661865 379.47914124 C177.10896902 374.25654013 174.70626761 368.99723187 172.31298828 363.73071289 C156.44747869 324.76903286 156.44747869 324.76903286 130 294 C125.91518686 293.41052089 125.91518686 293.41052089 122 294 C117.0205601 298.4261688 114.4688456 303.88957284 113.71484375 310.5 C113.31289693 322.52345282 117.29453563 333.48489914 121.75024414 344.46484375 C124.11457306 350.48746279 124.04485922 353.79502943 121.5 359.75 C120.31089911 362.78068278 119.71694738 365.5272023 119.40625 368.765625 C119.32697266 369.56258789 119.24769531 370.35955078 119.16601562 371.18066406 C119.11123047 371.78104492 119.05644531 372.38142578 119 373 C117.68644531 372.94199219 116.37289062 372.88398438 115.01953125 372.82421875 C113.28388977 372.77730952 111.54820977 372.73181061 109.8125 372.6875 C108.94818359 372.64560547 108.08386719 372.60371094 107.19335938 372.56054688 C102.88314019 372.47797563 100.70275817 372.48899031 97.13671875 375.08203125 C91.9083547 382.22204577 90.09815743 387.85844212 88.84179688 396.50390625 C87.78456981 402.28211502 87.78456981 402.28211502 85.40869141 404.45605469 C84.17655803 405.26754648 82.93301757 406.06199372 81.6784668 406.83837891 C78.87846501 408.77618378 78.06443447 410.81424576 77 414 C76.5648137 417.25034228 76.44481694 420.4735908 76.375 423.75 C76.32408096 425.45324183 76.26956952 427.15638123 76.2109375 428.859375 C76.18459229 429.98037598 76.18459229 429.98037598 76.15771484 431.12402344 C76 433 76 433 75 435 C74.21698204 445.6266723 73.93140996 455.77040811 80 465 C83.11852373 468.59939533 86.4222195 471.85988974 90 475 C89 478 89 478 87.32373047 479.14404297 C86.59557129 479.50643066 85.86741211 479.86881836 85.1171875 480.2421875 C84.29130127 480.66185791 83.46541504 481.08152832 82.61450195 481.51391602 C81.71046631 481.96307373 80.80643066 482.41223145 79.875 482.875 C71.91580952 486.93169925 64.07344101 491.13794063 56.3125 495.5625 C55.34489746 496.11341309 54.37729492 496.66432617 53.38037109 497.23193359 C51.47687157 498.31592885 49.57354652 499.40023055 47.67041016 500.48486328 C43.79515299 502.68360583 39.89932201 504.84430958 36 507 C27.83940927 511.51446921 19.72217834 516.1043267 11.61328125 520.7109375 C10.68128906 521.23945312 9.74929687 521.76796875 8.7890625 522.3125 C7.96100098 522.78300781 7.13293945 523.25351562 6.27978516 523.73828125 C4.21598909 524.88046352 2.10975535 525.94512233 0 527 C0 353.09 0 179.18 0 0 Z " fill="#F7A647" transform="translate(79,11)"/>
<path d="M0 0 C13.76920278 1.13699929 27.38623781 3.70310117 41 6 C41.99547852 6.16371094 42.99095703 6.32742188 44.01660156 6.49609375 C79.26385681 12.37280322 110.87610698 27.35094205 132 56.875 C139.09633437 67.12461074 145.12974398 78.01571186 151 89 C151.48936035 89.91539551 151.9787207 90.83079102 152.48291016 91.77392578 C167.73939209 120.63991241 181.42875029 151.70694464 190.88671875 182.9921875 C191.28250122 184.29325439 191.28250122 184.29325439 191.6862793 185.62060547 C192.06844736 188.51913461 191.65226209 189.61638289 190 192 C188.48217773 193.32104492 188.48217773 193.32104492 186.68359375 194.48046875 C185.67522461 195.13607788 185.67522461 195.13607788 184.64648438 195.80493164 C183.91751953 196.2611792 183.18855469 196.71742676 182.4375 197.1875 C181.67373047 197.67017334 180.90996094 198.15284668 180.12304688 198.65014648 C165.31272514 207.88834327 150.01904919 214.7293424 133.71533203 220.953125 C131.56743388 221.78123031 129.43491634 222.64921989 127.30859375 223.53125 C109.91911643 230.46039039 89.70117914 234.46145249 71 233 C70.82460693 232.36312256 70.64921387 231.72624512 70.46850586 231.07006836 C67.281357 219.52426799 64.04534722 208.00398164 60.5 196.5625 C55.44384643 180.19604076 51.11081101 163.626564 47 147 C45.68 147 44.36 147 43 147 C45.94335574 159.43156463 49.47429807 171.66022276 53.09472656 183.90893555 C54.40919319 188.39719388 55.68460952 192.89641098 56.96484375 197.39453125 C58.00499212 201.01738766 59.06970472 204.6322246 60.140625 208.24609375 C60.84375 210.64322917 61.546875 213.04036458 62.25 215.4375 C62.79527344 217.25797852 62.79527344 217.25797852 63.3515625 219.11523438 C63.86589844 220.88157227 63.86589844 220.88157227 64.390625 222.68359375 C64.8551709 224.25451782 64.8551709 224.25451782 65.32910156 225.85717773 C66.36084398 230.69037286 66.33694557 235.33200853 65.265625 240.15234375 C65.10553955 240.91297119 64.9454541 241.67359863 64.78051758 242.45727539 C64.60544678 243.27574951 64.43037598 244.09422363 64.25 244.9375 C62.32957563 254.42680884 60.99553434 263.95944516 59.8125 273.5625 C59.72818726 274.24005341 59.64387451 274.91760681 59.55700684 275.61569214 C56.26669019 302.19953414 54.40853514 328.56358158 63.140625 354.37109375 C65.04314228 360.19106708 64.67194142 366.05105636 62.5 371.75 C59.91907933 376.60306689 56.89111464 379.47225442 52 382 C47.06750215 383.36360185 42.0692226 384.00448248 37 384.625 C35.5024458 384.82474396 34.00505304 385.02570153 32.5078125 385.2277832 C27.67723055 385.86594432 22.84037004 386.44148661 18 387 C17.18337891 387.09452454 16.36675781 387.18904907 15.52539062 387.28643799 C9.68724711 387.95625454 3.84533459 388.58386775 -2 389.1875 C-2.75200684 389.26631409 -3.50401367 389.34512817 -4.27880859 389.42633057 C-10.17958535 390.03521511 -16.08587254 390.53969786 -22 391 C-23.12422363 391.08860291 -24.24844727 391.17720581 -25.40673828 391.26849365 C-49.78820836 393.11710194 -74.12491098 393.31314902 -98.56738281 393.26074219 C-103.92500512 393.24934862 -109.28242867 393.25613267 -114.64004421 393.26761818 C-139.16866574 393.31228172 -163.53984894 392.90235649 -188 391 C-189.5882962 390.87951294 -189.5882962 390.87951294 -191.2086792 390.7565918 C-197.45800922 390.27525831 -203.69841358 389.72372261 -209.9375 389.125 C-210.82915863 389.04106995 -211.72081726 388.95713989 -212.63949585 388.8706665 C-261.77993777 384.22006223 -261.77993777 384.22006223 -269 377 C-275.52610576 367.35340193 -277.41803121 359.88985969 -275.328125 348.26171875 C-275.1945459 347.59720703 -275.0609668 346.93269531 -274.92333984 346.24804688 C-271.07856355 326.96651592 -271.36158979 306.11456485 -276 287 C-276.20496094 285.98164062 -276.40992188 284.96328125 -276.62109375 283.9140625 C-278.75353989 274.0332872 -283.02044204 264.87644999 -287.02294922 255.63916016 C-300.70910698 223.91127817 -303.24107588 194.15853939 -290.47607422 161.62353516 C-288.77760502 157.42402339 -287.0283632 153.24692339 -285.27099609 149.07177734 C-283.24308142 144.17065894 -281.36861042 139.21359199 -279.5 134.25 C-278.86477523 132.56763586 -278.22937307 130.88533869 -277.59375 129.203125 C-277.3138623 128.45595215 -277.03397461 127.7087793 -276.74560547 126.93896484 C-276.17714619 125.46067289 -275.55688454 124.00219324 -274.9140625 122.5546875 C-273.43947051 118.43339194 -272.70599754 114.16540952 -271.875 109.875 C-271.69324219 108.96878906 -271.51148438 108.06257812 -271.32421875 107.12890625 C-270.32268986 102.10191654 -270.32268986 102.10191654 -270 97 C-270.99 97 -271.98 97 -273 97 C-273.12938965 97.62640381 -273.2587793 98.25280762 -273.39208984 98.89819336 C-276.7188019 114.63939524 -281.44460237 129.13191478 -287.70654297 143.93457031 C-293.67507466 158.07969752 -299.08313765 171.89482 -302 187 C-302.28617188 188.15048828 -302.28617188 188.15048828 -302.578125 189.32421875 C-304.80352218 203.43900642 -302.87491372 218.13880883 -300 232 C-304.33336913 230.30711132 -307.26849045 227.10227991 -310.5625 223.9375 C-315.66093708 219.11504858 -320.87510943 214.56488308 -326.35546875 210.17578125 C-330.12199286 207.07688328 -333.67456034 203.7600583 -337.26171875 200.45703125 C-339.88160046 198.10623867 -342.56552219 195.88749541 -345.3125 193.6875 C-351.05690352 189.05412008 -356.40424901 184.04725486 -361.78515625 179.00390625 C-369.24692719 172.01159161 -377.12798282 165.52065423 -385 159 C-382.09742674 153.62744853 -378.77070413 148.9182489 -375 144.125 C-365.4458075 131.79674879 -356.64587068 118.97289119 -347.85766602 106.09301758 C-323.5082036 70.44325217 -323.5082036 70.44325217 -311.22265625 57.37890625 C-309.26906549 55.28798046 -307.44508446 53.14353008 -305.625 50.9375 C-284.86642549 27.28910073 -254.22592481 17.00847548 -224.5090332 10.40527344 C-221.54105454 9.74523079 -218.57609941 9.07272598 -215.61132812 8.3984375 C-213.70068406 7.96802477 -211.78988217 7.53831193 -209.87890625 7.109375 C-209.00480606 6.91148376 -208.13070587 6.71359253 -207.2301178 6.50970459 C-202.16213652 5.38879691 -197.16071554 4.5617004 -192 4 C-191.4121875 5.60875 -191.4121875 5.60875 -190.8125 7.25 C-190.21071298 8.83423931 -189.60623546 10.41745763 -189 12 C-188.64808594 12.94101562 -188.29617188 13.88203125 -187.93359375 14.8515625 C-179.75540047 35.74239286 -164.15157843 49.12794561 -144.08886719 58.14257812 C-117.63250133 69.00218038 -86.18437245 65.81636195 -60.32568359 55.01220703 C-33.88072148 43.50256889 -13.32800283 25.6795952 0 0 Z " fill="#F1D84B" transform="translate(789,423)"/>
<path d="M0 0 C3.43898051 0.48538163 4.13501336 1.50566726 6.2265625 4.2421875 C24.18734887 28.25717153 36.86819027 56.34831081 49.63952637 83.33752441 C50.53438682 85.2254631 51.43480991 87.11063192 52.33691406 88.99511719 C59.38219323 103.81060566 64.24065333 118.31259657 67.6015625 134.3671875 C67.88128906 135.63820313 68.16101563 136.90921875 68.44921875 138.21875 C69.69919183 144.16124499 70.7384886 150.13622948 71.78515625 156.1171875 C72.00163818 157.34791992 72.21812012 158.57865234 72.44116211 159.84667969 C72.87076727 162.29947901 73.29504628 164.7532192 73.71313477 167.20800781 C74.81089243 173.51294167 76.1434477 179.62806805 77.90087891 185.78076172 C79.01969848 189.91064833 79.76258514 194.09973836 80.5390625 198.3046875 C87.63202848 234.65782053 112.0006009 265.66885065 133.6015625 294.8671875 C135.37074908 297.26500922 137.13873339 299.6637044 138.90527344 302.06347656 C140.00060718 303.55103689 141.09750186 305.03744969 142.19628906 306.52246094 C157.48169621 327.26208955 168.87346293 350.03357093 179.6015625 373.3671875 C180.2615625 373.3671875 180.9215625 373.3671875 181.6015625 373.3671875 C181.2165046 366.00733076 178.6153523 360.47004957 175.3515625 353.9296875 C174.63419922 352.45145508 174.63419922 352.45145508 173.90234375 350.94335938 C171.29281508 345.60761579 168.5618614 340.44596635 165.39550781 335.41772461 C164.34274399 332.69873219 164.75216029 331.11913777 165.6015625 328.3671875 C167.28125 326.18359375 167.28125 326.18359375 169.4765625 323.9296875 C175.2808344 317.72259547 180.42873307 311.09942454 185.6015625 304.3671875 C186.44750977 303.26673096 186.44750977 303.26673096 187.31054688 302.14404297 C194.49943558 292.78854393 194.49943558 292.78854393 201.6015625 283.3671875 C205.69745727 285.06377136 208.80178832 287.92479409 212.1015625 290.8046875 C213.02642456 291.60386597 213.02642456 291.60386597 213.9699707 292.41918945 C218.48338137 296.33908111 222.89150541 300.36375791 227.27148438 304.43139648 C231.31184562 308.16039167 235.53851179 311.60956049 239.8203125 315.0546875 C243.37341336 318.00895114 246.7417993 321.13632174 250.12329102 324.28344727 C253.334553 327.25434378 256.62784065 330.06679827 260.0390625 332.8046875 C264.82950535 336.66057864 269.35347308 340.73824782 273.83569336 344.94311523 C274.33979736 345.41563721 274.84390137 345.88815918 275.36328125 346.375 C275.87689209 346.86266846 276.39050293 347.35033691 276.91967773 347.8527832 C278.61456872 349.41808296 278.61456872 349.41808296 280.59790039 350.90307617 C286.51592221 355.56489775 289.01144167 360.46014771 291.6640625 367.4296875 C292.06560547 368.39712891 292.46714844 369.36457031 292.88085938 370.36132812 C296.42326235 379.29993045 296.42326235 379.29993045 294.6015625 384.3671875 C293.28634982 387.22697996 291.79341882 389.95071646 290.2265625 392.6796875 C289.77958008 393.46802979 289.33259766 394.25637207 288.87207031 395.06860352 C280.16943123 410.24371687 270.25528618 424.50130195 259.6015625 438.3671875 C259.15941406 438.94355957 258.71726562 439.51993164 258.26171875 440.11376953 C232.53382863 473.14698308 197.15983817 501.42407784 155.15234375 508.98828125 C150.83043487 509.44947505 146.57030448 509.58943196 142.2265625 509.6171875 C141.02773438 509.648125 141.02773438 509.648125 139.8046875 509.6796875 C125.91479038 509.76958975 115.58827921 502.72926296 105.9765625 493.3046875 C99.61028425 486.86114668 94.81009868 480.42808084 90.6015625 472.3671875 C90.28171387 471.76326172 89.96186523 471.15933594 89.63232422 470.53710938 C87.52630333 466.5402814 85.52558472 462.50142717 83.58398438 458.42236328 C82.95371393 457.10387008 82.31509422 455.78931699 81.66601562 454.47998047 C69.04635895 428.98053678 61.88627201 400.54827373 54.26452637 373.24293518 C52.56189363 367.16857309 50.72586162 361.14033944 48.8515625 355.1171875 C46.67886127 348.11790219 44.74623742 341.10316872 42.9765625 333.9921875 C40.12864767 322.69569491 36.66107909 311.60054818 33.1640625 300.4921875 C32.89301697 299.62281555 32.62197144 298.7534436 32.3427124 297.85772705 C19.76064286 257.14329773 19.76064286 257.14329773 -7.54296875 225.84765625 C-8.25839844 225.33847656 -8.97382813 224.82929687 -9.7109375 224.3046875 C-10.69513672 223.63759766 -10.69513672 223.63759766 -11.69921875 222.95703125 C-14.4795813 220.35563457 -15.26921001 217.58724706 -15.6640625 213.859375 C-15.63565961 209.10189039 -15.35371298 204.65939056 -14.3984375 199.9921875 C-13.56482897 195.76938222 -13.11841585 191.67159563 -12.9609375 187.3671875 C-12.90099609 185.7584375 -12.90099609 185.7584375 -12.83984375 184.1171875 C-13.1316048 181.20491759 -13.1316048 181.20491759 -15.5703125 179.5703125 C-18.43570128 178.35133495 -21.02960351 177.68846488 -24.0859375 177.1171875 C-32.1680884 175.19618365 -38.77311636 171.34380596 -43.3984375 164.3046875 C-46.54404652 158.83456593 -47.65183882 153.78385203 -47.5234375 147.4921875 C-47.50539062 146.33976563 -47.48734375 145.18734375 -47.46875 144 C-47.43394531 142.69675781 -47.43394531 142.69675781 -47.3984375 141.3671875 C-46.7384375 142.0478125 -46.0784375 142.7284375 -45.3984375 143.4296875 C-44.40054132 144.41099814 -43.4003071 145.38993386 -42.3984375 146.3671875 C-41.59599609 147.18123047 -41.59599609 147.18123047 -40.77734375 148.01171875 C-31.68180075 156.67693499 -21.50575156 160.94196625 -9.1640625 161.8828125 C-7.79507813 162.12257813 -7.79507813 162.12257813 -6.3984375 162.3671875 C-4.66806935 164.96273972 -3.94195628 166.53602893 -3.0859375 169.4296875 C-0.2886351 178.04537888 3.90012194 185.35304413 9.6015625 192.3671875 C10.5915625 192.0371875 11.5815625 191.7071875 12.6015625 191.3671875 C11.24435697 187.62985799 9.52172651 184.5868521 7.2890625 181.3046875 C-3.68935272 164.367216 -4.47962537 147.08860466 -0.3984375 127.7421875 C2.79496596 112.2226091 4.18798073 95.094381 -1.48828125 80.0390625 C-3.74075771 73.42664233 -3.17989269 67.3641245 -0.3359375 61.0546875 C2.47185226 56.08766786 5.91520004 51.43788537 11.60546875 49.78515625 C13.5390625 49.4921875 13.5390625 49.4921875 16.6015625 49.3671875 C19.50958261 53.49418269 21.64215464 57.44044353 23.5546875 62.14453125 C23.94668587 63.10362396 23.94668587 63.10362396 24.34660339 64.08209229 C25.18958562 66.15315839 26.02146914 68.22842487 26.8515625 70.3046875 C27.13846954 71.01726715 27.42537659 71.7298468 27.72097778 72.46401978 C47.6015625 121.88147321 47.6015625 121.88147321 47.6015625 134.3671875 C49.2515625 134.0371875 50.9015625 133.7071875 52.6015625 133.3671875 C51.22513053 128.61585021 49.82415867 123.87230774 48.4140625 119.13085938 C47.57350351 116.27174648 46.75952767 113.4057784 45.9453125 110.5390625 C42.33157025 98.0646171 38.05892778 86.02070441 33.0390625 74.0546875 C32.77174316 73.4132782 32.50442383 72.7718689 32.22900391 72.11102295 C26.91362836 57.84157481 26.91362836 57.84157481 18.6015625 45.3671875 C13.78861754 44.74910404 10.43794035 44.89577453 6.1640625 47.3046875 C5.3184375 47.9853125 4.4728125 48.6659375 3.6015625 49.3671875 C2.6115625 49.8621875 2.6115625 49.8621875 1.6015625 50.3671875 C-4.21030905 38.10652698 -10.64026715 24.3002793 -8.3984375 10.3671875 C-4.95280746 0.7582474 -4.95280746 0.7582474 0 0 Z " fill="#A26B48" transform="translate(205.3984375,308.6328125)"/>
<path d="M0 0 C1.35155581 0.01005718 2.70311893 0.01917816 4.0546875 0.02734375 C7.32831558 0.05072681 10.60155994 0.08349939 13.875 0.125 C13.40337233 6.32504129 12.70708431 12.24235282 11.3125 18.3125 C9.56014573 27.04079353 9.5686268 35.8235205 9.5625 44.6875 C9.55918671 45.38958588 9.55587341 46.09167175 9.55245972 46.81503296 C9.51629666 59.78166606 11.10875408 72.87153415 19.1875 83.625 C25.95842329 89.9235333 33.19031835 91.09889933 42.1875 91.6875 C44.06888672 91.81318359 44.06888672 91.81318359 45.98828125 91.94140625 C46.94089844 92.00199219 47.89351562 92.06257813 48.875 92.125 C48.875 92.785 48.875 93.445 48.875 94.125 C50.15375 94.186875 51.4325 94.24875 52.75 94.3125 C62.06509538 95.40925377 68.27503909 99.85291436 74.28125 106.84375 C78.17839825 112.42202103 78.57919455 117.51437371 77.875 124.125 C74.95387389 138.31569787 69.35358639 150.04809276 58.875 160.125 C57.27011719 161.115 57.27011719 161.115 55.6328125 162.125 C53.47563343 163.9184208 52.92768099 164.87875197 52.33300781 167.65844727 C52.12831226 171.02211498 52.15149919 174.31881736 52.25 177.6875 C52.2696582 178.94876709 52.28931641 180.21003418 52.30957031 181.50952148 C52.89348297 207.90541491 55.73538034 235.58971941 64.125 260.6875 C64.37612549 261.4926001 64.62725098 262.2977002 64.88598633 263.12719727 C66.45238408 267.44701219 66.45238408 267.44701219 69.89257812 270.31201172 C72.33292485 271.28329063 72.33292485 271.28329063 75.875 272.125 C64.8252798 289.72562575 46.72533818 301.31526852 27.875 309.125 C26.95589844 309.52332031 26.03679687 309.92164063 25.08984375 310.33203125 C5.03894442 318.40682781 -18.01844988 318.60597036 -37.9765625 310.546875 C-52.53518952 303.97201118 -63.39467204 293.84392919 -69.56640625 278.8671875 C-70.125 277.125 -70.125 277.125 -70.125 275.125 C-69.08859375 274.89167969 -68.0521875 274.65835937 -66.984375 274.41796875 C-59.24709197 272.60695414 -59.24709197 272.60695414 -53.30859375 267.765625 C-52.24424419 264.87727247 -51.61886762 262.16267779 -51.125 259.125 C-50.92132812 258.13628906 -50.71765625 257.14757812 -50.5078125 256.12890625 C-49.2521059 249.51494479 -48.62681803 242.83351471 -48.125 236.125 C-47.09375 235.898125 -46.0625 235.67125 -45 235.4375 C-34.04673383 232.6458711 -24.29483468 228.79260855 -15.125 222.125 C-14.48046875 221.66480469 -13.8359375 221.20460938 -13.171875 220.73046875 C-7.25193825 216.10385151 -1.50872313 209.2761694 0.875 202.125 C0.23175781 202.3516333 -0.41148437 202.5782666 -1.07421875 202.81176758 C-27.00848087 211.88274746 -55.95635761 219.96194563 -82.2734375 207.65234375 C-97.65229179 199.45932692 -106.64410675 186.28310644 -112.05859375 170.00390625 C-118.31113697 148.41894248 -116.61782201 126.8725062 -112.75 105.0625 C-112.42819403 103.17538428 -112.10787706 101.28801403 -111.7890625 99.40039062 C-111.18526251 95.84013431 -110.56662903 92.28306706 -109.93286133 88.72802734 C-109.44474163 85.98580461 -108.99180743 83.24902766 -108.57299805 80.49462891 C-108.4212915 79.51800293 -108.26958496 78.54137695 -108.11328125 77.53515625 C-108.00024658 76.74375244 -107.88721191 75.95234863 -107.77075195 75.13696289 C-106.69219804 71.77652328 -104.44576172 70.10390214 -101.53515625 68.265625 C-97.22102002 66.22392681 -92.77454316 65.12810844 -88.125 64.125 C-83.35304206 63.05737551 -79.14957399 62.0519629 -75.125 59.125 C-74.63 58.135 -74.63 58.135 -74.125 57.125 C-76.47867713 56.4371764 -76.47867713 56.4371764 -79.125 56.125 C-80.115 56.785 -81.105 57.445 -82.125 58.125 C-84.18359375 58.6171875 -84.18359375 58.6171875 -86.5625 59 C-92.62446459 60.11031552 -98.32566612 62.07231481 -104.125 64.125 C-104.64684699 60.54662064 -104.90512764 58.31481731 -102.8828125 55.23046875 C-101.02536949 53.12907585 -99.08629681 51.12972036 -97.125 49.125 C-95.68414338 47.48210444 -94.24677199 45.83614716 -92.8125 44.1875 C-75.05813155 24.61293579 -50.92011116 8.61029409 -25.125 2.125 C-24.42987305 1.94243652 -23.73474609 1.75987305 -23.01855469 1.57177734 C-15.36624242 -0.22681607 -7.82473308 -0.10091422 0 0 Z " fill="#A16947" transform="translate(689.125,147.875)"/>
<path d="M0 0 C1.98 0 3.96 0 6 0 C6.20753906 1.0415625 6.41507813 2.083125 6.62890625 3.15625 C11.30588845 25.38302624 20.78142925 45.3455627 40.2109375 58.30859375 C59.88556167 70.24012354 79.425256 73.15233175 102 74 C102.33 75.98 102.66 77.96 103 80 C100.525 80.99 100.525 80.99 98 82 C98.33 82.99 98.66 83.98 99 85 C100.98 85 102.96 85 105 85 C108.41165693 99.28288527 111.43934957 113.60991244 113.91888428 128.08288574 C114.17572 129.57849881 114.43664111 131.07341771 114.70220947 132.56750488 C116.86710478 144.81891529 117.40096206 156.4202032 118 169 C49.03 169 -19.94 169 -91 169 C-91 163.39 -91 157.78 -91 152 C-91.99 151.67 -92.98 151.34 -94 151 C-94.93876652 147.92293198 -95.52452995 145.16403706 -96 142 C-96.18304687 140.89140625 -96.36609375 139.7828125 -96.5546875 138.640625 C-97.47916482 131.21236866 -97.29357989 126.68005947 -92.640625 120.671875 C-88.20344333 113.4456077 -87.55504423 105.51941087 -87.56762695 97.22607422 C-87.5574353 96.20048904 -87.54724365 95.17490387 -87.53674316 94.11824036 C-87.50680156 90.76366581 -87.49737601 87.40937768 -87.48828125 84.0546875 C-87.47142062 81.71484441 -87.45326853 79.3750103 -87.43388367 77.03518677 C-87.3865281 70.90326748 -87.3566253 64.77138463 -87.33044434 58.63934326 C-87.29530446 51.26773796 -87.23833293 43.89627248 -87.18505096 36.52478027 C-87.10670659 25.34987163 -87.05597222 14.17514391 -87 3 C-52.35 2.505 -52.35 2.505 -17 2 C-17 3.65 -17 5.3 -17 7 C-12.05 6.67 -7.1 6.34 -2 6 C-1.34 4.02 -0.68 2.04 0 0 Z " fill="#5787B3" transform="translate(757,855)"/>
<path d="M0 0 C1.32 0 2.64 0 4 0 C4.12375 0.969375 4.2475 1.93875 4.375 2.9375 C4.684375 4.4534375 4.684375 4.4534375 5 6 C7.83269666 7.41634833 10.47466438 7.3463005 13.625 7.5625 C14.81351563 7.64628906 16.00203125 7.73007812 17.2265625 7.81640625 C18.14179687 7.87699219 19.05703125 7.93757812 20 8 C20 6.35 20 4.7 20 3 C29.06617935 2.79313281 37.98524562 3.60473046 47 4.4375 C49.24395374 4.64338753 51.48800891 4.84777587 53.73242188 5.04859924 C55.78935786 5.23282562 57.8458696 5.42177186 59.90234375 5.61108398 C67.58815031 6.25103448 75.29920461 6.5909131 83 7 C83.00808685 8.05219223 83.01617371 9.10438446 83.02450562 10.1884613 C83.10248404 20.17552849 83.1903466 30.16246804 83.28752708 40.14936733 C83.337163 45.28192458 83.38349174 50.41446443 83.421875 55.54711914 C83.45914618 60.513929 83.50561031 65.48058039 83.55806351 70.44725227 C83.57638809 72.32832073 83.59157392 74.20942286 83.60334396 76.09054375 C83.66265986 85.25526158 83.86414427 94.330069 84.91650391 103.44165039 C84.99548605 104.12587539 85.07446819 104.81010038 85.15584373 105.51505947 C86.27235219 114.18748019 89.12480676 122.2706723 96 128 C97.38445312 128.66902344 97.38445312 128.66902344 98.796875 129.3515625 C102.16778946 130.98462209 104.45199256 132.22742241 107 135 C108.66646452 140.81203524 108.27207355 147.02070924 108 153 C98.93899293 150.24692216 90.60241937 146.18100856 82.06640625 142.11914062 C80.94363281 141.59126953 79.82085938 141.06339844 78.6640625 140.51953125 C77.64779785 140.03589111 76.6315332 139.55225098 75.58447266 139.05395508 C73.00220356 137.81119458 73.00220356 137.81119458 70 138 C70.03814324 139.92221465 70.03814324 139.92221465 71 142 C73.65709308 143.67489427 73.65709308 143.67489427 77.01953125 145.0234375 C77.94024666 145.42642563 77.94024666 145.42642563 78.87956238 145.83755493 C80.8514271 146.69751601 82.83126338 147.53688652 84.8125 148.375 C87.38386281 149.48157269 89.95176734 150.59604402 92.51953125 151.7109375 C93.14739532 151.98178162 93.7752594 152.25262573 94.42214966 152.53167725 C100.40258219 155.12981098 106.19456053 158.02768683 112 161 C112 165.29 112 169.58 112 174 C48.97 174 -14.06 174 -79 174 C-79 165.90080123 -78.96530126 158.80969052 -77.6796875 150.984375 C-77.54053925 150.09304871 -77.40139099 149.20172241 -77.25802612 148.28338623 C-76.80885958 145.43687884 -76.34329794 142.59341768 -75.875 139.75 C-75.71793579 138.77699951 -75.56087158 137.80399902 -75.39904785 136.80151367 C-73.09772973 122.57699203 -70.43250683 108.55227105 -66.69726562 94.625 C-65.40632054 89.76497143 -64.21062856 84.88054444 -63 80 C-61.47632813 79.65388672 -61.47632813 79.65388672 -59.921875 79.30078125 C-39.00091132 74.406123 -19.34987179 65.38813908 -7 47 C-0.65152039 36.61103666 5.28628731 25.14030145 7 13 C5.04069253 12.97739174 5.04069253 12.97739174 3 14 C1.64459698 16.98790565 1.64459698 16.98790565 0.6875 20.6875 C-5.43427105 40.77433523 -17.06047765 57.0806417 -35.640625 67.4296875 C-43.64039441 71.1691146 -52.26459395 73.72890376 -61 75 C-60.67 72.69 -60.34 70.38 -60 68 C-58.54980469 67.54560547 -58.54980469 67.54560547 -57.0703125 67.08203125 C-35.88176624 60.32112246 -21.15560062 49.96075014 -10.4375 30.10546875 C-5.69747639 20.48963961 -2.87784739 10.29455054 0 0 Z " fill="#5787B3" transform="translate(549,850)"/>
<path d="M0 0 C4.58604588 1.84887886 8.71183366 4.27123221 12.96875 6.7734375 C20.41262062 11.09130066 27.89844922 15.30627348 35.46875 19.3984375 C42.54114035 23.229238 49.56091679 27.13497031 56.53125 31.1484375 C64.79578522 35.90290206 73.1167882 40.5497327 81.46875 45.1484375 C82.07776154 45.48383545 82.68677307 45.8192334 83.3142395 46.16479492 C87.69782411 48.57828833 92.08309886 50.98870183 96.46875 53.3984375 C106.14476828 58.71501323 115.8127165 64.04563632 125.46875 69.3984375 C126.55478516 69.9980127 127.64082031 70.59758789 128.75976562 71.21533203 C131.75171362 72.87069795 134.73632036 74.53849866 137.71875 76.2109375 C138.60046875 76.6965918 139.4821875 77.18224609 140.390625 77.68261719 C141.58171875 78.35599121 141.58171875 78.35599121 142.796875 79.04296875 C143.4868457 79.42815674 144.17681641 79.81334473 144.88769531 80.21020508 C146.46875 81.3984375 146.46875 81.3984375 147.46875 84.3984375 C146.42407227 86.38452148 146.42407227 86.38452148 144.78515625 88.64453125 C144.19154297 89.47533203 143.59792969 90.30613281 142.98632812 91.16210938 C142.34115234 92.04447266 141.69597656 92.92683594 141.03125 93.8359375 C139.71907628 95.66726997 138.40787167 97.49929722 137.09765625 99.33203125 C136.46359863 100.21358887 135.82954102 101.09514648 135.17626953 102.00341797 C133.20985763 104.76156792 131.3240607 107.56450138 129.46875 110.3984375 C119.25668476 125.82471402 108.36849336 140.69966707 97.0559082 155.33398438 C96.532146 156.01525391 96.00838379 156.69652344 95.46875 157.3984375 C94.90438232 158.10419922 94.34001465 158.80996094 93.75854492 159.53710938 C92.26144102 161.30386255 92.26144102 161.30386255 92.53125 163.4609375 C93.71831943 165.91421432 95.204262 166.9374775 97.46875 168.3984375 C95.73640003 172.26291052 93.30922224 175.60397693 90.84375 179.0234375 C90.39572021 179.64661865 89.94769043 180.2697998 89.48608398 180.91186523 C82.71220213 190.27097747 75.28589614 199.07512599 67.77587891 207.84570312 C66.8669617 208.92540306 65.97446883 210.01905645 65.09521484 211.12304688 C63.92744777 212.58200742 62.70230664 213.99466265 61.46875 215.3984375 C60.80875 215.3984375 60.14875 215.3984375 59.46875 215.3984375 C57.63548512 212.99612228 55.91644613 210.58216443 54.21875 208.0859375 C53.1306991 206.51438222 52.04078459 204.94411592 50.94921875 203.375 C50.37864746 202.55418945 49.80807617 201.73337891 49.22021484 200.88769531 C46.38900885 196.86386253 43.46184785 192.91266809 40.53125 188.9609375 C39.34477291 187.35567505 38.1585754 185.75020593 36.97265625 184.14453125 C36.38887207 183.3541748 35.80508789 182.56381836 35.20361328 181.74951172 C-11.35955512 118.6474414 -11.35955512 118.6474414 -17.58203125 85.51171875 C-17.76159866 84.58360382 -17.94116608 83.65548889 -18.12617493 82.69924927 C-18.70445785 79.70421946 -19.27436505 76.70767047 -19.84375 73.7109375 C-20.63735958 69.57253856 -21.4340812 65.43474009 -22.23046875 61.296875 C-22.42620483 60.27627487 -22.62194092 59.25567474 -22.8236084 58.20414734 C-24.00050088 52.08470609 -25.21806417 45.97572575 -26.48828125 39.875 C-26.63362808 39.1722142 -26.77897491 38.46942841 -26.9287262 37.74534607 C-27.58947606 34.55156701 -28.25837856 31.35998227 -28.94262695 28.17114258 C-29.17038818 27.06923584 -29.39814941 25.9673291 -29.6328125 24.83203125 C-29.83213379 23.89415771 -30.03145508 22.95628418 -30.23681641 21.98999023 C-30.57183335 19.04123003 -30.58524585 17.18687863 -29.53125 14.3984375 C-27.15454102 12.56152344 -27.15454102 12.56152344 -24.03515625 10.8828125 C-22.91947266 10.27179688 -21.80378906 9.66078125 -20.65429688 9.03125 C-19.46763321 8.40329555 -18.28078204 7.77569533 -17.09375 7.1484375 C-15.90996126 6.5067667 -14.72700715 5.86355354 -13.54492188 5.21875 C-2.72820161 -0.6483689 -2.72820161 -0.6483689 0 0 Z " fill="#F9F9F9" transform="translate(306.53125,418.6015625)"/>
<path d="M0 0 C9.74577541 42.92472634 16.33194971 86.67290508 -7 126 C-11.04791771 131.99055679 -15.94368273 137.26908754 -20.81640625 142.59375 C-22.74009665 144.71359488 -24.59250374 146.87455149 -26.4375 149.0625 C-30.58100249 153.80334953 -35.24982356 157.8804967 -40 162 C-40.93328125 162.83273437 -41.8665625 163.66546875 -42.828125 164.5234375 C-56.63582585 176.68983709 -72.05965528 186.86264758 -88 196 C-89.74752707 197.01279443 -91.49491339 198.02583173 -93.2421875 199.0390625 C-95.09842499 200.11029971 -96.95519364 201.18061707 -98.8125 202.25 C-99.67222412 202.74580566 -100.53194824 203.24161133 -101.41772461 203.75244141 C-117.60484291 213 -117.60484291 213 -120 213 C-120.08636719 212.22398437 -120.17273438 211.44796875 -120.26171875 210.6484375 C-121.26679216 202.92135937 -123.10309877 196.25272992 -125.87890625 188.99609375 C-126.7545051 186.6560787 -127.47022521 184.43458302 -128 182 C-126.63875 181.01 -126.63875 181.01 -125.25 180 C-120.47097671 176.04572541 -117.46299455 169.86931157 -116.7265625 163.71484375 C-116.45376891 156.25498834 -117.84748873 149.90461285 -120.04541016 142.84741211 C-126.22829636 122.78138342 -127.61908102 95.18819712 -121 75 C-118.84685167 71.53807524 -116.54202494 69.92626356 -113 68 C-105.65868155 64.00455499 -105.65868155 64.00455499 -101.125 57.43359375 C-100.8328495 51.01541253 -102.99944802 45.84273536 -105.90625 40.21484375 C-107 38 -107 38 -107 36 C-106.28158936 35.90501221 -105.56317871 35.81002441 -104.82299805 35.7121582 C-69.14566159 30.91781161 -33.91829328 21.04398296 -3.56518555 0.89379883 C-2 0 -2 0 0 0 Z " fill="#A16A48" transform="translate(974,625)"/>
<path d="M0 0 C3.07158453 2.62657851 4.52006997 5.69759206 6.29296875 9.29296875 C6.75381363 10.22102577 6.75381363 10.22102577 7.22396851 11.16783142 C8.21744536 13.17165691 9.20248598 15.179503 10.1875 17.1875 C10.8684663 18.56458373 11.5500268 19.9413738 12.23217773 21.31787109 C13.56554117 24.01014615 14.89599694 26.70382182 16.22363281 29.39892578 C17.6586269 32.3106961 19.1022241 35.21798709 20.5546875 38.12109375 C20.90063965 38.81348145 21.2465918 39.50586914 21.60302734 40.21923828 C22.23248015 41.46949492 22.86803234 42.71670328 23.51025391 43.96044922 C24.95485814 46.7764434 26.19507894 49.53468282 27.28125 52.51171875 C29.61822614 58.56852099 29.61822614 58.56852099 34.6875 62.26171875 C37.9030408 62.9651183 41.06820663 63.40778694 44.34326172 63.72265625 C47.47266877 64.04934311 50.57711813 64.48906337 53.69140625 64.9375 C62.22661941 66.1630749 70.77182218 67.30957299 79.3203125 68.43847656 C82.25612205 68.82752651 85.19059871 69.22549279 88.125 69.625 C88.98883301 69.73585938 89.85266602 69.84671875 90.74267578 69.9609375 C94.46917762 70.47252264 96.82398439 70.88265626 100 73 C97.337658 75.69181275 94.66933333 78.37762147 92 81.0625 C91.25621094 81.81466797 90.51242187 82.56683594 89.74609375 83.34179688 C85.68464244 87.42090667 81.54538081 91.31834018 77.1875 95.0769043 C73.01376359 98.74615895 68.98274266 102.56187322 64.99707031 106.43310547 C63.9933418 107.39984072 62.98079379 108.35749632 61.95996094 109.30615234 C55.12112748 115.14502132 55.12112748 115.14502132 52.171875 123.15234375 C52.38559755 124.77764598 52.67315807 126.39361928 53 128 C53.26683594 129.7948584 53.26683594 129.7948584 53.5390625 131.62597656 C54.19302093 135.99522869 54.970095 140.33928619 55.75 144.6875 C56.02422523 146.25256195 56.29773939 147.81774865 56.57055664 149.38305664 C57.777622 156.27944218 59.02155491 163.16784273 60.32421875 170.046875 C60.51467773 171.05919189 60.70513672 172.07150879 60.90136719 173.11450195 C61.24908095 174.94538273 61.60472624 176.77478185 61.96972656 178.60229492 C62.19934082 179.80269409 62.19934082 179.80269409 62.43359375 181.02734375 C62.56822021 181.70531006 62.70284668 182.38327637 62.84155273 183.08178711 C63.02183466 185.26433733 62.63668221 186.91691982 62 189 C50.44121702 183.02363839 38.91435955 176.9985902 27.5 170.75 C26.59241943 170.25508057 25.68483887 169.76016113 24.74975586 169.25024414 C20.63857362 167.0055708 16.53902639 164.74479601 12.46484375 162.43359375 C11.77777344 162.05041992 11.09070313 161.66724609 10.3828125 161.27246094 C8.58187496 160.26802238 6.78862608 159.24983163 4.99609375 158.23046875 C1.53783593 156.81019337 0.52152924 157.01918889 -3 158 C-4.75573939 158.77989278 -6.48292812 159.62589265 -8.18359375 160.51953125 C-9.18318115 161.04160156 -10.18276855 161.56367188 -11.21264648 162.1015625 C-12.27684814 162.66617188 -13.3410498 163.23078125 -14.4375 163.8125 C-16.09084351 164.68068359 -16.09084351 164.68068359 -17.77758789 165.56640625 C-26.08592954 169.94454003 -34.34613812 174.41065183 -42.56616211 178.95239258 C-58.97695662 188 -58.97695662 188 -62 188 C-60.65681168 177.0754017 -59.0638106 166.21163913 -57.20703125 155.36328125 C-57.04770615 154.42856995 -56.88838104 153.49385864 -56.72422791 152.53082275 C-55.91160256 147.77239144 -55.08780559 143.01622524 -54.24975586 138.26220703 C-53.94223066 136.47564012 -53.63500765 134.68902115 -53.328125 132.90234375 C-53.17934402 132.07914139 -53.03056305 131.25593903 -52.87727356 130.40779114 C-52.74665024 129.63763168 -52.61602692 128.86747223 -52.48144531 128.07397461 C-52.36391907 127.40530869 -52.24639282 126.73664276 -52.12530518 126.04771423 C-51.90801999 122.49687946 -52.31185078 119.91630934 -54.47108459 117.04116821 C-55.10203537 116.41608368 -55.73298615 115.79099915 -56.38305664 115.14697266 C-57.0979274 114.42917633 -57.81279816 113.71138 -58.54933167 112.97183228 C-59.32840378 112.21026825 -60.10747589 111.44870422 -60.91015625 110.6640625 C-61.71102158 109.86648529 -62.5118869 109.06890808 -63.33702087 108.24716187 C-65.90297499 105.69696204 -68.48273898 103.1612238 -71.0625 100.625 C-72.77364741 98.9253455 -74.48394381 97.22483378 -76.19335938 95.5234375 C-77.84819414 93.88204169 -79.5037701 92.24139274 -81.16015625 90.6015625 C-81.92505875 89.84404694 -82.68996124 89.08653137 -83.4780426 88.30606079 C-87.66737599 84.18969316 -91.93173173 80.26079056 -96.46311951 76.52182007 C-98 75 -98 75 -99 72 C-91.98912262 70.04869669 -84.95798189 69.07084596 -77.75 68.125 C-75.17307508 67.77940561 -72.59625491 67.43302931 -70.01953125 67.0859375 C-69.36271866 66.9979187 -68.70590607 66.9098999 -68.02919006 66.81921387 C-63.35265994 66.190305 -58.68126528 65.53028196 -54.01171875 64.8515625 C-52.74038086 64.66706543 -51.46904297 64.48256836 -50.15917969 64.29248047 C-47.71814148 63.93666921 -45.27737521 63.57898622 -42.83691406 63.21923828 C-41.73444336 63.0592334 -40.63197266 62.89922852 -39.49609375 62.734375 C-38.04481079 62.52119629 -38.04481079 62.52119629 -36.56420898 62.30371094 C-34 62 -34 62 -30 62 C-29.77183594 61.21496094 -29.54367187 60.42992187 -29.30859375 59.62109375 C-27.60013385 54.89350471 -25.34884884 50.53337968 -23.0625 46.0625 C-18.53072239 37.11444735 -14.14331703 28.10914705 -9.88110352 19.02954102 C-6.8180983 12.55238415 -3.49002951 6.25702201 0 0 Z " fill="#F0DC3A" transform="translate(308,116)"/>
<path d="M0 0 C13.39080343 22.26777227 24.0543877 45.61936867 33 70 C33.41258057 71.11785889 33.41258057 71.11785889 33.83349609 72.25830078 C46.24485028 106.35223577 55 144.6021845 55 181 C46.42 181 37.84 181 29 181 C28.76925781 178.88207031 28.53851562 176.76414062 28.30078125 174.58203125 C21.87464503 116.56764607 6.80366008 62.31428472 -15.92773438 8.60595703 C-16.68580904 6.76358705 -17.36999966 4.89000103 -18 3 C-4.89320388 0 -4.89320388 0 0 0 Z " fill="#5685B1" transform="translate(851,843)"/>
<path d="M0 0 C28 66.02897024 28 66.02897024 28 77 C2.54980263 78.08298712 -19.68060702 71.5679844 -39.3359375 55.03515625 C-50.13808212 44.91590583 -59.66326249 27.56108898 -61.24609375 12.6875 C-61.25 10.75 -61.25 10.75 -61 8 C-53.76094638 6.77832847 -46.55415714 5.82711462 -39.25 5.125 C-30.19338631 4.24462597 -21.24706369 2.83368942 -12.27636719 1.32080078 C-10.74931152 1.06532471 -10.74931152 1.06532471 -9.19140625 0.8046875 C-8.28592041 0.64983887 -7.38043457 0.49499023 -6.44750977 0.33544922 C-4 0 -4 0 0 0 Z " fill="#5686B1" transform="translate(829,847)"/>
<path d="M0 0 C0.99 0 1.98 0 3 0 C3.43900635 0.88018799 3.8780127 1.76037598 4.33032227 2.66723633 C7.96212891 9.942404 11.60774531 17.21035748 15.27304077 24.46871948 C17.31067564 28.50591764 19.34319745 32.54568016 21.37524414 36.58569336 C22.42719648 38.67430946 23.48127495 40.76185591 24.53735352 42.84838867 C26.08131549 45.90003153 27.61756322 48.95545012 29.15234375 52.01171875 C29.62518295 52.9419133 30.09802216 53.87210785 30.58518982 54.83049011 C31.23706017 56.13389091 31.23706017 56.13389091 31.90209961 57.46362305 C32.28434189 58.22144577 32.66658417 58.97926849 33.06040955 59.76005554 C34.06697953 62.1596764 34.5737053 64.43854637 35 67 C35.79583496 67.08040527 36.59166992 67.16081055 37.41162109 67.24365234 C41.06660743 67.61578675 44.72078786 67.9953416 48.375 68.375 C50.25251953 68.56449219 50.25251953 68.56449219 52.16796875 68.7578125 C58.4672508 69.41742319 64.62998148 70.22332688 70.82275391 71.55371094 C74.02788289 72.21069409 77.25017742 72.57293657 80.5 72.9375 C89.38688994 73.97676276 98.18638658 75.46985878 107 77 C107.80859375 78.63671875 107.80859375 78.63671875 108 81 C106.42365207 83.15343098 104.91377489 84.92280695 103.0625 86.8125 C102.60037109 87.30814453 102.13824219 87.80378906 101.66210938 88.31445312 C98.99277665 91.12866143 96.19512154 93.73686723 93.25976562 96.27148438 C87.17917776 101.56859959 81.31922903 107.07942052 75.52416992 112.6862793 C74.12907741 114.02424271 72.72166499 115.34947344 71.30249023 116.66186523 C63.13142061 123.73381221 63.13142061 123.73381221 58.22363281 132.99633789 C58.44181863 136.17565604 59.1438059 138.93007386 60 142 C60.36525361 144.09870358 60.66872728 146.20187641 60.97187805 148.31039429 C61.4253544 151.42695004 61.94945238 154.53036716 62.46917725 157.63644409 C62.88128652 160.10008158 63.2873776 162.56464627 63.69189453 165.02954102 C64.45695236 169.68707852 65.22790738 174.34362438 66 179 C66.63114149 182.81153644 67.25707429 186.62380138 67.875 190.4375 C67.99472168 191.1497876 68.11444336 191.8620752 68.23779297 192.59594727 C68.85780533 196.43591596 69.10817829 200.11159129 69 204 C63.31867081 203.46282304 58.98957271 201.26136897 54 198.6875 C53.13133301 198.24599609 52.26266602 197.80449219 51.36767578 197.34960938 C39.35191859 191.19692385 27.45456823 184.76789271 15.78515625 177.98046875 C14.96611816 177.50931641 14.14708008 177.03816406 13.30322266 176.55273438 C11.76821323 175.66689612 10.24001783 174.76910286 8.72021484 173.85742188 C8.03781738 173.46490234 7.35541992 173.07238281 6.65234375 172.66796875 C6.06445068 172.32016357 5.47655762 171.9723584 4.87084961 171.61401367 C1.32837695 170.45137257 -1.42970332 171.73482988 -4.69360352 173.25244141 C-5.66225342 173.78015137 -6.63090332 174.30786133 -7.62890625 174.8515625 C-8.73363281 175.44880127 -9.83835937 176.04604004 -10.9765625 176.66137695 C-12.17190949 177.31585498 -13.36722114 177.97039756 -14.5625 178.625 C-15.79780117 179.2952083 -17.0334845 179.96471266 -18.26953125 180.63354492 C-20.85582579 182.03372244 -23.44042028 183.43696865 -26.02392578 184.84228516 C-31.8867075 188.0280503 -37.76998559 191.17556093 -43.65304565 194.32366943 C-45.47316873 195.29813496 -47.2924769 196.27410582 -49.11157227 197.25048828 C-50.21944092 197.84458496 -51.32730957 198.43868164 -52.46875 199.05078125 C-53.44263672 199.57325439 -54.41652344 200.09572754 -55.41992188 200.6340332 C-56.69706055 201.31018677 -56.69706055 201.31018677 -58 202 C-58.71736328 202.39856201 -59.43472656 202.79712402 -60.17382812 203.20776367 C-62.70650973 204.30650055 -64.39996639 203.72223156 -67 203 C-65.94692393 195.59960803 -64.85805228 188.20482611 -63.75 180.8125 C-63.64217194 180.09211548 -63.53434387 179.37173096 -63.42324829 178.6295166 C-61.66842561 166.9517641 -59.70577866 155.32829343 -57.52441406 143.72192383 C-57.22422363 142.10386841 -57.22422363 142.10386841 -56.91796875 140.453125 C-56.74031982 139.51629883 -56.5626709 138.57947266 -56.37963867 137.61425781 C-56.25435791 136.75155273 -56.12907715 135.88884766 -56 135 C-55.87197998 134.16823242 -55.74395996 133.33646484 -55.61206055 132.47949219 C-56.19059039 128.78185271 -58.55424381 127.16848111 -61.2890625 124.875 C-62.49149167 123.81576593 -63.69084037 122.75302848 -64.88769531 121.6875 C-65.54644653 121.10355469 -66.20519775 120.51960938 -66.88391113 119.91796875 C-73.40937464 114.00345577 -79.59503796 107.70990299 -85.84375 101.50634766 C-87.55107579 99.81581848 -89.26377716 98.13070334 -90.98144531 96.45068359 C-93.48665097 93.99981567 -95.97539129 91.53328347 -98.4609375 89.0625 C-99.62150162 87.93593994 -99.62150162 87.93593994 -100.80551147 86.78662109 C-101.50439484 86.0848877 -102.2032782 85.3831543 -102.92333984 84.66015625 C-103.54365082 84.04793213 -104.16396179 83.43570801 -104.80307007 82.80493164 C-106 81 -106 81 -105.69229126 78.77124023 C-105.46383514 78.18673096 -105.23537903 77.60222168 -105 77 C-93.97938877 75.03799724 -82.95731201 73.45842985 -71.8425293 72.13012695 C-64.54527858 71.24036063 -57.35460516 70.07663105 -50.14453125 68.6484375 C-44.48643017 67.63800939 -38.72770447 67.37992376 -33 67 C-32.67837891 66.29617187 -32.35675781 65.59234375 -32.02539062 64.8671875 C-21.03301695 40.84391152 -21.03301695 40.84391152 -16.02294922 31.01904297 C-12.42119671 23.93329115 -9.05037314 16.73621308 -5.67944336 9.53833008 C-5.00667358 8.11556763 -5.00667358 8.11556763 -4.3203125 6.6640625 C-3.92086426 5.81279785 -3.52141602 4.9615332 -3.10986328 4.08447266 C-2 2 -2 2 0 0 Z M1 9 C-5.67258191 21.50008986 -12.09911595 34.09956835 -18.29931641 46.84057617 C-19.65405741 49.62216134 -21.01629715 52.39999643 -22.37890625 55.17773438 C-23.24523655 56.95290795 -24.11113935 58.72829025 -24.9765625 60.50390625 C-25.38266754 61.3308046 -25.78877258 62.15770294 -26.20718384 63.00965881 C-26.57532196 63.76903244 -26.94346008 64.52840607 -27.32275391 65.31079102 C-27.64788971 65.9774025 -27.97302551 66.64401398 -28.30801392 67.33082581 C-29.12765427 69.00676666 -29.12765427 69.00676666 -29 71 C-29.90492188 71.08636719 -30.80984375 71.17273438 -31.7421875 71.26171875 C-44.05049156 72.50702585 -56.27061447 74.31044433 -68.50146484 76.1472168 C-69.20279541 76.2522905 -69.90412598 76.3573642 -70.62670898 76.46562195 C-72.02059049 76.67474664 -73.41431085 76.88494844 -74.80786133 77.0962677 C-78.30696519 77.62160392 -81.80578056 78.10839829 -85.31884766 78.53125 C-86.35480827 78.65832336 -86.35480827 78.65832336 -87.41169739 78.78796387 C-89.31178286 79.01747985 -91.21311435 79.23661172 -93.11450195 79.45507812 C-96.11714688 79.74140782 -96.11714688 79.74140782 -98 82 C-97.00766026 83.19390875 -96.00551846 84.37966913 -95 85.5625 C-94.1646875 86.55443359 -94.1646875 86.55443359 -93.3125 87.56640625 C-91.38848777 89.59116912 -89.45437622 91.38649105 -87.34619141 93.20922852 C-80.97087139 98.75909102 -74.73335094 104.43417014 -68.61474609 110.26611328 C-67.12091392 111.67266683 -65.60959865 113.06087914 -64.08154297 114.43017578 C-51.86073649 125.41183711 -51.86073649 125.41183711 -50.49279785 131.11437988 C-50.2646178 135.54587666 -51.23228354 139.62607548 -52.42706299 143.86895752 C-53.18262765 146.6792846 -53.63588032 149.50473062 -54.0953064 152.37582397 C-54.78214154 156.63937163 -55.60535066 160.87961243 -56.39550781 165.125 C-58.35721981 175.71727124 -59.86036143 186.28739745 -61 197 C-56.86672754 195.71312563 -53.11905499 194.16222121 -49.28125 192.1640625 C-47.65062622 191.31775269 -47.65062622 191.31775269 -45.98706055 190.4543457 C-44.83633057 189.85066162 -43.68560059 189.24697754 -42.5 188.625 C-41.29931095 187.99879646 -40.09854506 187.37274022 -38.89770508 186.74682617 C-29.35013228 181.75816612 -19.88359122 176.62524154 -10.44921875 171.42578125 C-9.67497559 171.00506348 -8.90073242 170.5843457 -8.10302734 170.15087891 C-6.29122777 169.15937401 -4.49724986 168.13542845 -2.70703125 167.10546875 C0.51758617 165.78863364 1.69230065 166.10089503 5 167 C7.12695312 167.97705078 7.12695312 167.97705078 9.28125 169.1953125 C10.10931152 169.65679687 10.93737305 170.11828125 11.79052734 170.59375 C12.68465332 171.0990625 13.5787793 171.604375 14.5 172.125 C23.71236835 177.24420828 33.00781675 182.17241253 42.375 187 C42.99592529 187.32051331 43.61685059 187.64102661 44.2565918 187.97125244 C50.81681096 191.35673049 57.38724968 194.71823806 64 198 C63.38359045 192.87079389 62.6712997 187.78304487 61.8125 182.6875 C61.69156982 181.96183838 61.57063965 181.23617676 61.44604492 180.48852539 C60.61626808 175.54160977 59.75461411 170.60079222 58.87715149 165.66215515 C58.32385323 162.5423716 57.77648214 159.42155797 57.2293396 156.3006897 C56.95355395 154.7371775 56.67497125 153.17415584 56.39346313 151.61166382 C55.99095507 149.37640616 55.59816838 147.1396154 55.20703125 144.90234375 C55.08529541 144.24026917 54.96355957 143.57819458 54.83813477 142.89605713 C52.67426528 130.31777713 52.67426528 130.31777713 55.03669739 126.18754578 C56.54150137 124.40263249 58.13108287 122.82855703 59.84375 121.2421875 C60.7475238 120.35395798 60.7475238 120.35395798 61.66955566 119.44778442 C63.5928564 117.56798648 65.54527543 115.72204088 67.5 113.875 C68.78325524 112.6283629 70.06452682 111.37968045 71.34375 110.12890625 C76.8780488 104.74435601 82.48580584 99.47142981 88.34960938 94.4453125 C91.02160977 92.10533582 93.51248459 89.59556147 96 87.0625 C96.48855469 86.56943359 96.97710937 86.07636719 97.48046875 85.56835938 C98.65603525 84.38126771 99.82838826 83.19099502 101 82 C97.83133825 79.88755883 96.26733518 79.56791127 92.56640625 79.0703125 C91.45563721 78.91675293 90.34486816 78.76319336 89.20043945 78.60498047 C87.99991943 78.44658691 86.79939941 78.28819336 85.5625 78.125 C83.02602897 77.77613396 80.48957102 77.42717279 77.953125 77.078125 C76.63089992 76.89878936 75.30863392 76.71975517 73.98632812 76.54101562 C67.59182297 75.67532928 61.20200552 74.77673611 54.8125 73.875 C53.66273682 73.71660645 52.51297363 73.55821289 51.32836914 73.39501953 C49.18303312 73.09331434 47.0395732 72.77782198 44.89868164 72.44604492 C43.05927276 72.16299935 41.21444371 71.91185874 39.36499023 71.7043457 C33.87788142 70.900215 33.87788142 70.900215 31.62768555 68.59277344 C30.36412697 66.60052185 29.3981652 64.59243789 28.4375 62.4375 C28.04602783 61.6326416 27.65455566 60.8277832 27.2512207 59.99853516 C26.34418333 58.12441204 25.4523889 56.24286913 24.57226562 54.35595703 C22.74585272 50.45752973 20.868888 46.58542806 18.984375 42.71484375 C16.8528249 38.33620488 14.72352235 33.95680583 12.62084961 29.56420898 C9.2793119 22.59418177 5.89985332 15.6805077 2 9 C1.67 9 1.34 9 1 9 Z " fill="#0F0C07" transform="translate(307,107)"/>
<path d="M0 0 C33.33 0 66.66 0 101 0 C103.24179997 7.84629989 104.1459968 14.32076996 104.0625 22.375 C104.05798828 23.20644531 104.05347656 24.03789063 104.04882812 24.89453125 C104.03713164 26.92971897 104.01919935 28.96486923 104 31 C98.39088158 31.95540368 92.98426423 32.13669566 87.30102539 32.11352539 C86.35390686 32.11367142 85.40678833 32.11381744 84.43096924 32.1139679 C81.31984111 32.1132747 78.20877385 32.10551015 75.09765625 32.09765625 C72.93289726 32.09578996 70.76813786 32.09436705 68.6033783 32.09336853 C62.92018456 32.08955994 57.2370166 32.07974385 51.55383301 32.06866455 C45.74878284 32.05841473 39.94372849 32.05386327 34.13867188 32.04882812 C22.7591033 32.03812006 11.37955379 32.02106361 0 32 C-0.74419352 28.46516156 -1.12833925 25.23771703 -1.1328125 21.62109375 C-1.13410156 20.61755859 -1.13539063 19.61402344 -1.13671875 18.58007812 C-1.13285156 17.54302734 -1.12898437 16.50597656 -1.125 15.4375 C-1.12886719 14.39658203 -1.13273438 13.35566406 -1.13671875 12.28320312 C-1.13542969 11.28095703 -1.13414062 10.27871094 -1.1328125 9.24609375 C-1.13168457 8.33529053 -1.13055664 7.4244873 -1.12939453 6.48608398 C-1 4 -1 4 0 0 Z " fill="#5584AE" transform="translate(636,821)"/>
<path d="M0 0 C9.24 0 18.48 0 28 0 C28.11313127 13.77834381 28.20479203 27.55637722 28.25906086 41.3350811 C28.28511214 47.73365462 28.3204296 54.13189285 28.37719727 60.53027344 C28.43167481 66.70946659 28.46145414 72.88833799 28.47438622 79.06775284 C28.48359773 81.42079861 28.50158565 83.77382753 28.52865028 86.12673569 C28.56514847 89.43236575 28.56993649 92.73668011 28.56762695 96.04248047 C28.58560333 97.00705673 28.60357971 97.971633 28.62210083 98.96543884 C28.56892256 106.03744731 26.58721478 110.95594837 23 117 C22.401875 118.03125 21.80375 119.0625 21.1875 120.125 C20.795625 120.74375 20.40375 121.3625 20 122 C12.69303451 119.55145777 7.01987581 113.53188526 3.5 106.75 C-2.35957351 94.05425739 -0.13989697 76.2191622 -0.09765625 62.5 C-0.09578542 60.68440795 -0.09436467 58.86881539 -0.09336853 57.05322266 C-0.0895956 52.33189438 -0.07981157 47.61059808 -0.06866455 42.88928223 C-0.05833648 38.04858838 -0.05384678 33.20788924 -0.04882812 28.3671875 C-0.03818325 18.9114422 -0.02063045 9.45572879 0 0 Z " fill="#5686B1" transform="translate(637,858)"/>
<path d="M0 0 C0.95648437 0.14179688 1.91296875 0.28359375 2.8984375 0.4296875 C3.86007812 0.55601562 4.82171875 0.68234375 5.8125 0.8125 C8.2734375 1.3046875 8.2734375 1.3046875 10.2734375 2.3046875 C4.26687078 22.89863053 -16.75847321 38.6758904 -34.734375 48.55078125 C-53.13159297 58.26679793 -71.12804863 63.51391595 -92.0390625 63.6171875 C-93.12429199 63.62282715 -94.20952148 63.6284668 -95.32763672 63.63427734 C-105.24634781 63.54497413 -114.47597789 62.18418298 -123.7265625 58.5546875 C-124.40734863 58.29155762 -125.08813477 58.02842773 -125.78955078 57.75732422 C-146.48179148 49.56145912 -160.64129499 35.85431498 -169.89453125 15.76953125 C-171.2389713 12.39265131 -171.7265625 9.98216783 -171.7265625 6.3046875 C-167.56711506 4.99976281 -164.07619341 4.18449045 -159.7265625 4.3046875 C-159.23027344 5.35527344 -158.73398437 6.40585937 -158.22265625 7.48828125 C-154.43338714 15.3760133 -150.74524989 22.84166749 -144.7265625 29.3046875 C-144.18128906 29.9028125 -143.63601563 30.5009375 -143.07421875 31.1171875 C-129.84430186 44.08655898 -110.56393268 48.63118055 -92.6640625 48.7421875 C-65.463027 48.40522825 -41.33437918 37.8025973 -20.7265625 20.3046875 C-19.90542969 19.68078125 -19.08429688 19.056875 -18.23828125 18.4140625 C-15.496873 16.11179118 -13.39464285 13.66414129 -11.1640625 10.8671875 C-10.42027344 9.94035156 -9.67648437 9.01351563 -8.91015625 8.05859375 C-6.69744008 5.34053055 -6.69744008 5.34053055 -4.80078125 2.44921875 C-2.7265625 0.3046875 -2.7265625 0.3046875 0 0 Z " fill="#EDD34B" transform="translate(773.7265625,419.6953125)"/>
<path d="M0 0 C0.81542431 2.08219049 1.62723189 4.16579761 2.4375 6.25 C2.88996094 7.41015625 3.34242188 8.5703125 3.80859375 9.765625 C5.55365648 14.50304119 6.11769572 18.17199382 6.0625 23.25 C6.05347656 24.32765625 6.04445313 25.4053125 6.03515625 26.515625 C6.02355469 27.33546875 6.01195312 28.1553125 6 29 C-64.97111138 40.6578832 -64.97111138 40.6578832 -85 40 C-85.04898438 38.85144531 -85.09796875 37.70289063 -85.1484375 36.51953125 C-85.2236005 34.95050365 -85.2991421 33.38149416 -85.375 31.8125 C-85.4059375 31.06291016 -85.436875 30.31332031 -85.46875 29.54101562 C-85.816586 22.6132819 -86.8628934 15.83800592 -88 9 C-87.38788162 8.94624207 -86.77576324 8.89248413 -86.14509583 8.83709717 C-46.65018891 5.50043046 -46.65018891 5.50043046 -7.37280273 0.2878418 C-4.89264089 -0.0130236 -2.49586745 -0.04976721 0 0 Z " fill="#5685B0" transform="translate(842,810)"/>
<path d="M0 0 C18.81 1.32 37.62 2.64 57 4 C57 14.56 57 25.12 57 36 C39.00270088 36 39.00270088 36 32.421875 35.37890625 C31.71830872 35.31468979 31.01474243 35.25047333 30.28985596 35.18431091 C28.10920313 34.98384249 25.92964938 34.77356793 23.75 34.5625 C22.28652229 34.42574614 20.82298042 34.28967712 19.359375 34.15429688 C16.54595019 33.89360578 13.73285302 33.62972903 10.91992188 33.36376953 C5.61628002 32.87159051 0.30923159 32.4271576 -5 32 C-5.27457818 20.39933886 -4.6087747 10.75380764 0 0 Z " fill="#5685B0" transform="translate(574,816)"/>
<path d="M0 0 C9.11689851 0.72356337 18.01638277 2.34292907 27 4 C24.69737481 24.29523136 15.00599077 42.82818742 -0.4375 56.09375 C-6.87432002 60.92136502 -16.808988 67 -25 67 C-24.46210654 59.384561 -22.07654179 52.61171681 -19.5625 45.4375 C-19.34301697 44.80559753 -19.12353394 44.17369507 -18.8973999 43.52264404 C-13.70722253 28.61736289 -8.10854257 13.58828823 0 0 Z " fill="#5785B0" transform="translate(517,845)"/>
<path d="M0 0 C3.33064031 2.13502584 3.94297049 4.29382936 4.98046875 8.03125 C5.68725258 11.94574504 5.62655274 15.59239248 5.4375 19.5625 C2.7975 19.5625 0.1575 19.5625 -2.5625 19.5625 C-2.5625 21.2125 -2.5625 22.8625 -2.5625 24.5625 C0.0775 24.8925 2.7175 25.2225 5.4375 25.5625 C5.75195877 33.30167964 5.28142234 41.01607709 3.4375 48.5625 C0.85816373 49.85216814 0.13596086 49.38181846 -2.5625 48.5 C-12.11863261 45.0991863 -19.89626318 40.06173801 -24.9375 31.125 C-26.48253469 24.79035778 -25.4498234 18.59696045 -23.9375 12.375 C-23.72673828 11.34729492 -23.72673828 11.34729492 -23.51171875 10.29882812 C-20.50554805 -2.19481731 -10.66412947 -1.30962994 0 0 Z " fill="#A06947" transform="translate(197.5625,388.4375)"/>
<path d="M0 0 C7.19459857 -0.21120322 14.02087575 0.39247501 21.125 1.5 C22.55972656 1.71462891 22.55972656 1.71462891 24.0234375 1.93359375 C26.35002216 2.28258145 28.67539156 2.63812333 31 3 C30.79503906 3.88558594 30.59007812 4.77117188 30.37890625 5.68359375 C28.24951699 15.47470894 27.35514368 24.99474536 27 35 C22.85338675 34.38010591 18.7078694 33.75315377 14.5625 33.125 C13.39783203 32.95097656 12.23316406 32.77695312 11.03320312 32.59765625 C4.62012663 31.62214602 -1.68814565 30.49864349 -8 29 C-8.71020222 18.52451733 -5.71540868 8.77723476 0 0 Z " fill="#5584AE" transform="translate(526,811)"/>
<path d="M0 0 C2.63528293 1.31764147 2.55989585 2.3220964 3.5 5.0625 C6.63932354 12.29559342 12.3998357 16.3512884 19.4375 19.57421875 C22.60280632 20.80713382 25.77158117 21.94499076 29 23 C29.99 23.33 30.98 23.66 32 24 C31.67 31.59 31.34 39.18 31 47 C16.48052457 45.54805246 6.79944355 41.32543587 -2.5234375 29.98046875 C-7.76390041 22.95159389 -8.1314445 15.59897817 -7 7 C-5.40162524 3.66117273 -3.35190137 1.67595068 0 0 Z " fill="#9D6744" transform="translate(167,419)"/>
<path d="M0 0 C1.32 0 2.64 0 4 0 C4.35191406 1.07636719 4.70382812 2.15273438 5.06640625 3.26171875 C12.80805434 26.40413514 24.57195745 43.88070234 46.75 55.25 C60.64938483 62.03514883 74.74550827 64.96054078 90 67 C90 68.32 90 69.64 90 71 C68.08607797 72.77042458 44.01163433 63.04619325 27.40234375 49.11328125 C26.60957031 48.41589844 25.81679688 47.71851563 25 47 C24.23816406 46.33355469 23.47632813 45.66710937 22.69140625 44.98046875 C11.88493176 34.88568582 5.97000436 22.67158577 1 9 C0.60941406 8.07960938 0.21882812 7.15921875 -0.18359375 6.2109375 C-1.12122435 3.67170822 -0.9262598 2.50090147 0 0 Z " fill="#080A0C" transform="translate(755,869)"/>
<path d="M0 0 C3.19163753 1.52328155 5.76213211 3.25782385 8 6 C8.90906587 10.83197176 8.69856539 14.85900986 6.125 19.0625 C2.3826999 22.47459715 -0.60766701 22.33161705 -5.515625 22.2890625 C-9.00210977 21.88340232 -10.70043595 20.59628199 -13 18 C-14.24300105 14.27099684 -14.6711674 10.86650786 -14 7 C-10.46892959 0.86015368 -6.88035828 -0.46646497 0 0 Z " fill="#06090B" transform="translate(657,826)"/>
<path d="M0 0 C1.9375 0.3125 1.9375 0.3125 4 1 C4.495 2.485 4.495 2.485 5 4 C3.41015625 6.3828125 3.41015625 6.3828125 1.0625 9.125 C-0.18660156 10.58679688 -0.18660156 10.58679688 -1.4609375 12.078125 C-2.29882812 13.04234375 -3.13671875 14.0065625 -4 15 C-4.69351563 15.84046875 -5.38703125 16.6809375 -6.1015625 17.546875 C-11.58215813 24.05371762 -17.4533767 29.34745608 -26.1875 30.375 C-32.37382378 29.76650914 -36.78211937 26.43918918 -41 22 C-40 19 -40 19 -38.3125 18 C-35.07663862 18 -33.936144 19.7640966 -31.6328125 21.8359375 C-28.72452071 23.90931299 -26.41711053 23.53954377 -23 23 C-12.62973287 18.47479253 -6.25263211 9.04636136 0 0 Z " fill="#080605" transform="translate(643,288)"/>
<path d="M0 0 C4.49305416 -0.58004593 8.38026854 -0.96704362 12.375 1.41796875 C17.54589892 5.875968 20.08051663 9.3532107 20.625 16.25 C20.69976563 17.14203125 20.77453125 18.0340625 20.8515625 18.953125 C20.90054688 19.62859375 20.94953125 20.3040625 21 21 C17.7128628 21.84829347 14.91611833 21.95393625 11.5625 21.75 C7.96310244 21.67227215 6.34120451 22.1175895 3.6875 24.5625 C2.800625 25.366875 1.91375 26.17125 1 27 C-1.375 26.8125 -1.375 26.8125 -3 26 C-3 22 -3 22 -1.56640625 20.33203125 C3.56163638 16.44351549 7.55735 15.02982708 14 15 C12.80325008 11.5938656 11.7782855 9.32365696 9 7 C6.7396956 6.00626561 6.7396956 6.00626561 4.3125 5.3125 C3.50425781 5.06113281 2.69601562 4.80976563 1.86328125 4.55078125 C1.24839844 4.36902344 0.63351562 4.18726563 0 4 C0 2.68 0 1.36 0 0 Z " fill="#0B0706" transform="translate(740,252)"/>
<path d="M0 0 C2.2890625 0.015625 2.2890625 0.015625 5 1 C6.42241618 3.65114164 7.41933432 5.93747096 8.375 8.75 C8.64699219 9.46671875 8.91898438 10.1834375 9.19921875 10.921875 C11.76978909 18.09310711 11.76978909 18.09310711 10 22 C8.03487678 23.82041606 6.23491071 25.29610182 4.0625 26.8125 C3.23588867 27.42254883 3.23588867 27.42254883 2.39257812 28.04492188 C-1.69486607 31 -1.69486607 31 -4 31 C-3.30718756 20.58392338 -1.6096613 10.30455802 0 0 Z " fill="#EFF0F0" transform="translate(858,661)"/>
<path d="M0 0 C2.31 0 4.62 0 7 0 C9.57815545 8.56866094 10.39291237 16.32772926 10.1875 25.25 C10.17396484 26.38824219 10.16042969 27.52648437 10.14648438 28.69921875 C10.11160054 31.46666987 10.06259317 34.23306105 10 37 C7.69 37 5.38 37 3 37 C2.98018066 36.37657715 2.96036133 35.7531543 2.93994141 35.11083984 C2.5457001 23.29013494 2.08224527 11.6646167 0 0 Z " fill="#4F82AF" transform="translate(742,820)"/>
<path d="M0 0 C2.31 0 4.62 0 7 0 C6.46852204 2.72382453 5.90115621 5.43136721 5.28125 8.13671875 C3.09085013 18.09208616 2.33806229 27.8231592 2 38 C0.02 38 -1.96 38 -4 38 C-4.75464396 9.50928793 -4.75464396 9.50928793 0 0 Z " fill="#5181AA" transform="translate(562,815)"/>
<path d="M0 0 C3.67008497 0.64855971 7.33514195 1.32256929 11 2 C12.21558594 2.21785156 13.43117188 2.43570313 14.68359375 2.66015625 C33.9077697 6.26099985 33.9077697 6.26099985 41 12 C40.34 13.32 39.68 14.64 39 16 C35.41425583 16 33.19111 14.98123412 29.875 13.625 C22.7849496 10.8455118 16.39498866 9.1440394 8.8125 8.625 C4.12025653 8.23702979 1.62385875 6.95630582 -2 4 C-1.34 2.68 -0.68 1.36 0 0 Z " fill="#0A0705" transform="translate(647,204)"/>
<path d="M0 0 C3.74879143 2.03738665 4.77169934 3.31509801 6.125 7.375 C6 11 6 11 4.0625 14.4375 C0.70463556 17.24714167 -0.79945652 17.92955099 -5.05859375 17.58203125 C-8.8001617 16.4603137 -10.14799711 14.28581158 -12 11 C-12.06874509 7.01278471 -11.58331487 4.8749723 -9.375 1.5625 C-6.02385272 -0.64220216 -3.93750984 -0.55263296 0 0 Z " fill="#060504" transform="translate(673,226)"/>
<path d="M0 0 C4.45850936 0.79616239 5.90783917 1.93313458 8.5 5.625 C9.2878128 10.0367517 9.02975133 11.84692774 6.5 15.5625 C2.33082591 18.42880719 0.48902441 18.41690864 -4.5 17.625 C-7.74985922 14.94386615 -8.39575014 13.27366582 -9.0625 9.125 C-8.5 5.625 -8.5 5.625 -6.4375 2.6875 C-3.5 0.625 -3.5 0.625 0 0 Z " fill="#060404" transform="translate(600.5,225.375)"/>
<path d="M0 0 C1.875 1.125 1.875 1.125 3 3 C3.42478586 7.07794425 3.31282587 8.53076119 1 12 C-0.875 12.3984375 -0.875 12.3984375 -3 12.375 C-3.70125 12.38273438 -4.4025 12.39046875 -5.125 12.3984375 C-7 12 -7 12 -9 9 C-9.32502803 5.87973093 -9.51151479 3.85252465 -7.875 1.125 C-5.11909116 -0.52854531 -3.14924548 -0.39365568 0 0 Z " fill="#547FA6" transform="translate(657,831)"/>
<path d="M0 0 C2.52712258 1.50248028 4.68890508 3.1605571 7 5 C6.34 6.32 5.68 7.64 5 9 C2 9 2 9 0.125 7.5 C-2.51659522 5.63534455 -3.82499509 5.60312439 -7 6 C-7.70125 6.350625 -8.4025 6.70125 -9.125 7.0625 C-11 8 -11 8 -14 7 C-13.07739356 3.89668743 -12.29502729 2.25288053 -9.8125 0.125 C-5.99497532 -1.40200987 -3.95697006 -1.09157795 0 0 Z " fill="#0B0705" transform="translate(621,256)"/>
<path d="M0 0 C1.29956862 2.59913724 1.93432023 4.04441045 2 7 C0.25237561 9.5839109 -1.80409456 11.79136468 -4 14 C-4.99 13.34 -5.98 12.68 -7 12 C-7.99 12.99 -8.98 13.98 -10 15 C-10.66 14.67 -11.32 14.34 -12 14 C-11.55269531 13.57589844 -11.10539063 13.15179688 -10.64453125 12.71484375 C-6.55048098 8.74300394 -3.186099 4.73087427 0 0 Z " fill="#1F1C0D" transform="translate(778,433)"/>
<path d="M0 0 C3.3125 0.1875 3.3125 0.1875 7 1 C8.9375 3.5625 8.9375 3.5625 10 6 C8.35 6.66 6.7 7.32 5 8 C2.525 4.04 2.525 4.04 0 0 Z " fill="#16150B" transform="translate(605,448)"/>
<path d="M0 0 C1.15392455 2.3078491 1.53437166 4.47230331 2 7 C-0.475 8.485 -0.475 8.485 -3 10 C-3.66 9.01 -4.32 8.02 -5 7 C-3.35 4.69 -1.7 2.38 0 0 Z " fill="#13120A" transform="translate(778,433)"/>
<path d="M0 0 C3.35661695 1.67830848 4.32506861 4.70789347 6 8 C5.67 8.66 5.34 9.32 5 10 C2.69 8.02 0.38 6.04 -2 4 C-1.34 2.68 -0.68 1.36 0 0 Z " fill="#E2CA51" transform="translate(406,578)"/>
<path d="M0 0 C2.475 0.99 2.475 0.99 5 2 C4.67 3.98 4.34 5.96 4 8 C3.01 7.67 2.02 7.34 1 7 C1 5.35 1 3.7 1 2 C0.34 1.67 -0.32 1.34 -1 1 C-0.67 0.67 -0.34 0.34 0 0 Z " fill="#1B1A0B" transform="translate(628,467)"/>
<path d="M0 0 C0.33 0.99 0.66 1.98 1 3 C-1.31 5.31 -3.62 7.62 -6 10 C-6.99 9.67 -7.98 9.34 -9 9 C-8.51789062 8.60167969 -8.03578125 8.20335937 -7.5390625 7.79296875 C-6.90742187 7.26316406 -6.27578125 6.73335938 -5.625 6.1875 C-4.99851562 5.66542969 -4.37203125 5.14335937 -3.7265625 4.60546875 C-1.7778952 2.91774261 -1.7778952 2.91774261 0 0 Z " fill="#DEC545" transform="translate(760,433)"/>
<path d="M0 0 C1.42944945 2.35438733 2.08661261 3.48032433 1.625 6.25 C1.41875 6.8275 1.2125 7.405 1 8 C-0.98 7.01 -2.96 6.02 -5 5 C-3.68 4.67 -2.36 4.34 -1 4 C-0.67 2.68 -0.34 1.36 0 0 Z " fill="#CAB72C" transform="translate(369,297)"/>
<path d="M0 0 C0.33 0.99 0.66 1.98 1 3 C-1.31 5.31 -3.62 7.62 -6 10 C-6.66 9.67 -7.32 9.34 -8 9 C-5.36 6.03 -2.72 3.06 0 0 Z " fill="#E3CA4C" transform="translate(769,423)"/>
<path d="M0 0 C3.36720387 1.39332574 4.9859524 2.9789286 7 6 C4 6 4 6 1.8125 4.125 C0 2 0 2 0 0 Z " fill="#E59F46" transform="translate(213,201)"/>
<path d="M0 0 C1.32 0.99 2.64 1.98 4 3 C3.34 4.32 2.68 5.64 2 7 C1.34 7 0.68 7 0 7 C0 4.69 0 2.38 0 0 Z " fill="#F3AC4F" transform="translate(80,530)"/>
<path d="M0 0 C2.3431213 0.25561323 4.67843403 0.59270772 7 1 C7.33 1.66 7.66 2.32 8 3 C7.34 3 6.68 3 6 3 C5.67 3.66 5.34 4.32 5 5 C2 4 2 4 0.8125 1.9375 C0.544375 1.298125 0.27625 0.65875 0 0 Z " fill="#1F1D0C" transform="translate(605,448)"/>
</svg>
