<?xml version="1.0" encoding="UTF-8"?>
<svg version="1.1" xmlns="http://www.w3.org/2000/svg" width="1536" height="1024">
<path d="M0 0 C506.88 0 1013.76 0 1536 0 C1536 337.92 1536 675.84 1536 1024 C1029.12 1024 522.24 1024 0 1024 C0 686.08 0 348.16 0 0 Z " fill="#FAFAFD" transform="translate(0,0)"/>
<path d="M0 0 C1.35038147 -0.00668677 1.35038147 -0.00668677 2.72804338 -0.01350862 C4.1979722 -0.01323207 4.1979722 -0.01323207 5.69759655 -0.01294994 C7.26974738 -0.01846498 7.26974738 -0.01846498 8.87365884 -0.02409142 C12.39108211 -0.03511812 15.90847584 -0.03897036 19.42591381 -0.04278088 C21.94565964 -0.04904616 24.46540454 -0.05569302 26.98514843 -0.0626936 C34.54860765 -0.08190862 42.11206166 -0.09251853 49.67553905 -0.10142139 C53.23939255 -0.10580834 56.80324457 -0.11117397 60.3670969 -0.11641026 C72.21656803 -0.13341673 84.06603826 -0.14791151 95.91551971 -0.155159 C98.9881576 -0.1570688 102.06079548 -0.15898915 105.13343334 -0.16094494 C106.27892635 -0.16167055 106.27892635 -0.16167055 107.44756063 -0.16241082 C119.82204939 -0.17071356 132.19644157 -0.19605717 144.57088814 -0.22852562 C157.28146648 -0.26160373 169.99199574 -0.2796083 182.70261735 -0.28280324 C189.83683149 -0.28496728 196.97090464 -0.29370077 204.10507679 -0.31926441 C210.81509317 -0.34325324 217.52481197 -0.34679246 224.23487759 -0.33650303 C226.6971302 -0.33600674 229.15939517 -0.34235431 231.62160969 -0.35605907 C234.98415794 -0.37372773 238.34579011 -0.3666957 241.70833874 -0.35352612 C242.68159912 -0.36449536 243.6548595 -0.37546461 244.65761262 -0.38676625 C251.98956457 -0.31748286 257.2246121 1.41953816 262.81922436 6.21234608 C269.5992523 14.01709874 272.13088672 19.96235046 271.78748608 30.42499256 C270.65185127 41.11501714 265.47835642 51.71752579 261.11805248 61.42868519 C259.91485262 64.10956488 258.72816543 66.79766924 257.54023266 69.48534107 C256.88854516 70.95969921 256.23614586 72.43374291 255.58307934 73.90749073 C251.55142854 83.01335485 247.5973995 92.15279986 243.64789867 101.29452991 C242.42302207 104.12828996 241.195198 106.96075959 239.96717358 109.79315662 C236.06423868 118.8136838 232.24091986 127.85025313 228.65809155 137.00311756 C226.96159236 141.20342684 225.0421489 145.28364872 223.12000561 149.38422108 C219.30853448 157.58940921 215.80150512 165.93683339 212.21229076 174.24072742 C211.01035004 177.02008096 209.80659077 179.79864603 208.6029768 182.57727528 C202.30059136 197.12754319 196.00510766 211.68063629 189.76844311 226.25922108 C175.26512929 260.16029918 160.65201553 294.01680966 145.91688061 327.81781483 C138.33051029 345.22301903 130.86384767 362.67902903 123.39344311 380.13422108 C120.35272155 387.23879264 117.31115255 394.34300064 114.26844311 401.44672108 C113.88587353 402.34000111 113.50330395 403.23328114 113.10914135 404.15363026 C107.80340018 416.54005276 102.46243284 428.91046227 97.09095287 441.26849842 C92.77162165 451.2229565 88.53210756 461.21021544 84.30393505 471.20364857 C80.35232341 480.54177393 76.36942572 489.86422068 72.29773998 499.15082264 C70.05366706 504.27935028 67.84379685 509.42079214 65.66994762 514.57941151 C64.3485353 517.71469128 63.02136331 520.84752376 61.69443798 523.98047352 C61.04641056 525.51532479 60.40122603 527.05138014 59.75919628 528.58874989 C52.80083771 545.24615913 44.94032367 563.03818178 27.83094311 571.38422108 C21.6140118 573.29712302 15.49840225 573.28480934 9.05842113 573.28812122 C8.01904439 573.29250348 6.97966765 573.29688573 5.90879464 573.30140078 C2.42678757 573.31475301 -1.05519422 573.32095955 -4.53722095 573.32709217 C-7.03416526 573.33499579 -9.53110844 573.3432649 -12.02805042 573.35187244 C-19.51842602 573.3757965 -27.00879742 573.39101236 -34.49919808 573.40393251 C-36.61611036 573.40764792 -38.73302199 573.41162084 -40.84993362 573.41568518 C-54.00822832 573.44091874 -67.16652415 573.46296193 -80.32483768 573.47541332 C-83.3691022 573.47834277 -86.41336668 573.48130448 -89.45763111 573.48431873 C-90.21422176 573.48506478 -90.97081242 573.48581083 -91.75033006 573.48657949 C-104.00703133 573.49923367 -116.26358756 573.53246181 -128.52022102 573.57412057 C-141.11557843 573.61657848 -153.71086162 573.64011254 -166.30629039 573.64533389 C-173.37352197 573.64874298 -180.4405266 573.66043926 -187.50768757 573.69343662 C-194.15616179 573.72442942 -200.80431272 573.72983244 -207.45287228 573.71805286 C-209.89010371 573.71783206 -212.32735345 573.7261423 -214.7645216 573.7437067 C-218.09802224 573.76641952 -221.43009148 573.75809206 -224.76360035 573.74222279 C-225.72257103 573.75610487 -226.68154171 573.76998696 -227.66957211 573.78428972 C-235.09561706 573.69749063 -241.48189395 571.62402888 -247.22801995 566.76232851 C-252.97090038 560.47585131 -254.54809333 552.74167124 -254.31358814 544.48187733 C-253.2216199 535.56448465 -248.82358052 527.17027707 -245.28429127 519.01703358 C-243.4414596 514.7701517 -241.65570759 510.50002812 -239.87218189 506.22797108 C-235.81328626 496.51745419 -231.7133263 486.82456974 -227.60655689 477.13422108 C-226.98575931 475.66857596 -226.36499019 474.20291878 -225.7442522 472.73724842 C-221.12039313 461.82116873 -216.48588247 450.90961882 -211.84923267 439.99896717 C-210.08019059 435.83599446 -208.31184579 431.67272609 -206.54405689 427.50922108 C-206.25417896 426.82658192 -205.96430103 426.14394276 -205.66563892 425.44061756 C-201.13272931 414.76312522 -196.64034196 404.06908902 -192.16423512 393.36768055 C-188.46209111 384.51974214 -184.71268087 375.69339751 -180.91905689 366.88422108 C-175.82211178 355.04081463 -170.82891339 343.15540095 -165.85655689 331.25922108 C-165.47622303 330.34942493 -165.09588917 329.43962879 -164.70403004 328.50226307 C-163.16098139 324.81106147 -161.61802391 321.11982179 -160.07518482 317.4285326 C-156.33467101 308.48067542 -152.58673597 299.53595513 -148.82835865 290.59558582 C-148.14912204 288.97918225 -147.47047369 287.36253134 -146.79246998 285.74561024 C-143.5681341 278.05688716 -140.30528283 270.40234133 -136.82066822 262.82709217 C-134.66340283 258.04232698 -132.66245594 253.19179448 -130.64690113 248.34601307 C-129.23449849 244.95184014 -127.81504798 241.5606168 -126.39561939 238.16937733 C-126.09284077 237.44588093 -125.79006214 236.72238453 -125.47810841 235.976964 C-121.75953373 227.09988584 -117.99743399 218.24131363 -114.23155689 209.38422108 C-113.87303638 208.54083179 -113.51451588 207.69744251 -113.14513111 206.82849598 C-107.76243406 194.16944685 -102.34645001 181.52488802 -96.91756153 168.88559437 C-92.39353696 158.34933843 -87.9327887 147.78838671 -83.51561451 137.20694447 C-78.23968159 124.57477279 -72.84377901 111.99504212 -67.43916798 99.41748524 C-62.71492914 88.42102061 -58.02160519 77.41325838 -53.40993214 66.36908436 C-52.61617301 64.46973108 -51.82018997 62.57132728 -51.02330494 60.67328358 C-48.64356518 55.00474119 -46.27621239 49.33198227 -43.93858814 43.64593983 C-36.99453305 26.95017783 -29.46094472 9.29420133 -11.78233814 1.86078358 C-7.86739995 0.55346131 -4.11844621 0.00951119 0 0 Z " fill="#0DAF18" transform="translate(1058.606556892395,221.86577892303467)"/>
<path d="M0 0 C0.90613979 -0.00438225 1.81227959 -0.00876451 2.74587816 -0.01327956 C5.79497859 -0.02667876 8.8440501 -0.03284899 11.89317322 -0.03897095 C14.07440827 -0.04687114 16.25564202 -0.05514004 18.43687439 -0.06375122 C25.6123174 -0.08998468 32.78776628 -0.10528189 39.96324158 -0.11953735 C42.43296754 -0.12489681 44.90269347 -0.13027432 47.37241936 -0.13566971 C57.64681651 -0.15730189 67.92121209 -0.17603803 78.19562626 -0.1872921 C80.86157294 -0.19023138 83.52751959 -0.19318335 86.19346619 -0.19619751 C86.85605367 -0.19694356 87.51864116 -0.19768961 88.20130705 -0.19845827 C98.25931287 -0.21031595 108.31717219 -0.23916449 118.37510681 -0.27822876 C130.05920281 -0.32346179 141.74317754 -0.3512464 153.42736238 -0.35721266 C159.61045816 -0.36086493 165.79327234 -0.37287329 171.97628975 -0.4053154 C177.79661222 -0.43541588 183.61648303 -0.44170045 189.43686676 -0.42993164 C191.56932446 -0.42971106 193.70180324 -0.43800283 195.83418846 -0.45558548 C217.82374457 -0.62698217 217.82374457 -0.62698217 224.24058533 5.15390015 C225.47668552 7.32349586 225.47668552 7.32349586 226.24058533 9.15390015 C226.90058533 9.15390015 227.56058533 9.15390015 228.24058533 9.15390015 C229.05557095 10.75680544 229.8674846 12.36127292 230.67808533 13.96640015 C231.13054626 14.85972046 231.5830072 15.75304077 232.04917908 16.6734314 C236.37712156 25.68406574 234.33033679 34.35671894 231.20347595 43.44052124 C227.80527552 52.77803762 223.61008409 61.78377068 219.51402283 70.8296814 C216.12945249 78.33622548 212.95607168 85.92284322 209.80308533 93.52890015 C205.5857365 103.68834564 201.22035774 113.76011947 196.67808533 123.77890015 C191.81820507 134.50523075 187.2215225 145.31475289 182.75767517 156.21127319 C179.19996992 164.88048319 175.54058543 173.49868715 171.80308533 182.09140015 C171.53119385 182.71681702 171.25930237 183.34223389 170.97917175 183.98660278 C169.06968171 188.3771741 167.15566559 192.7657649 165.24058533 197.15390015 C156.75420262 216.60309964 148.43512537 236.1168359 140.19493103 255.67147827 C134.39549053 269.43244819 128.54744544 283.17096604 122.64537048 296.88827515 C120.08972291 302.82924525 117.53963595 308.77259702 114.99058533 314.71640015 C114.48253357 315.90104858 113.97448181 317.08569702 113.45103455 318.3062439 C110.75441085 324.60043087 108.0747776 330.9010683 105.42808533 337.21640015 C101.72488587 346.04893111 97.95296084 354.8518399 94.17808533 363.65390015 C93.85591034 364.40516174 93.53373535 365.15642334 93.20179749 365.93045044 C90.56719625 372.07325228 87.931149 378.21543332 85.29472351 384.35745239 C83.15094864 389.35178916 81.00775925 394.34637647 78.86558533 399.34140015 C78.55807343 400.05842102 78.25056152 400.77544189 77.93373108 401.51419067 C72.96959623 413.09195547 68.03729606 424.68304703 63.11558533 436.27890015 C55.75852451 453.61212176 48.35735102 470.92624444 40.92686462 488.2281189 C40.04571068 490.28018058 39.16460665 492.33226369 38.28355408 494.3843689 C37.85402939 495.38479218 37.4245047 496.38521545 36.98196411 497.41595459 C34.25408644 503.77528544 31.54744218 510.14325728 28.85386658 516.5171814 C27.85582058 518.87174051 26.85720188 521.2260557 25.85832214 523.58026123 C25.2538684 525.00890337 24.65180296 526.4385592 24.05253601 527.86938477 C20.99577348 535.16720353 17.76259355 542.30767099 14.06480408 549.3062439 C13.74154648 549.92121735 13.41828888 550.5361908 13.0852356 551.1697998 C10.4779405 555.99664334 7.460643 560.58395946 3.24058533 564.15390015 C2.58058533 564.15390015 1.92058533 564.15390015 1.24058533 564.15390015 C1.24058533 564.81390015 1.24058533 565.47390015 1.24058533 566.15390015 C-0.65133942 567.14059774 -2.54813445 568.11796034 -4.44691467 569.09140015 C-6.03052795 569.9093103 -6.03052795 569.9093103 -7.64613342 570.7437439 C-13.31039705 573.30936393 -18.59402676 573.30064002 -24.70359802 573.29434204 C-25.60539626 573.29731316 -26.50719449 573.30028429 -27.43631995 573.30334544 C-30.45857838 573.3120182 -33.48079713 573.31353948 -36.50306702 573.31503296 C-38.66975997 573.31966206 -40.83645212 573.32468684 -43.00314331 573.33007812 C-48.88949284 573.34319338 -54.77583097 573.34964513 -60.66219282 573.35408878 C-64.33928169 573.35702031 -68.01636744 573.36112522 -71.69345474 573.36559296 C-83.19710252 573.37926424 -94.70074318 573.38893328 -106.20439851 573.39279485 C-119.48632231 573.39727786 -132.7681433 573.41483868 -146.05003583 573.44379544 C-156.31598064 573.46540077 -166.58189649 573.47549848 -176.84786379 573.47683597 C-182.97989327 573.47788461 -189.11182607 573.48380551 -195.24383163 573.50165558 C-201.01074218 573.51811679 -206.77748315 573.52030117 -212.5444088 573.51151657 C-214.66037767 573.51074521 -216.77635558 573.51510187 -218.89230156 573.52497482 C-221.78215814 573.53766771 -224.67141168 573.53183185 -227.56126404 573.52139282 C-228.39736312 573.52944923 -229.23346221 573.53750563 -230.09489763 573.54580617 C-237.51225755 573.4831954 -243.32342698 571.44683554 -248.75941467 566.15390015 C-253.58841383 559.86920269 -256.10588559 553.62273135 -255.75941467 545.65390015 C-255.12924778 541.17470252 -253.77305903 537.11497993 -252.15785217 532.91171265 C-251.76102737 531.86764755 -251.76102737 531.86764755 -251.35618591 530.80249023 C-248.22081807 522.63262592 -244.8075265 514.58126187 -241.38441467 506.52890015 C-240.68005218 504.8650639 -239.97604029 503.20107919 -239.27235413 501.53695679 C-237.81868767 498.09994958 -236.36355081 494.66357067 -234.90736389 491.22763062 C-231.89879327 484.12536182 -228.90990266 477.01482681 -225.91990662 469.90472412 C-219.24148871 454.02654099 -212.54000518 438.15811017 -205.83580017 422.290802 C-201.04054459 410.94084368 -196.26078593 399.58479408 -191.50941467 388.21640015 C-182.67674428 367.10264846 -173.66148608 346.06581235 -164.68421936 325.01327515 C-160.22735494 314.5613267 -155.77278077 304.10840441 -151.32191467 293.65390015 C-150.91191223 292.69085968 -150.50190979 291.72781921 -150.07948303 290.7355957 C-142.48861159 272.90129671 -134.96091578 255.04075819 -127.44935608 237.17294312 C-119.94379069 219.32116982 -112.34375687 201.51159084 -104.70399475 183.71694946 C-99.71423609 172.09151559 -94.76059316 160.45243764 -89.88441467 148.77890015 C-85.49492258 138.27097772 -81.04970612 127.78868139 -76.55213928 117.32650757 C-72.52259045 107.94858915 -68.52646915 98.55678923 -64.53834534 89.16119385 C-63.4488046 86.59585002 -62.35778541 84.03114024 -61.26625061 81.46664429 C-58.05007863 73.90911224 -54.83733716 66.35045926 -51.66122437 58.77598572 C-50.34502101 55.64066902 -49.02140678 52.50851171 -47.69657898 49.37683105 C-47.08651279 47.92976891 -46.47971083 46.48132482 -45.87669373 45.03131104 C-42.65671479 37.29200707 -39.18235444 29.80477618 -35.09925842 22.4781189 C-34.55187012 21.49107971 -34.55187012 21.49107971 -33.99342346 20.48410034 C-26.43538092 7.26030742 -15.23151606 0.00889732 0 0 Z " fill="#6BDD42" transform="translate(735.7594146728516,221.84609985351563)"/>
<path d="M0 0 C1.28214369 -0.00657338 1.28214369 -0.00657338 2.59018928 -0.01327956 C5.45342376 -0.02663054 8.31662748 -0.03283807 11.17988586 -0.03897095 C13.2333388 -0.04687476 15.28679037 -0.05514389 17.34024048 -0.06375122 C24.08275533 -0.08993665 30.82527628 -0.10527435 37.56782532 -0.11953735 C39.89082658 -0.12489826 42.21382781 -0.13027578 44.53682899 -0.13566971 C54.20052776 -0.15729237 63.86422488 -0.17602879 73.5279417 -0.1872921 C87.368234 -0.20353075 101.20824557 -0.23671386 115.04843205 -0.29369295 C124.78533897 -0.33241029 134.52217084 -0.35192687 144.25915271 -0.35721266 C150.07222569 -0.3608633 155.88499899 -0.37285482 161.69798851 -0.4053154 C167.16869528 -0.43542767 172.63892152 -0.44169635 178.10969353 -0.42993164 C180.11314944 -0.42971118 182.11662787 -0.43799325 184.12000656 -0.45558548 C205.31195587 -0.63149089 205.31195587 -0.63149089 213.93110657 7.43515015 C214.44673157 8.16733765 214.96235657 8.89952515 215.49360657 9.65390015 C216.29798157 10.7521814 216.29798157 10.7521814 217.11860657 11.87265015 C219.63557307 16.04852639 220.81200382 19.87419325 221.30610657 24.71640015 C221.47046204 26.11052124 221.47046204 26.11052124 221.63813782 27.5328064 C221.22437906 37.8991406 216.99282892 47.38332283 212.93110657 56.77890015 C212.36825708 58.09921598 211.80618866 59.419865 211.24482727 60.74081421 C209.68403589 64.40657939 208.1115762 68.06723648 206.53681946 71.72702026 C204.657597 76.09875227 202.78733948 80.47432361 200.91548157 84.84921265 C198.59341979 90.27472898 196.269893 95.69959592 193.93867493 101.1211853 C187.78314111 115.43924116 181.70451417 129.78825245 175.74311829 144.18832397 C172.03201091 153.1502535 168.25093227 162.07726964 164.36860657 170.96640015 C157.15571287 187.48278137 150.25227855 204.12599499 143.32362366 220.76303101 C132.96106739 245.64547266 122.51857117 270.4924877 111.9790802 295.30050659 C109.24869724 301.72824222 106.5262731 308.1593346 103.80610657 314.59140015 C103.3616217 315.64230835 102.91713684 316.69321655 102.45918274 317.77597046 C101.13718247 320.90188719 99.81536019 324.02787912 98.49360657 327.15390015 C88.80590642 350.06585121 88.80590642 350.06585121 84.35688782 360.54452515 C84.08625519 361.18196655 83.81562256 361.81940796 83.53678894 362.47616577 C83.2615036 363.12456421 82.98621826 363.77296265 82.70259094 364.44100952 C82.13292274 365.78280354 81.56326138 367.12460045 80.99360657 368.46640015 C80.70687073 369.14178833 80.42013489 369.81717651 80.12471008 370.51303101 C75.19976462 382.11531474 70.29484384 393.72598856 65.39515686 405.33895874 C58.9045156 420.72253884 52.40220386 436.10100976 45.86860657 451.46640015 C45.35188385 452.68167892 45.35188385 452.68167892 44.82472229 453.92150879 C41.63971477 461.41164236 38.45283274 468.90097759 35.26460266 476.38973999 C33.39435702 480.78273308 31.52480874 485.17602236 29.65574646 489.56951904 C28.92672845 491.28286209 28.19746286 492.99609982 27.46794128 494.70922852 C23.65186926 503.67132282 19.86392385 512.64211213 16.16474915 521.65316772 C-0.61711475 562.47364846 -0.61711475 562.47364846 -18.41654968 571.3921814 C-23.85586226 573.37473458 -29.46404748 573.30239181 -35.17100525 573.30107117 C-36.03070569 573.30474786 -36.89040613 573.30842454 -37.77615809 573.31221265 C-40.65010985 573.32320502 -43.5240254 573.32708572 -46.397995 573.3309021 C-48.46144728 573.33717 -50.52489845 573.3438171 -52.58834839 573.35081482 C-59.35789713 573.37181505 -66.12744601 573.38221202 -72.89701843 573.3921814 C-75.23023744 573.39623017 -77.56345634 573.40034713 -79.89667511 573.40453148 C-90.8573107 573.42357263 -101.81793959 573.4378071 -112.77858853 573.44614345 C-125.42094067 573.45591844 -138.06311785 573.48224948 -150.70540833 573.52264434 C-160.48479937 573.55281727 -170.26414028 573.56761337 -180.04357696 573.57092446 C-185.8811786 573.57327315 -191.71859309 573.58221077 -197.55614471 573.60738564 C-203.04897839 573.63069244 -208.54150199 573.63488895 -214.03437233 573.62462425 C-216.04588414 573.62412946 -218.05741137 573.6304332 -220.06887627 573.6441803 C-242.11980851 573.78640722 -242.11980851 573.78640722 -249.62002945 567.33615589 C-254.92222976 562.0822378 -257.19098739 556.04654024 -257.66654968 548.66952515 C-257.45342465 543.04302429 -255.90385103 537.92940863 -254.02201843 532.66171265 C-253.63086601 531.5623513 -253.63086601 531.5623513 -253.23181152 530.44078064 C-249.62194879 520.49323332 -245.38009472 510.80618053 -241.19389343 501.09140015 C-240.30651677 499.02068358 -239.41972641 496.94971566 -238.53349304 494.87850952 C-236.73149811 490.66837799 -234.92708095 486.45929866 -233.12065125 482.25106812 C-229.6048161 474.05666669 -226.11370652 465.85179147 -222.62715149 457.64489746 C-221.56871635 455.15348331 -220.50960526 452.66235719 -219.45048523 450.17123413 C-215.01117047 439.72477282 -210.60667117 429.26419273 -206.22795105 418.79220581 C-201.28359291 406.96947978 -196.26924123 395.17707987 -191.24684143 383.3873291 C-185.46544268 369.81163665 -179.75336395 356.20793177 -174.06889343 342.59140015 C-169.27914453 331.11965895 -164.47308007 319.66049095 -159.47026062 308.27963257 C-154.98252653 298.03201382 -150.66209461 287.71334456 -146.31889343 277.40390015 C-140.46569123 263.51032102 -134.58671519 249.62902982 -128.63139343 235.77890015 C-123.81364528 224.57176764 -119.05065819 213.34374282 -114.34651184 202.08847046 C-109.62819107 190.80114208 -104.85818134 179.53629158 -100.06889343 168.27890015 C-99.70552887 167.42479553 -99.34216431 166.57069092 -98.9677887 165.69070435 C-97.51339401 162.27236251 -96.05887931 158.85407179 -94.60412598 155.43588257 C-91.01624742 147.00464335 -87.43930976 138.56877851 -83.86357117 130.13238525 C-80.15796717 121.39057018 -76.44185405 112.65329726 -72.71733093 103.91952515 C-71.43426729 100.90971257 -70.15132018 97.89985035 -68.86845398 94.88995361 C-68.00463243 92.86357154 -67.14053898 90.83730535 -66.27616882 88.81115723 C-61.84789602 78.42858748 -57.43913686 68.03959942 -53.13920593 57.6031189 C-52.62996834 56.36947853 -52.62996834 56.36947853 -52.11044312 55.11091614 C-50.54369676 51.31346057 -48.98404713 47.51340937 -47.4382782 43.70736694 C-40.85710131 27.63018435 -33.58540771 9.8684556 -16.75639343 2.27890015 C-11.11961431 0.32770737 -5.93549277 0.00371294 0 0 Z " fill="#A6F784" transform="translate(422.5063934326172,221.84609985351563)"/>
<path d="M0 0 C0.66 1.32 1.32 2.64 2 4 C1.01 4.33 0.02 4.66 -1 5 C-2.22520264 8.00847418 -2.22520264 8.00847418 -3 11 C-4 8 -4 8 -3.22265625 5.95703125 C-2.83980469 5.24933594 -2.45695313 4.54164063 -2.0625 3.8125 C-1.68222656 3.09707031 -1.30195312 2.38164063 -0.91015625 1.64453125 C-0.60980469 1.10183594 -0.30945313 0.55914063 0 0 Z " fill="#5DDB2F" transform="translate(564,565)"/>
<path d="M0 0 C0.66 0.33 1.32 0.66 2 1 C1.75 2.875 1.75 2.875 1 5 C-1.0625 6.25 -1.0625 6.25 -3 7 C-2.01 4.69 -1.02 2.38 0 0 Z " fill="#F1F9F3" transform="translate(1148,680)"/>
</svg>
