<?xml version="1.0" encoding="UTF-8"?>
<svg version="1.1" xmlns="http://www.w3.org/2000/svg" width="192" height="186">
<path d="M0 0 C63.36 0 126.72 0 192 0 C192 61.38 192 122.76 192 186 C128.64 186 65.28 186 0 186 C0 124.62 0 63.24 0 0 Z " fill="#FCF9EC" transform="translate(0,0)"/>
<path d="M0 0 C6.61486193 3.787651 10.81772136 8.21425434 13.28515625 15.484375 C15.06981526 22.93532637 14.16297988 28.11065905 10.80859375 34.87890625 C8.73535554 39.98988913 9.59820075 45.13395568 10.91015625 50.34375 C12.51649668 56.90778861 13.50958308 64.77841148 10.515625 70.984375 C9.98582031 71.68046875 9.45601562 72.3765625 8.91015625 73.09375 C8.25015625 73.09375 7.59015625 73.09375 6.91015625 73.09375 C6.81927734 74.03347656 6.81927734 74.03347656 6.7265625 74.9921875 C6.64277344 75.80945313 6.55898437 76.62671875 6.47265625 77.46875 C6.39144531 78.28085938 6.31023437 79.09296875 6.2265625 79.9296875 C5.91015625 82.09375 5.91015625 82.09375 4.91015625 84.09375 C-0.91012013 85.96455312 -6.01356599 86.19698773 -12.08984375 86.09375 C-12.09242188 84.89878906 -12.095 83.70382813 -12.09765625 82.47265625 C-12.13136109 71.18591406 -12.13136109 71.18591406 -17.28515625 61.48828125 C-19.71172144 58.26861791 -21.30233952 54.7875527 -23.02734375 51.15625 C-25.35827737 46.31800896 -27.76989344 41.87531966 -30.96484375 37.53125 C-35.32243486 31.58547079 -37.12805944 25.49436439 -36.08984375 18.09375 C-34.16905818 10.36198024 -30.64305661 5.56184968 -24.08984375 1.09375 C-16.80215629 -3.16885965 -7.74135579 -3.43353768 0 0 Z " fill="#F8DA3B" transform="translate(152.08984375,14.90625)"/>
<path d="M0 0 C0 0.66 0 1.32 0 2 C0.76183594 2.20753906 1.52367188 2.41507812 2.30859375 2.62890625 C5.89249195 4.45466571 6.43957157 6.29781251 8.0625 9.9375 C11.99301002 17.52803334 16.50987483 23.64288719 24 28 C29.02015059 29.12747443 33.92258173 28.49633943 39 28 C40 29 40 29 40.1875 31.4375 C40 34 40 34 38 36 C35.30214156 36.59621181 32.66380802 37.0832287 29.9375 37.5 C28.74640625 37.69118408 28.74640625 37.69118408 27.53125 37.88623047 C21.14420784 38.88641302 14.73802881 39.68311574 8.30834961 40.35351562 C4.53226699 40.71656546 4.53226699 40.71656546 1 42 C-2.73102817 42.64687939 -6.49428351 43.08211766 -10.25 43.5625 C-11.28769531 43.70107422 -12.32539063 43.83964844 -13.39453125 43.98242188 C-24.01035205 45.35854679 -24.01035205 45.35854679 -28 45 C-28.66 44.34 -29.32 43.68 -30 43 C-29.44444444 38.44444444 -29.44444444 38.44444444 -28 37 C-26.31816052 36.76712992 -24.6287584 36.58735834 -22.9375 36.4375 C-22.01839844 36.35371094 -21.09929688 36.26992187 -20.15234375 36.18359375 C-19.44207031 36.12300781 -18.73179688 36.06242187 -18 36 C-16.99025573 32.50794749 -17.04963846 29.43444062 -17.2175293 25.80493164 C-17.61960255 15.7820413 -16.01318995 9.18475064 -9.5625 1.2265625 C-6.693177 -1.02585606 -3.5102013 -0.17263285 0 0 Z " fill="#F8E263" transform="translate(41,118)"/>
<path d="M0 0 C7.63334542 -0.47708409 13.20347266 1.30604806 19.25 6.0625 C24.79831193 11.26131196 27.12587291 17.53319222 27.5 25.0625 C27.33066604 29.57807219 25.87980166 32.78729736 23.8984375 36.78515625 C21.82519929 41.89613913 22.6880445 47.04020568 24 52.25 C25.60634043 58.81403861 26.59942683 66.68466148 23.60546875 72.890625 C23.07566406 73.58671875 22.54585937 74.2828125 22 75 C21.34 75 20.68 75 20 75 C19.90912109 75.93972656 19.90912109 75.93972656 19.81640625 76.8984375 C19.73261719 77.71570313 19.64882812 78.53296875 19.5625 79.375 C19.48128906 80.18710938 19.40007812 80.99921875 19.31640625 81.8359375 C19 84 19 84 18 86 C12.17972362 87.87080312 7.07627776 88.10323773 1 88 C0.99613281 86.20755859 0.99613281 86.20755859 0.9921875 84.37890625 C0.96830865 73.14186714 0.96830865 73.14186714 -4.16796875 63.5 C-6.80075537 59.90728478 -8.5253842 55.9764401 -10.375 51.9375 C-10.73279541 51.16140381 -11.09059082 50.38530762 -11.45922852 49.58569336 C-12.31219141 47.72655441 -13.1569657 45.86366212 -14 44 C-13.39414063 44.30550781 -12.78828125 44.61101563 -12.1640625 44.92578125 C-5.94442326 48.0131473 -0.74561491 48.76968292 6 47 C11.91141413 43.98355923 15.24982903 39.9403693 18 34 C19.97956406 27.66004484 20.21925382 19.80881588 17.5 13.6875 C14.2128984 8.1238192 9.28080289 3.38431504 3 1.5625 C2.01 1.376875 1.02 1.19125 0 1 C0 0.67 0 0.34 0 0 Z " fill="#D5BB33" transform="translate(139,13)"/>
<path d="M0 0 C0 0.66 0 1.32 0 2 C0.76183594 2.20753906 1.52367188 2.41507812 2.30859375 2.62890625 C5.89249195 4.45466571 6.43957157 6.29781251 8.0625 9.9375 C11.15782069 16.13501987 14.76384569 20.10011707 20.08813477 24.48413086 C21.43663142 25.60454925 22.72416654 26.7974903 24 28 C24 28.99 24 29.98 24 31 C23.01 30.67 22.02 30.34 21 30 C21 29.34 21 28.68 21 28 C20.29488281 27.91878906 19.58976562 27.83757812 18.86328125 27.75390625 C15.29937802 26.81552518 13.11492136 25.15951862 10.1875 22.9375 C9.21167969 22.20402344 8.23585938 21.47054687 7.23046875 20.71484375 C6.49441406 20.14894531 5.75835937 19.58304688 5 19 C4.02391783 21.92824652 3.91773332 23.95613276 4 27 C2.4584364 27.02741912 0.91672526 27.04658248 -0.625 27.0625 C-1.48351563 27.07410156 -2.34203125 27.08570313 -3.2265625 27.09765625 C-6 27 -6 27 -12 26 C-12.66 29.96 -13.32 33.92 -14 38 C-14.99 38 -15.98 38 -17 38 C-18.24953857 11.37842049 -18.24953857 11.37842049 -11 3 C-10.525625 2.4225 -10.05125 1.845 -9.5625 1.25 C-6.70395869 -1.03683305 -3.52030019 -0.17312952 0 0 Z " fill="#464256" transform="translate(41,118)"/>
<path d="M0 0 C0.66 0 1.32 0 2 0 C2 0.99 2 1.98 2 3 C2.66 3 3.32 3 4 3 C4 3.99 4 4.98 4 6 C4.61875 6.2475 5.2375 6.495 5.875 6.75 C8.35068687 8.20628639 8.95125002 9.37812506 10 12 C11.65 11.67 13.3 11.34 15 11 C15 17.27 15 23.54 15 30 C15.66 30 16.32 30 17 30 C17.65760352 27.53708869 18.17278813 25.0892192 18.6484375 22.58203125 C19.00808594 20.71611328 19.00808594 20.71611328 19.375 18.8125 C19.60960937 17.56082031 19.84421875 16.30914062 20.0859375 15.01953125 C20.38757813 14.02308594 20.68921875 13.02664062 21 12 C21.99 11.67 22.98 11.34 24 11 C24.66 7.37 25.32 3.74 26 0 C27.32 0 28.64 0 30 0 C31.06014085 3.4967549 31.1994451 6.7933341 31.25 10.4375 C31.27578125 11.54996094 31.3015625 12.66242188 31.328125 13.80859375 C30.96605773 17.33012902 30.14840471 19.21020262 28 22 C27.34 22 26.68 22 26 22 C25.90912109 22.93972656 25.90912109 22.93972656 25.81640625 23.8984375 C25.73261719 24.71570313 25.64882812 25.53296875 25.5625 26.375 C25.48128906 27.18710938 25.40007812 27.99921875 25.31640625 28.8359375 C25 31 25 31 24 33 C18.17972362 34.87080312 13.07627776 35.10323773 7 35 C6.99742187 33.80503906 6.99484375 32.61007813 6.9921875 31.37890625 C6.87169089 19.77837213 6.87169089 19.77837213 1.37109375 9.83203125 C-0.78882429 6.94598691 -0.92604617 4.54978378 -1 1 C-0.67 0.67 -0.34 0.34 0 0 Z " fill="#4A4758" transform="translate(133,66)"/>
<path d="M0 0 C3.63 0 7.26 0 11 0 C11 1.32 11 2.64 11 4 C13.64 4.33 16.28 4.66 19 5 C19 5.99 19 6.98 19 8 C20.32 8 21.64 8 23 8 C22.34 9.98 21.68 11.96 21 14 C20.01 14 19.02 14 18 14 C18.12375 15.3921875 18.12375 15.3921875 18.25 16.8125 C18.29451603 22.22119732 16.00003767 27.06240701 14 32 C13.34 32 12.68 32 12 32 C12 25.73 12 19.46 12 13 C10.35 13.33 8.7 13.66 7 14 C6.38125 13.195625 5.7625 12.39125 5.125 11.5625 C3.25835959 8.96125481 3.25835959 8.96125481 1 8 C0.40644386 5.35139573 0.25790731 2.70802678 0 0 Z " fill="#FAF5EB" transform="translate(136,64)"/>
<path d="M0 0 C1.7936743 1.1217963 3.5848773 2.24754483 5.375 3.375 C6.37273438 4.00148437 7.37046875 4.62796875 8.3984375 5.2734375 C11 7 11 7 13 9 C15.06874034 9.6425235 15.06874034 9.6425235 17 10 C17 10.99 17 11.98 17 13 C12.98055657 13.57497079 8.96037492 14.14444235 4.93945312 14.70898438 C3.57368312 14.90151014 2.20811831 15.09549771 0.84277344 15.29101562 C-1.12769946 15.5729227 -3.09900124 15.84901642 -5.0703125 16.125 C-6.25383301 16.29257813 -7.43735352 16.46015625 -8.65673828 16.6328125 C-12 17 -12 17 -18 17 C-17.34 11.72 -16.68 6.44 -16 1 C-15.67 1 -15.34 1 -15 1 C-15.33 3.31 -15.66 5.62 -16 8 C-10.72 8.33 -5.44 8.66 0 9 C-0.33 6.69 -0.66 4.38 -1 2 C-0.67 1.34 -0.34 0.68 0 0 Z " fill="#F7F2E0" transform="translate(45,136)"/>
<path d="M0 0 C0.33 0 0.66 0 1 0 C1.495 6.435 1.495 6.435 2 13 C1.01 13 0.02 13 -1 13 C-1 14.98 -1 16.96 -1 19 C-2.32 19 -3.64 19 -5 19 C-5 18.01 -5 17.02 -5 16 C-7.01822917 15.83723958 -9.03645833 15.67447917 -11.0546875 15.51171875 C-13 15 -13 15 -15 12 C-17.19454681 11.42006301 -17.19454681 11.42006301 -19.625 11.3125 C-20.44226563 11.24675781 -21.25953125 11.18101563 -22.1015625 11.11328125 C-22.72804687 11.07589844 -23.35453125 11.03851563 -24 11 C-24 12.65 -24 14.3 -24 16 C-24.33 15.01 -24.66 14.02 -25 13 C-27.33075929 13.95865509 -27.33075929 13.95865509 -29 17 C-30.98 12.71 -32.96 8.42 -35 4 C-33.02 4.99 -33.02 4.99 -31 6 C-24.17421369 8.6368106 -16.61169888 9.40892848 -9.51953125 7.2421875 C-5.68889985 5.41670837 -2.8414465 3.18242008 0 0 Z " fill="#F2EAD3" transform="translate(160,53)"/>
<path d="M0 0 C59.4 0 118.8 0 180 0 C180 0.33 180 0.66 180 1 C97.335 1.495 97.335 1.495 13 2 C13 2.33 13 2.66 13 3 C12.22914062 3.06058594 11.45828125 3.12117187 10.6640625 3.18359375 C9.66117188 3.26738281 8.65828125 3.35117187 7.625 3.4375 C6.12839844 3.55931641 6.12839844 3.55931641 4.6015625 3.68359375 C2.02072387 3.84965626 2.02072387 3.84965626 0 5 C0 3.35 0 1.7 0 0 Z " fill="#FDFDFA" transform="translate(0,0)"/>
<path d="M0 0 C0.125 2.375 0.125 2.375 0 5 C-3.82299425 8.82299425 -10.3365084 8.05516549 -15.5 8.0625 C-17.00006131 8.0466861 -18.50011039 8.0276619 -20 8 C-20 7.34 -20 6.68 -20 6 C-20.99 6.33 -21.98 6.66 -23 7 C-29.81574013 8.75332445 -37.02040004 8.15246699 -44 8 C-43.67 7.34 -43.34 6.68 -43 6 C-40.65204846 5.38855429 -38.38501434 4.91058333 -36 4.5 C-35.29464111 4.37254395 -34.58928223 4.24508789 -33.86254883 4.11376953 C-27.7690796 3.05001145 -21.64913142 2.28847982 -15.49804688 1.64648438 C-10.1318917 1.07866433 -5.44736839 -0.10278054 0 0 Z " fill="#FADD3E" transform="translate(81,147)"/>
<path d="M0 0 C7.59 0 15.18 0 23 0 C23 0.33 23 0.66 23 1 C30.92 1.33 38.84 1.66 47 2 C46.67 2.66 46.34 3.32 46 4 C30.82 4 15.64 4 0 4 C0.99 3.67 1.98 3.34 3 3 C3 2.34 3 1.68 3 1 C2.01 0.67 1.02 0.34 0 0 Z " fill="#E8E6E4" transform="translate(87,138)"/>
<path d="M0 0 C0.66 0 1.32 0 2 0 C2.05410687 1.77049689 2.09284119 3.54146849 2.125 5.3125 C2.14820313 6.29863281 2.17140625 7.28476562 2.1953125 8.30078125 C2 11 2 11 0 14 C-4.72409784 14.54210959 -6.90996287 14.6585641 -11 12.1875 C-13 10 -13 10 -13 7 C-12.39671875 6.82984375 -11.7934375 6.6596875 -11.171875 6.484375 C-6.40225553 5.03810329 -3.33511169 3.86872957 0 0 Z " fill="#FEFBE0" transform="translate(141,39)"/>
<path d="M0 0 C3.57416264 0.49641148 6.69252492 1.58251068 10 3 C10 4.32 10 5.64 10 7 C7.03 6.505 7.03 6.505 4 6 C4 7.65 4 9.3 4 11 C2.68 10.67 1.36 10.34 0 10 C-0.33 12.31 -0.66 14.62 -1 17 C-1.66 17 -2.32 17 -3 17 C-3.33 15.68 -3.66 14.36 -4 13 C-4.66 13 -5.32 13 -6 13 C-6.3125 9.8125 -6.3125 9.8125 -6 6 C-3.5625 3.125 -3.5625 3.125 -1 1 C-0.67 0.67 -0.34 0.34 0 0 Z " fill="#39353F" transform="translate(31,104)"/>
<path d="M0 0 C2.33944736 0.28730055 4.6739143 0.61936779 7 1 C6.01 1.495 6.01 1.495 5 2 C5.0825 2.928125 5.165 3.85625 5.25 4.8125 C5.29451603 10.22119732 3.00003767 15.06240701 1 20 C0.34 20 -0.32 20 -1 20 C-1.02888514 16.85418577 -1.04675923 13.70840531 -1.0625 10.5625 C-1.07087891 9.66466797 -1.07925781 8.76683594 -1.08789062 7.84179688 C-1.09111328 6.98779297 -1.09433594 6.13378906 -1.09765625 5.25390625 C-1.10551147 4.06776733 -1.10551147 4.06776733 -1.11352539 2.85766602 C-1 1 -1 1 0 0 Z " fill="#DAD9DF" transform="translate(149,76)"/>
<path d="M0 0 C0.33 0 0.66 0 1 0 C1 3.96 1 7.92 1 12 C0.67 11.34 0.34 10.68 0 10 C-2.64 10 -5.28 10 -8 10 C-8.33 10.99 -8.66 11.98 -9 13 C-9.66 13 -10.32 13 -11 13 C-11 10.69 -11 8.38 -11 6 C-8 6 -8 6 -6 7 C-6 5.35 -6 3.7 -6 2 C-3.03 2.495 -3.03 2.495 0 3 C0 2.01 0 1.02 0 0 Z " fill="#9E8489" transform="translate(41,108)"/>
<path d="M0 0 C0.66 0.99 1.32 1.98 2 3 C1.360625 3.12375 0.72125 3.2475 0.0625 3.375 C-0.618125 3.58125 -1.29875 3.7875 -2 4 C-2.33 4.66 -2.66 5.32 -3 6 C-1.35 6 0.3 6 2 6 C-0.45526122 8.45526122 -1.60629818 8.41457598 -5 8.75 C-6.3303125 8.89695313 -6.3303125 8.89695313 -7.6875 9.046875 C-10 9 -10 9 -12 7 C-11.44444444 2.44444444 -11.44444444 2.44444444 -10 1 C-8.31816052 0.76712992 -6.6287584 0.58735834 -4.9375 0.4375 C-3.55884766 0.31181641 -3.55884766 0.31181641 -2.15234375 0.18359375 C-1.44207031 0.12300781 -0.73179688 0.06242188 0 0 Z " fill="#F5DF63" transform="translate(23,154)"/>
<path d="M0 0 C0.33 2.31 0.66 4.62 1 7 C0.01 7.33 -0.98 7.66 -2 8 C-2 7.01 -2 6.02 -2 5 C-4.64 4.67 -7.28 4.34 -10 4 C-9.67 2.68 -9.34 1.36 -9 0 C-5.67465243 -1.10844919 -3.37817425 -0.84454356 0 0 Z " fill="#3C363E" transform="translate(157,64)"/>
<path d="M0 0 C0.33 0.66 0.66 1.32 1 2 C2.89533342 2.46523063 2.89533342 2.46523063 5.0625 2.625 C6.361875 2.74875 7.66125 2.8725 9 3 C9 3.99 9 4.98 9 6 C9.66 6.33 10.32 6.66 11 7 C7.77856724 9.14762184 6.7404533 9.561068 3 9 C0.59688549 6.76261752 0.03658575 5.53659096 -0.1875 2.25 C-0.125625 1.5075 -0.06375 0.765 0 0 Z " fill="#DCADAF" transform="translate(146,66)"/>
<path d="M0 0 C0 0.33 0 0.66 0 1 C-1.65 1.33 -3.3 1.66 -5 2 C-2.69 2.33 -0.38 2.66 2 3 C2 3.33 2 3.66 2 4 C-1.3 4.33 -4.6 4.66 -8 5 C-8 4.34 -8 3.68 -8 3 C-10.64 3.33 -13.28 3.66 -16 4 C-16 3.01 -16 2.02 -16 1 C-10.63904667 -0.12862175 -5.44693314 -0.09688221 0 0 Z " fill="#F9DE47" transform="translate(43,152)"/>
<path d="M0 0 C1.98 0.99 1.98 0.99 4 2 C8.95504986 3.9589732 13.73591196 4.55547701 19 5 C19 5.33 19 5.66 19 6 C17.37509046 6.02698189 15.75005367 6.04638757 14.125 6.0625 C13.22007812 6.07410156 12.31515625 6.08570313 11.3828125 6.09765625 C9 6 9 6 7 5 C7.66 6.32 8.32 7.64 9 9 C8.01 10.32 7.02 11.64 6 13 C4.02 8.71 2.04 4.42 0 0 Z " fill="#F5DD9C" transform="translate(125,57)"/>
<path d="M0 0 C0.33 0 0.66 0 1 0 C1 4.62 1 9.24 1 14 C1.66 14 2.32 14 3 14 C3 16.97 3 19.94 3 23 C2.01 23 1.02 23 0 23 C0 15.41 0 7.82 0 0 Z " fill="#65534A" transform="translate(24,133)"/>
<path d="M0 0 C1.4540625 0.0309375 1.4540625 0.0309375 2.9375 0.0625 C2.6075 2.0425 2.2775 4.0225 1.9375 6.0625 C0.2875 6.0625 -1.3625 6.0625 -3.0625 6.0625 C-3.44468767 4.40635343 -3.77645102 2.73792976 -4.0625 1.0625 C-3.0625 0.0625 -3.0625 0.0625 0 0 Z " fill="#FADE40" transform="translate(17.0625,155.9375)"/>
<path d="M0 0 C0.33 0 0.66 0 1 0 C1.33 4.29 1.66 8.58 2 13 C1.01 13 0.02 13 -1 13 C-1.22151549 11.20991533 -1.42682213 9.41781838 -1.625 7.625 C-1.74101562 6.62726562 -1.85703125 5.62953125 -1.9765625 4.6015625 C-1.98429688 3.74304687 -1.99203125 2.88453125 -2 2 C-1.34 1.34 -0.68 0.68 0 0 Z " fill="#F0BFB2" transform="translate(160,53)"/>
<path d="M0 0 C0.33 0.99 0.66 1.98 1 3 C-1.58926331 5.58926331 -3.02705279 5.37398043 -6.625 5.625 C-7.62789062 5.69976562 -8.63078125 5.77453125 -9.6640625 5.8515625 C-10.82035156 5.92503906 -10.82035156 5.92503906 -12 6 C-12 5.34 -12 4.68 -12 4 C-8.04 3.34 -4.08 2.68 0 2 C0 1.34 0 0.68 0 0 Z " fill="#F8EDBD" transform="translate(24,150)"/>
<path d="M0 0 C2 1.375 2 1.375 4 3 C4 3.66 4 4.32 4 5 C3.34 5 2.68 5 2 5 C1.67 5.99 1.34 6.98 1 8 C0.34 8 -0.32 8 -1 8 C-1.04241723 5.66705225 -1.04092937 3.33297433 -1 1 C-0.67 0.67 -0.34 0.34 0 0 Z " fill="#E9E7E8" transform="translate(31,113)"/>
<path d="M0 0 C-3.51187196 2.40814077 -5.72656908 3.36629408 -10 3 C-10 2.01 -10 1.02 -10 0 C-6.33694766 -0.74926071 -3.57644848 -1.2380014 0 0 Z " fill="#F5DD5B" transform="translate(37,153)"/>
<path d="M0 0 C0.99 0 1.98 0 3 0 C4.6875 2.5 4.6875 2.5 6 5 C5.01 6.32 4.02 7.64 3 9 C2.01 6.03 1.02 3.06 0 0 Z " fill="#E5BCB6" transform="translate(128,61)"/>
<path d="M0 0 C2.475 0.495 2.475 0.495 5 1 C5.33 2.65 5.66 4.3 6 6 C5.34 5.67 4.68 5.34 4 5 C4 4.34 4 3.68 4 3 C2.68 3 1.36 3 0 3 C0 2.01 0 1.02 0 0 Z " fill="#F9F0CA" transform="translate(133,25)"/>
<path d="M0 0 C2.97 0.33 5.94 0.66 9 1 C9 1.33 9 1.66 9 2 C7.35 2 5.7 2 4 2 C4 3.65 4 5.3 4 7 C0 2.25 0 2.25 0 0 Z " fill="#F3EBDB" transform="translate(132,62)"/>
<path d="M0 0 C2.475 0.495 2.475 0.495 5 1 C5.33 2.65 5.66 4.3 6 6 C5.34 5.34 4.68 4.68 4 4 C1.93125966 3.3574765 1.93125966 3.3574765 0 3 C0 2.01 0 1.02 0 0 Z " fill="#F9F2CE" transform="translate(123,30)"/>
<path d="M0 0 C2 1.3125 2 1.3125 4 3 C4 3.99 4 4.98 4 6 C3.01 5.67 2.02 5.34 1 5 C1 4.34 1 3.68 1 3 C-0.32 2.67 -1.64 2.34 -3 2 C-2.01 2 -1.02 2 0 2 C0 1.34 0 0.68 0 0 Z " fill="#997968" transform="translate(61,143)"/>
</svg>
